SplineFontDB: 3.0
FontName: OSP-DIN
FullName: OSP-DIN
FamilyName: OSP-DIN
Weight: Medium
Copyright: Created by Harrisson, Ludi, Antoine Begon and Theo Boissonade - Brussels - 2011, 2016.
Version: 001.000
ItalicAngle: 0
UnderlinePosition: -716
UnderlineWidth: 102
Ascent: 1638
Descent: 410
InvalidEm: 0
sfntRevision: 0x00010000
LayerCount: 2
Layer: 0 1 "Arri+AOgA-re" 1
Layer: 1 1 "Avant" 0
XUID: [1021 962 1798745627 11251429]
StyleMap: 0x0040
FSType: 4
OS2Version: 4
OS2_WeightWidthSlopeOnly: 0
OS2_UseTypoMetrics: 1
CreationTime: 1232040855
ModificationTime: 1497542300
PfmFamily: 17
TTFWeight: 500
TTFWidth: 3
LineGap: 184
VLineGap: 0
Panose: 2 11 8 6 2 1 2 5 2 3
OS2TypoAscent: 1638
OS2TypoAOffset: 0
OS2TypoDescent: -410
OS2TypoDOffset: 0
OS2TypoLinegap: 184
OS2WinAscent: 1941
OS2WinAOffset: 0
OS2WinDescent: 618
OS2WinDOffset: 0
HheadAscent: 1941
HheadAOffset: 0
HheadDescent: -618
HheadDOffset: 0
OS2SubXSize: 1331
OS2SubYSize: 1434
OS2SubXOff: 0
OS2SubYOff: 287
OS2SupXSize: 1331
OS2SupYSize: 1434
OS2SupXOff: 0
OS2SupYOff: 983
OS2StrikeYSize: 100
OS2StrikeYPos: 528
OS2CapHeight: 1434
OS2XHeight: 1024
OS2Vendor: 'PfEd'
OS2CodePages: 00000001.00000000
OS2UnicodeRanges: 00000001.00000000.00000000.00000000
Lookup: 258 0 0 "'kern' Horizontal Kerning in Latin lookup 0" { "'kern' Horizontal Kerning in Latin lookup 0 subtable"  } ['kern' ('latn' <'dflt' > ) ]
MarkAttachClasses: 1
DEI: 91125
ShortTable: cvt  4
  33
  633
  68
  1297
EndShort
ShortTable: maxp 16
  1
  0
  365
  110
  5
  86
  4
  2
  0
  1
  1
  0
  64
  0
  2
  3
EndShort
LangName: 1033 "" "" "" "FontForge 2.0 : OSP-DIN : 2-3-2011" "" "" "" "" "" "" "" "" "http://osp.kitchen/foundry/osp-din/" "SIL Open Font License, Version 1.1" "http://scripts.sil.org/cms/scripts/page.php?site_id+AD0A-nrsi&id+AD0A-OFL"
GaspTable: 1 65535 2 0
Encoding: Custom
UnicodeInterp: none
NameList: AGL For New Fonts
DisplaySize: -48
AntiAlias: 1
FitToEm: 0
WinInfo: 0 19 6
Grid
51 2662 m 4
 51 -1434 l 1028
-2048 897.200012207 m 0

StartChar: .notdef
Encoding: 429 -1 0
Width: 748
Flags: W
HStem: 0 68<136 544> 1297 68<136 544>
VStem: 68 68<68 1297> 544 68<68 1297>
LayerCount: 2
Fore
SplineSet
68 0 m 1,0,-1
 68 1365 l 1,1,-1
 612 1365 l 1,2,-1
 612 0 l 1,3,-1
 68 0 l 1,0,-1
136 68 m 1,4,-1
 544 68 l 1,5,-1
 544 1297 l 1,6,-1
 136 1297 l 1,7,-1
 136 68 l 1,4,-1
EndSplineSet
Validated: 1
EndChar

StartChar: exclam
Encoding: 1 33 4
Width: 434
GlyphClass: 2
Flags: W
HStem: 0 205<115 319> 1414 20G<115 319>
VStem: 115 204<0 205 822.453 1434>
LayerCount: 2
Fore
SplineSet
115 0 m 1,0,-1
 115 205 l 1,1,-1
 319 205 l 1,2,-1
 319 0 l 1,3,-1
 115 0 l 1,0,-1
115 1024 m 1,4,-1
 115 1434 l 1,5,-1
 319 1434 l 1,6,-1
 319 1024 l 1,7,-1
 268 307 l 1,8,-1
 166 307 l 1,9,-1
 115 1024 l 1,4,-1
EndSplineSet
Validated: 1
EndChar

StartChar: quotedbl
Encoding: 2 34 5
Width: 618
GlyphClass: 2
Flags: W
HStem: 1106 328<109 272 346 510>
VStem: 109 163<1106 1434> 346 164<1106 1434>
LayerCount: 2
Fore
SplineSet
109 1106 m 1,0,-1
 109 1434 l 1,1,-1
 272 1434 l 1,2,-1
 272 1106 l 1,3,-1
 109 1106 l 1,0,-1
346 1106 m 1,4,-1
 346 1434 l 1,5,-1
 510 1434 l 1,6,-1
 510 1106 l 1,7,-1
 346 1106 l 1,4,-1
EndSplineSet
Validated: 1
EndChar

StartChar: numbersign
Encoding: 3 35 6
Width: 1023
GlyphClass: 2
Flags: W
HStem: -1 21G<205 410>
VStem: 205 205<-1 326 552 941 1166 1432> 614 205<101 367 593 982 1207 1535>
LayerCount: 2
Fore
SplineSet
0 306 m 1,0,-1
 0 511 l 1,1,-1
 205 531 l 1,2,-1
 205 941 l 1,3,-1
 0 920 l 1,4,-1
 0 1125 l 1,5,-1
 205 1146 l 1,6,-1
 205 1432 l 1,7,-1
 410 1432 l 1,8,-1
 410 1166 l 1,9,-1
 614 1187 l 1,10,-1
 614 1535 l 1,11,-1
 819 1535 l 1,12,-1
 819 1207 l 1,13,-1
 1024 1228 l 1,14,-1
 1024 1023 l 1,15,-1
 819 1002 l 1,16,-1
 819 593 l 1,17,-1
 1024 613 l 1,18,-1
 1024 408 l 1,19,-1
 819 388 l 1,20,-1
 819 101 l 1,21,-1
 614 101 l 1,22,-1
 614 367 l 1,23,-1
 410 347 l 1,24,-1
 410 -1 l 1,25,-1
 205 -1 l 1,26,-1
 205 326 l 1,27,-1
 0 306 l 1,0,-1
410 552 m 1,28,-1
 614 572 l 1,29,-1
 614 982 l 1,30,-1
 410 961 l 1,31,-1
 410 552 l 1,28,-1
EndSplineSet
Validated: 1
EndChar

StartChar: glyph436
Encoding: 4 36 7
Width: 830
GlyphClass: 2
Flags: W
HStem: -152 359<341.941 485.575> 616 205<341.941 485.575> 1231 358<341.941 485.575>
VStem: 106 205<237.425 412 851.941 1200.06> 313 205<-152 37.5518 1400.89 1589> 516 205<237.425 585.575 1026 1200.06>
LayerCount: 2
Fore
SplineSet
106 309 m 2,0,-1
 106 412 l 1,1,-1
 311 412 l 1,2,-1
 311 309 l 2,3,4
 311 266 311 266 341 236.5 c 128,-1,5
 371 207 371 207 414 207 c 128,-1,6
 457 207 457 207 486.5 236.5 c 128,-1,7
 516 266 516 266 516 309 c 2,8,-1
 516 514 l 2,9,10
 516 557 516 557 486.5 586.5 c 128,-1,11
 457 616 457 616 414 616 c 0,12,13
 276 617 276 617 191 712 c 128,-1,14
 106 807 106 807 106 924 c 2,15,-1
 106 1128 l 2,16,17
 106 1255 106 1255 196 1345 c 0,18,19
 249 1398 249 1398 313 1420 c 1,20,-1
 313 1589 l 1,21,-1
 518 1589 l 1,22,-1
 518 1419 l 1,23,24
 580 1396 580 1396 631 1345 c 0,25,26
 721 1255 721 1255 721 1128 c 2,27,-1
 721 1026 l 1,28,-1
 516 1026 l 1,29,-1
 516 1128 l 2,30,31
 516 1171 516 1171 486.5 1201 c 128,-1,32
 457 1231 457 1231 414 1231 c 128,-1,33
 371 1231 371 1231 341 1201 c 128,-1,34
 311 1171 311 1171 311 1128 c 2,35,-1
 311 924 l 2,36,37
 311 881 311 881 341 851 c 128,-1,38
 371 821 371 821 414 821 c 0,39,40
 551 821 551 821 636 726 c 128,-1,41
 721 631 721 631 721 514 c 2,42,-1
 721 309 l 2,43,44
 721 182 721 182 631 92 c 0,45,46
 580 41 580 41 518 19 c 1,47,-1
 518 -152 l 1,48,-1
 313 -152 l 1,49,-1
 313 18 l 1,50,51
 249 40 249 40 196 92 c 0,52,53
 106 182 106 182 106 309 c 2,0,-1
EndSplineSet
Validated: 1
EndChar

StartChar: percent
Encoding: 5 37 8
Width: 856
GlyphClass: 2
Flags: W
HStem: -182 104<572.387 658.202> 168 103<571.926 658.332> 941 103<197.387 283.444> 1290 104<196.926 283.574> 1414 20G<572.233 738>
VStem: 86 103<1059.47 1275.05> 292 103<1058.95 1275.05> 461 103<-63.0453 152.53> 666 104<-63.561 152.53>
LayerCount: 2
Fore
SplineSet
86 1092 m 1,0,-1
 86 1240 l 2,1,2
 86 1304 86 1304 131 1349 c 128,-1,3
 176 1394 176 1394 240 1394 c 128,-1,4
 304 1394 304 1394 349 1350 c 128,-1,5
 394 1306 394 1306 395 1242 c 1,6,-1
 395 1096 l 2,7,8
 395 1031 395 1031 349.5 986 c 128,-1,9
 304 941 304 941 240.5 941 c 128,-1,10
 177 941 177 941 132.5 985 c 128,-1,11
 88 1029 88 1029 86 1092 c 1,0,-1
106 -203 m 1,12,-1
 578 1434 l 1,13,-1
 738 1434 l 1,14,-1
 268 -203 l 1,15,-1
 106 -203 l 1,12,-1
189 1096 m 2,16,17
 189 1074 189 1074 204 1059 c 128,-1,18
 219 1044 219 1044 240 1044 c 128,-1,19
 261 1044 261 1044 276.5 1058.5 c 128,-1,20
 292 1073 292 1073 292 1094 c 2,21,-1
 292 1240 l 2,22,23
 292 1261 292 1261 277 1275.5 c 128,-1,24
 262 1290 262 1290 240.5 1290 c 128,-1,25
 219 1290 219 1290 204 1275.5 c 128,-1,26
 189 1261 189 1261 189 1240 c 2,27,-1
 189 1096 l 2,16,17
461 -32 m 1,28,-1
 461 116 l 2,29,30
 461 181 461 181 506 226 c 128,-1,31
 551 271 551 271 615 271 c 128,-1,32
 679 271 679 271 724 227 c 128,-1,33
 769 183 769 183 770 120 c 1,34,-1
 770 -28 l 2,35,36
 770 -92 770 -92 724.5 -137 c 128,-1,37
 679 -182 679 -182 615.5 -182 c 128,-1,38
 552 -182 552 -182 507.5 -138 c 128,-1,39
 463 -94 463 -94 461 -32 c 1,28,-1
564 -28 m 2,40,41
 564 -49 564 -49 579 -63.5 c 128,-1,42
 594 -78 594 -78 615 -78 c 128,-1,43
 636 -78 636 -78 651 -64 c 128,-1,44
 666 -50 666 -50 666 -30 c 2,45,-1
 666 116 l 2,46,47
 666 138 666 138 651.5 153 c 128,-1,48
 637 168 637 168 615.5 168 c 128,-1,49
 594 168 594 168 579 153 c 128,-1,50
 564 138 564 138 564 118 c 2,51,-1
 564 -28 l 2,40,41
EndSplineSet
Validated: 1
EndChar

StartChar: ampersand
Encoding: 6 38 9
Width: 753
GlyphClass: 2
Flags: W
HStem: 1273 205<326.177 476.844>
VStem: 89 205<243.941 316 545 599.794> 102 205<909.279 979 1171 1253.26> 511 205<1171 1254.04>
LayerCount: 2
Back
SplineSet
89 316 m 2,0,1
 89 233 89 233 130.5 162 c 128,-1,2
 172 91 172 91 243 49.5 c 128,-1,3
 314 8 314 8 396 8 c 1,4,-1
 396 7 l 1,5,6
 510 9 510 9 596.5 82.5 c 128,-1,7
 683 156 683 156 699 263 c 1,8,-1
 703 675 l 1,9,-1
 908 675 l 1,10,-1
 908 880 l 1,11,-1
 498 880 l 1,12,-1
 498 315 l 2,13,14
 498 273 498 273 468 242.5 c 128,-1,15
 438 212 438 212 396 212 c 1,16,-1
 396 213 l 1,17,18
 353 213 353 213 323.5 243 c 128,-1,19
 294 273 294 273 294 316 c 2,20,-1
 292 545 l 2,21,22
 292 578 292 578 314.5 600.5 c 128,-1,23
 337 623 337 623 370 623 c 2,24,-1
 398 623 l 1,25,-1
 398 877 l 1,26,-1
 376 890 l 2,27,28
 352 904 352 904 329.5 929 c 128,-1,29
 307 954 307 954 307 979 c 2,30,-1
 307 1171 l 2,31,32
 307 1213 307 1213 337 1243 c 128,-1,33
 367 1273 367 1273 401.5 1273 c 128,-1,34
 436 1273 436 1273 460 1259 c 0,35,36
 511 1229.25 511 1229.25 511 1171 c 1,37,-1
 716 1171 l 1,38,39
 715 1255 715 1255 674.5 1325.5 c 128,-1,40
 634 1396 634 1396 563.5 1437 c 128,-1,41
 493 1478 493 1478 409 1478 c 0,42,43
 285 1478 285 1478 195 1392 c 128,-1,44
 105 1306 105 1306 101 1184 c 1,45,-1
 102 979 l 2,46,47
 103 868 103 868 171 786 c 1,48,49
 89 725.578947368 89 725.578947368 89 623 c 2,50,-1
 89 316 l 2,0,1
EndSplineSet
Fore
SplineSet
397 0 m 18,0,1
 270 0 270 0 180 90 c 128,-1,2
 90 180 90 180 90 307 c 2,3,-1
 90 590 l 2,4,5
 90 707 90 707 167 795 c 1,6,7
 89 881 89 881 90 999 c 1,8,-1
 90 1170 l 2,9,10
 90 1297 90 1297 180 1387.5 c 128,-1,11
 270 1478 270 1478 397 1478 c 128,-1,12
 524 1478 524 1478 614 1387.5 c 129,-1,13
 704 1297 704 1297 704 1170 c 1,14,-1
 499 1170 l 17,15,16
 499 1213 499 1213 469.5 1243 c 128,-1,17
 440 1273 440 1273 397 1273 c 128,-1,18
 354 1273 354 1273 324 1243 c 128,-1,19
 294 1213 294 1213 294 1170 c 2,20,-1
 294 999 l 2,21,22
 294 954 294 954 324 925.5 c 128,-1,23
 354 897 354 897 397 897 c 9,24,-1
 397 692 l 0,25,26
 354 692 354 692 324 662.5 c 128,-1,27
 294 633 294 633 294 590 c 2,28,-1
 294 307 l 2,29,30
 294 264 294 264 324 234.5 c 128,-1,31
 354 205 354 205 397 205 c 10,32,-1
 497 205 l 2,33,34
 540 205 540 205 569.5 234.5 c 128,-1,35
 599 264 599 264 599 307 c 2,36,-1
 599 590 l 2,37,38
 599 633 599 633 569.5 662.5 c 128,-1,39
 540 692 540 692 497 692 c 9,40,-1
 497 897 l 1,41,-1
 908 897 l 25,42,-1
 908 692 l 25,43,-1
 600 693.166992188 l 4,44,45
 799 686 799 686 804 468 c 24,46,-1
 804 307 l 2,47,48
 804 180 804 180 714 90 c 128,-1,49
 624 0 624 0 497 0 c 2,50,-1
 397 0 l 18,0,1
EndSplineSet
EndChar

StartChar: quotesingle
Encoding: 7 39 10
Width: 380
GlyphClass: 2
Flags: W
HStem: 1106 328<109 272>
VStem: 109 163<1106 1434>
LayerCount: 2
Fore
SplineSet
109 1106 m 1,0,-1
 109 1434 l 1,1,-1
 272 1434 l 1,2,-1
 272 1106 l 1,3,-1
 109 1106 l 1,0,-1
EndSplineSet
Validated: 1
EndChar

StartChar: parenleft
Encoding: 8 40 11
Width: 448
GlyphClass: 2
Flags: W
HStem: 1414 20G<141.5 346>
VStem: 39 205<232.04 998.131>
LayerCount: 2
Fore
SplineSet
39 614.5 m 128,-1,1
 39 1024 39 1024 244 1434 c 1,2,-1
 346 1434 l 1,3,4
 346 1430 346 1430 320.977973568 1293.62995595 c 128,-1,5
 295.955947137 1157.25991189 295.955947137 1157.25991189 269.977973568 987.146084979 c 128,-1,6
 244 817.032258065 244 817.032258065 244 639.516129032 c 128,-1,7
 244 462 244 462 275.404580153 210.147582697 c 128,-1,8
 306.809160305 -41.7048346056 306.809160305 -41.7048346056 346 -205 c 1,9,-1
 244 -205 l 1,10,0
 39 205 39 205 39 614.5 c 128,-1,1
EndSplineSet
Validated: 1
EndChar

StartChar: asterisk
Encoding: 10 42 13
Width: 825
GlyphClass: 2
Flags: W
HStem: 830 614<251 354>
VStem: 251 103<830 1041 1219 1444>
LayerCount: 2
Fore
SplineSet
10 1021 m 1,0,-1
 199 1130 l 1,1,-1
 10 1239 l 1,2,-1
 61 1328 l 1,3,-1
 251 1218 l 1,4,-1
 251 1444 l 1,5,-1
 354 1444 l 1,6,-1
 354 1219 l 1,7,-1
 542 1328 l 1,8,-1
 593 1239 l 1,9,10
 499 1185 499 1185 404 1130 c 1,11,-1
 593 1021 l 1,12,-1
 542 932 l 1,13,-1
 354 1041 l 1,14,-1
 354 830 l 1,15,-1
 251 830 l 1,16,-1
 251 1042 l 1,17,-1
 61 932 l 1,18,-1
 10 1021 l 1,0,-1
EndSplineSet
Validated: 1
EndChar

StartChar: plus
Encoding: 11 43 14
Width: 1013
GlyphClass: 2
Flags: W
HStem: 411 206<96 404 610 918>
VStem: 404 206<103 411 617 924>
LayerCount: 2
Fore
SplineSet
96 411 m 1,0,-1
 96 617 l 1,1,-1
 404 617 l 1,2,-1
 404 924 l 1,3,-1
 610 924 l 1,4,-1
 610 617 l 1,5,-1
 918 617 l 1,6,-1
 918 411 l 1,7,-1
 610 411 l 1,8,-1
 610 103 l 1,9,-1
 404 103 l 1,10,-1
 404 411 l 1,11,-1
 96 411 l 1,0,-1
EndSplineSet
Validated: 1
EndChar

StartChar: comma
Encoding: 12 44 15
Width: 376
GlyphClass: 2
Flags: W
HStem: -205 439
VStem: 86 205<0 234>
LayerCount: 2
Fore
SplineSet
86 -205 m 1,0,-1
 86 234 l 1,1,-1
 291 234 l 1,2,-1
 291 0 l 1,3,-1
 86 -205 l 1,0,-1
EndSplineSet
Validated: 1
EndChar

StartChar: hyphen
Encoding: 13 45 16
Width: 671
GlyphClass: 2
Flags: W
HStem: 565 164<90 582>
VStem: 90 492<565 729>
LayerCount: 2
Fore
SplineSet
90 565 m 1,0,-1
 90 729 l 1,1,-1
 582 729 l 1,2,-1
 582 565 l 1,3,-1
 90 565 l 1,0,-1
EndSplineSet
Validated: 1
EndChar

StartChar: period
Encoding: 14 46 17
Width: 376
GlyphClass: 2
Flags: W
HStem: 0 205<86 291>
VStem: 86 205<0 205>
LayerCount: 2
Fore
SplineSet
86 0 m 1,0,-1
 86 205 l 1,1,-1
 291 205 l 1,2,-1
 291 0 l 1,3,-1
 86 0 l 1,0,-1
EndSplineSet
Validated: 1
EndChar

StartChar: zero
Encoding: 16 48 19
Width: 753
GlyphClass: 2
Flags: W
HStem: 0 205<299.5 454.258> 1229 205<299.5 454.258>
VStem: 70 204<235.425 1198.06> 479 205<235.425 1198.06>
LayerCount: 2
Fore
SplineSet
70 307 m 2,0,-1
 70 1126 l 2,1,2
 70 1253 70 1253 160 1343.5 c 128,-1,3
 250 1434 250 1434 377 1434 c 128,-1,4
 504 1434 504 1434 594 1343.5 c 128,-1,5
 684 1253 684 1253 684 1126 c 2,6,-1
 684 307 l 2,7,8
 684 180 684 180 594 90 c 128,-1,9
 504 0 504 0 377 0 c 128,-1,10
 250 0 250 0 160 90 c 128,-1,11
 70 180 70 180 70 307 c 2,0,-1
274 307 m 2,12,13
 274 264 274 264 304 234.5 c 128,-1,14
 334 205 334 205 377 205 c 128,-1,15
 420 205 420 205 449.5 234.5 c 128,-1,16
 479 264 479 264 479 307 c 2,17,-1
 479 1126 l 2,18,19
 479 1169 479 1169 449.5 1199 c 128,-1,20
 420 1229 420 1229 377 1229 c 128,-1,21
 334 1229 334 1229 304 1199 c 128,-1,22
 274 1169 274 1169 274 1126 c 2,23,-1
 274 307 l 2,12,13
EndSplineSet
Validated: 1
EndChar

StartChar: one
Encoding: 17 49 20
Width: 753
GlyphClass: 2
Flags: W
HStem: 0 21G<313 518> 1024 21G<109 128.902> 1414 20G<293.098 518>
VStem: 313 205<0 1229>
LayerCount: 2
Fore
SplineSet
109 1024 m 1,0,-1
 109 1229 l 1,1,-1
 313 1434 l 1,2,-1
 518 1434 l 1,3,-1
 518 0 l 1,4,-1
 313 0 l 1,5,-1
 313 1229 l 1,6,-1
 109 1024 l 1,0,-1
EndSplineSet
Validated: 1
EndChar

StartChar: two
Encoding: 18 50 21
Width: 753
GlyphClass: 2
Flags: W
HStem: 0 205<299 684> 1229 205<299.5 460.832>
VStem: 479.038 204.962<1005.11 1210.21>
LayerCount: 2
Fore
SplineSet
70 0 m 1,0,-1
 70 205 l 1,1,-1
 455 1047 l 1,2,3
 479.038461538 1103.73076923 479.038461538 1103.73076923 479.038461538 1136.3458279 c 128,-1,4
 479.038461538 1168.96088657 479.038461538 1168.96088657 449.5 1199 c 128,-1,5
 420 1229 420 1229 377 1229 c 128,-1,6
 334 1229 334 1229 304 1199 c 128,-1,7
 274 1169 274 1169 274 1126 c 1,8,-1
 70 1126 l 1,9,10
 70 1253 70 1253 160 1343.5 c 128,-1,11
 250 1434 250 1434 377 1434 c 128,-1,12
 504 1434 504 1434 594 1343.5 c 128,-1,13
 684 1253 684 1253 684 1126 c 0,14,15
 684 1058 684 1058 657 999 c 2,16,-1
 299 205 l 1,17,-1
 684 205 l 1,18,-1
 684 0 l 1,19,-1
 70 0 l 1,0,-1
EndSplineSet
Validated: 1
EndChar

StartChar: three
Encoding: 19 51 22
Width: 753
GlyphClass: 2
Flags: W
HStem: 0 205<299.5 454.258> 1024 21G<70 274> 1229 205<299.5 454.258>
VStem: 70 204<235.425 410 1024 1198.06> 479 205<235.425 583.575 849.941 1198.06>
LayerCount: 2
Fore
SplineSet
70 307 m 2,0,-1
 70 410 l 1,1,-1
 274 410 l 1,2,-1
 274 307 l 2,3,4
 274 264 274 264 304 234.5 c 128,-1,5
 334 205 334 205 377 205 c 128,-1,6
 420 205 420 205 449.5 234.5 c 128,-1,7
 479 264 479 264 479 307 c 2,8,-1
 479 512 l 2,9,10
 479 555 479 555 449.5 584.5 c 128,-1,11
 420 614 420 614 377 614 c 1,12,-1
 377 819 l 1,13,14
 420 819 420 819 449.5 849 c 128,-1,15
 479 879 479 879 479 922 c 2,16,-1
 479 1126 l 2,17,18
 479 1169 479 1169 449.5 1199 c 128,-1,19
 420 1229 420 1229 377 1229 c 128,-1,20
 334 1229 334 1229 304 1199 c 128,-1,21
 274 1169 274 1169 274 1126 c 2,22,-1
 274 1024 l 1,23,-1
 70 1024 l 1,24,-1
 70 1126 l 2,25,26
 70 1253 70 1253 160 1343.5 c 128,-1,27
 250 1434 250 1434 377 1434 c 128,-1,28
 504 1434 504 1434 594 1343.5 c 128,-1,29
 684 1253 684 1253 684 1126 c 2,30,-1
 684 922 l 2,31,32
 684 805 684 805 606 717 c 1,33,34
 684 629 684 629 684 512 c 2,35,-1
 684 307 l 2,36,37
 684 180 684 180 594 90 c 128,-1,38
 504 0 504 0 377 0 c 128,-1,39
 250 0 250 0 160 90 c 128,-1,40
 70 180 70 180 70 307 c 2,0,-1
EndSplineSet
Validated: 1
EndChar

StartChar: four
Encoding: 20 52 23
Width: 651
GlyphClass: 2
Flags: W
HStem: 0 21G<377 582> 205 205<223 377 582 633> 1414 20G<218.996 428>
VStem: 377 205<0 205 410 717>
LayerCount: 2
Fore
SplineSet
18 205 m 1,0,-1
 18 410 l 1,1,-1
 223 1434 l 1,2,-1
 428 1434 l 1,3,-1
 223 410 l 1,4,-1
 377 410 l 1,5,-1
 377 717 l 1,6,-1
 582 717 l 1,7,-1
 582 410 l 1,8,-1
 633 410 l 1,9,-1
 633 205 l 1,10,-1
 582 205 l 1,11,-1
 582 0 l 1,12,-1
 377 0 l 1,13,-1
 377 205 l 1,14,-1
 18 205 l 1,0,-1
EndSplineSet
Validated: 1
EndChar

StartChar: five
Encoding: 21 53 24
Width: 753
GlyphClass: 2
Flags: W
HStem: 0 205<299.5 454.258> 717 205<298.746 454.258> 1229 205<274 582>
VStem: 70 204<235.425 410 614 686.059 903 1229> 479 205<235.425 686.059>
LayerCount: 2
Fore
SplineSet
70 307 m 2,0,-1
 70 410 l 1,1,-1
 274 410 l 1,2,-1
 274 307 l 2,3,4
 274 264 274 264 304 234.5 c 128,-1,5
 334 205 334 205 377 205 c 128,-1,6
 420 205 420 205 449.5 234.5 c 128,-1,7
 479 264 479 264 479 307 c 2,8,-1
 479 614 l 2,9,10
 479 657 479 657 449.5 687 c 128,-1,11
 420 717 420 717 377 717 c 128,-1,12
 334 717 334 717 304 687 c 128,-1,13
 274 657 274 657 274 614 c 1,14,-1
 70 614 l 1,15,-1
 70 1434 l 1,16,-1
 582 1434 l 1,17,-1
 582 1229 l 1,18,-1
 274 1229 l 1,19,-1
 274 903 l 1,20,21
 323 921 323 921 377 922 c 0,22,23
 504 922 504 922 594 831.5 c 128,-1,24
 684 741 684 741 684 614 c 2,25,-1
 684 307 l 2,26,27
 684 180 684 180 594 90 c 128,-1,28
 504 0 504 0 377 0 c 128,-1,29
 250 0 250 0 160 90 c 128,-1,30
 70 180 70 180 70 307 c 2,0,-1
EndSplineSet
Validated: 1
EndChar

StartChar: six
Encoding: 22 54 25
Width: 753
GlyphClass: 2
Flags: W
HStem: 0 205<299.5 454.258> 717 205<298.746 454.258> 1024 21G<479 684> 1229 205<299.5 454.258>
VStem: 70 204<235.425 686.059 903 1198.06> 479 205<235.425 686.059 1024 1198.06>
LayerCount: 2
Fore
SplineSet
70 307 m 2,0,-1
 70 1126 l 2,1,2
 70 1253 70 1253 160 1343.5 c 128,-1,3
 250 1434 250 1434 377 1434 c 128,-1,4
 504 1434 504 1434 594 1343.5 c 128,-1,5
 684 1253 684 1253 684 1126 c 2,6,-1
 684 1024 l 1,7,-1
 479 1024 l 1,8,-1
 479 1126 l 2,9,10
 479 1169 479 1169 449.5 1199 c 128,-1,11
 420 1229 420 1229 377 1229 c 128,-1,12
 334 1229 334 1229 304 1199 c 128,-1,13
 274 1169 274 1169 274 1126 c 2,14,-1
 274 903 l 1,15,16
 323 921 323 921 377 922 c 0,17,18
 504 922 504 922 594 831.5 c 128,-1,19
 684 741 684 741 684 614 c 2,20,-1
 684 307 l 2,21,22
 684 180 684 180 594 90 c 128,-1,23
 504 0 504 0 377 0 c 128,-1,24
 250 0 250 0 160 90 c 128,-1,25
 70 180 70 180 70 307 c 2,0,-1
274 307 m 2,26,27
 274 264 274 264 304 234.5 c 128,-1,28
 334 205 334 205 377 205 c 128,-1,29
 420 205 420 205 449.5 234.5 c 128,-1,30
 479 264 479 264 479 307 c 2,31,-1
 479 614 l 2,32,33
 479 657 479 657 449.5 687 c 128,-1,34
 420 717 420 717 377 717 c 128,-1,35
 334 717 334 717 304 687 c 128,-1,36
 274 657 274 657 274 614 c 2,37,-1
 274 307 l 2,26,27
EndSplineSet
Validated: 1
EndChar

StartChar: seven
Encoding: 23 55 26
Width: 751
GlyphClass: 2
Flags: W
HStem: 1128 306<70 272> 1231 203<272 479>
VStem: 70 202<1128 1231>
LayerCount: 2
Fore
SplineSet
70 2 m 1,0,-1
 479 1231 l 1,1,-1
 272 1231 l 1,2,-1
 272 1128 l 1,3,-1
 70 1128 l 1,4,-1
 70 1434 l 1,5,-1
 682 1434 l 1,6,-1
 682 1231 l 1,7,-1
 272 2 l 1,8,-1
 70 2 l 1,0,-1
EndSplineSet
Validated: 1
EndChar

StartChar: eight
Encoding: 24 56 27
Width: 753
GlyphClass: 2
Flags: W
HStem: 0 205<299.5 454.258> 692 205<304.941 448.575> 1229 205<299.5 454.258>
VStem: 70 204<235.425 661.575 926.395 1198.06> 479 205<235.425 661.575 926.395 1198.06>
LayerCount: 2
Fore
SplineSet
70 307 m 6,0,-1
 70 590 l 6,1,2
 70 707 70 707 147 795 c 5,3,4
 69 881 69 881 70 999 c 5,5,-1
 70 1126 l 6,6,7
 70 1253 70 1253 160 1343.5 c 132,-1,8
 250 1434 250 1434 377 1434 c 132,-1,9
 504 1434 504 1434 594 1343.5 c 132,-1,10
 684 1253 684 1253 684 1126 c 6,11,-1
 684 999 l 6,12,13
 684 880 684 880 606 795 c 5,14,15
 684 707 684 707 684 590 c 6,16,-1
 684 307 l 6,17,18
 684 180 684 180 594 90 c 132,-1,19
 504 0 504 0 377 0 c 132,-1,20
 250 0 250 0 160 90 c 132,-1,21
 70 180 70 180 70 307 c 6,0,-1
274 307 m 6,22,23
 274 264 274 264 304 234.5 c 132,-1,24
 334 205 334 205 377 205 c 132,-1,25
 420 205 420 205 449.5 234.5 c 132,-1,26
 479 264 479 264 479 307 c 6,27,-1
 479 590 l 6,28,29
 479 633 479 633 449.5 662.5 c 132,-1,30
 420 692 420 692 377 692 c 132,-1,31
 334 692 334 692 304 662.5 c 132,-1,32
 274 633 274 633 274 590 c 6,33,-1
 274 307 l 6,22,23
274 999 m 6,34,35
 274 954 274 954 304 925.5 c 132,-1,36
 334 897 334 897 377 897 c 132,-1,37
 420 897 420 897 449.5 925.5 c 132,-1,38
 479 954 479 954 479 999 c 6,39,-1
 479 1126 l 6,40,41
 479 1169 479 1169 449.5 1199 c 132,-1,42
 420 1229 420 1229 377 1229 c 132,-1,43
 334 1229 334 1229 304 1199 c 132,-1,44
 274 1169 274 1169 274 1126 c 6,45,-1
 274 999 l 6,34,35
EndSplineSet
Validated: 33
EndChar

StartChar: nine
Encoding: 25 57 28
Width: 753
GlyphClass: 2
Flags: W
HStem: 0 205<299.5 454.258> 512 205<299.5 455.306> 1229 205<299.5 454.258>
VStem: 70 204<235.425 410 747.425 1198.06> 479 205<235.425 530 747.425 1198.06>
LayerCount: 2
Fore
SplineSet
70 307 m 2,0,-1
 70 410 l 1,1,-1
 274 410 l 1,2,-1
 274 307 l 2,3,4
 274 264 274 264 304 234.5 c 128,-1,5
 334 205 334 205 377 205 c 128,-1,6
 420 205 420 205 449.5 234.5 c 128,-1,7
 479 264 479 264 479 307 c 2,8,-1
 479 530 l 1,9,10
 430 512 430 512 377 512 c 0,11,12
 250 512 250 512 160 602 c 128,-1,13
 70 692 70 692 70 819 c 2,14,-1
 70 1126 l 2,15,16
 70 1253 70 1253 160 1343.5 c 128,-1,17
 250 1434 250 1434 377 1434 c 128,-1,18
 504 1434 504 1434 594 1343.5 c 128,-1,19
 684 1253 684 1253 684 1126 c 2,20,-1
 684 307 l 2,21,22
 684 180 684 180 594 90 c 128,-1,23
 504 0 504 0 377 0 c 128,-1,24
 250 0 250 0 160 90 c 128,-1,25
 70 180 70 180 70 307 c 2,0,-1
274 819 m 2,26,27
 274 776 274 776 304 746.5 c 128,-1,28
 334 717 334 717 377 717 c 128,-1,29
 420 717 420 717 449.5 746.5 c 128,-1,30
 479 776 479 776 479 819 c 2,31,-1
 479 1126 l 2,32,33
 479 1169 479 1169 449.5 1199 c 128,-1,34
 420 1229 420 1229 377 1229 c 128,-1,35
 334 1229 334 1229 304 1199 c 128,-1,36
 274 1169 274 1169 274 1126 c 2,37,-1
 274 819 l 2,26,27
EndSplineSet
Validated: 1
EndChar

StartChar: colon
Encoding: 26 58 29
Width: 348
GlyphClass: 2
Flags: W
HStem: 0 205<86 291> 819 205<86 291>
VStem: 86 205<0 205 819 1024>
LayerCount: 2
Fore
SplineSet
86 0 m 1,0,-1
 86 205 l 1,1,-1
 291 205 l 1,2,-1
 291 0 l 1,3,-1
 86 0 l 1,0,-1
86 819 m 1,4,-1
 86 1024 l 1,5,-1
 291 1024 l 1,6,-1
 291 819 l 1,7,-1
 86 819 l 1,4,-1
EndSplineSet
Validated: 1
EndChar

StartChar: semicolon
Encoding: 27 59 30
Width: 376
GlyphClass: 2
Flags: W
HStem: 819 205<86 291>
VStem: 86 205<0 273 819 1024>
LayerCount: 2
Fore
SplineSet
86 -205 m 1,0,-1
 86 273 l 1,1,-1
 291 273 l 1,2,-1
 291 0 l 1,3,-1
 86 -205 l 1,0,-1
86 819 m 1,4,-1
 86 1024 l 1,5,-1
 291 1024 l 1,6,-1
 291 819 l 1,7,-1
 86 819 l 1,4,-1
EndSplineSet
Validated: 1
EndChar

StartChar: less
Encoding: 28 60 31
Width: 901
GlyphClass: 2
Flags: W
VStem: 443 431
LayerCount: 2
Fore
SplineSet
443 527 m 1,0,-1
 874 956 l 1,1,-1
 874 739 l 1,2,-1
 660 527 l 1,3,-1
 874 314 l 1,4,-1
 874 98 l 1,5,-1
 443 527 l 1,0,-1
EndSplineSet
Validated: 1
EndChar

StartChar: equal
Encoding: 29 61 32
Width: 671
GlyphClass: 2
Flags: W
HStem: 315 164<90 582> 565 164<90 582>
VStem: 90 492<315 479 565 729>
LayerCount: 2
Fore
SplineSet
90 315 m 1,0,-1
 90 479 l 1,1,-1
 582 479 l 1,2,-1
 582 315 l 1,3,-1
 90 315 l 1,0,-1
90 565 m 1,4,-1
 90 729 l 1,5,-1
 582 729 l 1,6,-1
 582 565 l 1,7,-1
 90 565 l 1,4,-1
EndSplineSet
Validated: 1
EndChar

StartChar: greater
Encoding: 30 62 33
Width: 901
GlyphClass: 2
Flags: W
LayerCount: 2
Fore
SplineSet
450 98 m 1,0,-1
 881 527 l 1,1,-1
 450 956 l 1,2,-1
 450 739 l 1,3,-1
 664 527 l 1,4,-1
 450 314 l 1,5,-1
 450 98 l 1,0,-1
EndSplineSet
Validated: 9
EndChar

StartChar: question
Encoding: 31 63 34
Width: 745
GlyphClass: 2
Flags: W
HStem: 0 205<270 475> 1024 21G<66 270> 1229 205<295.5 450.258>
VStem: 66 204<1024 1198.06> 270 205<0 205 307 604.45> 475 205<827.513 1198.06>
LayerCount: 2
Fore
SplineSet
66 1024 m 1,0,-1
 66 1126 l 2,1,2
 66 1253 66 1253 156 1343.5 c 128,-1,3
 246 1434 246 1434 373 1434 c 128,-1,4
 500 1434 500 1434 590 1343.5 c 128,-1,5
 680 1253 680 1253 680 1126 c 2,6,-1
 680 973 l 2,7,8
 680 893 680 893 649.5 827.5 c 128,-1,9
 619 762 619 762 566.5 684 c 128,-1,10
 514 606 514 606 497.484848485 552.325757576 c 128,-1,11
 480.96969697 498.651515152 480.96969697 498.651515152 475 430 c 1,12,-1
 475 307 l 1,13,-1
 270 307 l 1,14,-1
 270 461 l 2,15,16
 270 541 270 541 300.5 606.5 c 128,-1,17
 331 672 331 672 383.5 749.5 c 128,-1,18
 436 827 436 827 452.19928401 877.54176611 c 128,-1,19
 468.398568019 928.08353222 468.398568019 928.08353222 475 1004 c 1,20,-1
 475 1126 l 2,21,22
 475 1169 475 1169 445.5 1199 c 128,-1,23
 416 1229 416 1229 373 1229 c 128,-1,24
 330 1229 330 1229 300 1199 c 128,-1,25
 270 1169 270 1169 270 1126 c 2,26,-1
 270 1024 l 1,27,-1
 66 1024 l 1,0,-1
270 0 m 1,28,-1
 270 205 l 1,29,-1
 475 205 l 1,30,-1
 475 0 l 1,31,-1
 270 0 l 1,28,-1
EndSplineSet
Validated: 1
EndChar

StartChar: at
Encoding: 32 64 35
Width: 1251
GlyphClass: 2
Flags: MW
LayerCount: 2
Back
SplineSet
612 103 m 6,53,54
 612 59 612 59 641.5 29.5 c 132,-1,55
 671 0 671 0 714 0 c 1030,56,-1
1124 307 m 2,5,6
 1124 180 1124 180 1033.5 90 c 128,-1,7
 943 0 943 0 816 0 c 1026,8,-1
816 205 m 2,53,54
 860 205 860 205 889.5 234.5 c 128,-1,55
 919 264 919 264 919 307 c 1026,56,-1
EndSplineSet
Fore
SplineSet
104 1025 m 1,0,1
 104 1152 104 1152 193.5 1241 c 128,-1,2
 283 1330 283 1330 407 1331 c 1,3,-1
 407 1332 l 1,4,-1
 817 1332 l 2,5,6
 944 1332 944 1332 1034 1241.5 c 128,-1,7
 1124 1151 1124 1151 1124 1024 c 2,8,-1
 1124 233 l 2,9,10
 1124 149 1124 149 1049.5 74.5 c 128,-1,11
 975 0 975 0 884 0 c 0,12,-1
 817 0 l 2,13,14
 731 0 731 0 676.102941176 55.5 c 0,15,16
 621 111 621 111 613 180 c 1,17,-1
 612 180 l 1,18,19
 611 167 611 167 599.5 133 c 0,20,21
 574 58 574 58 507 23 c 0,22,23
 465 1 465 1 408 1 c 128,-1,24
 351 1 351 1 309 22.5 c 0,25,26
 265 45 265 45 247 73 c 0,27,28
 205 139 205 139 205 185 c 1,29,-1
 203 206 l 1,30,-1
 203 308 l 2,31,32
 203 435 203 435 293 525 c 128,-1,33
 383 615 383 615 510 615 c 0,34,35
 553 615 553 615 583 645 c 128,-1,36
 613 675 613 675 613 718 c 128,-1,37
 613 761 613 761 583 790.5 c 128,-1,38
 553 820 553 820 510 820 c 128,-1,39
 467 820 467 820 437.5 790.5 c 128,-1,40
 408 761 408 761 408 718 c 1,41,-1
 203 718 l 1,42,43
 203 845 203 845 293 934.5 c 128,-1,44
 383 1024 383 1024 510 1024 c 128,-1,45
 637 1024 637 1024 727 934.5 c 128,-1,46
 817 845 817 845 817 718 c 2,47,-1
 817 205 l 1,48,-1
 841 205 l 2,49,50
 874 205 874 205 896.5 227.5 c 128,-1,51
 919 250 919 250 919 283 c 2,52,-1
 919 1024 l 2,53,54
 919 1068 919 1068 889.5 1097.5 c 128,-1,55
 860 1127 860 1127 817 1127 c 2,56,-1
 411 1127 l 2,57,58
 368 1127 368 1127 338.5 1097.5 c 128,-1,59
 309 1068 309 1068 309 1025 c 1,60,-1
 104 1025 l 1,0,1
408 308 m 0,61,62
 408 304 408 304 409 297 c 0,63,64
 422 206 422 206 518 206 c 0,65,66
 555 206 555 206 582.915039062 232.888183594 c 0,67,68
 611 260 611 260 613 301 c 1,69,-1
 613 429 l 1,70,71
 564 411 564 411 515.5 411 c 128,-1,72
 467 411 467 411 437.5 381 c 128,-1,73
 408 351 408 351 408 308 c 0,61,62
EndSplineSet
EndChar

StartChar: A
Encoding: 33 65 36
Width: 825
GlyphClass: 2
Flags: W
HStem: 0 21G<4 210.948 614.026 821> 309 201<309 516> 1414 20G<306.718 518.282>
LayerCount: 2
Fore
SplineSet
4 0 m 1,0,-1
 311 1434 l 1,1,-1
 514 1434 l 1,2,-1
 821 0 l 1,3,-1
 618 0 l 1,4,-1
 557 307 l 1,5,-1
 268 309 l 1,6,-1
 207 0 l 1,7,-1
 4 0 l 1,0,-1
309 510 m 1,8,-1
 516 510 l 1,9,-1
 414 1024 l 1,10,-1
 412 1024 l 1,11,-1
 309 510 l 1,8,-1
EndSplineSet
Validated: 1
EndChar

StartChar: B
Encoding: 34 66 37
Width: 808
GlyphClass: 2
Flags: W
HStem: 0 203<301 484.794> 614 203<301 484.794> 1229 203<301 484.794>
VStem: 98 203<203 614 817 1229> 508 203<226.206 591.31 840.206 1205.79>
LayerCount: 2
Fore
SplineSet
98 0 m 1,0,-1
 98 1432 l 1,1,-1
 508 1432 l 2,2,3
 592 1432 592 1432 651.5 1372.5 c 128,-1,4
 711 1313 711 1313 711 1227 c 2,5,-1
 711 793 l 2,6,7
 711 762 711 762 688.5 739.5 c 128,-1,8
 666 717 666 717 635 717 c 1,9,-1
 635 715 l 1,10,11
 666 715 666 715 688.5 692.5 c 128,-1,12
 711 670 711 670 711 639 c 2,13,-1
 711 203 l 2,14,15
 711 119 711 119 651.5 59.5 c 128,-1,16
 592 0 592 0 508 0 c 2,17,-1
 98 0 l 1,0,-1
301 203 m 1,18,-1
 430 203 l 2,19,20
 463 203 463 203 485.5 225.5 c 128,-1,21
 508 248 508 248 508 281 c 2,22,-1
 508 537 l 2,23,24
 508 570 508 570 485.5 592 c 128,-1,25
 463 614 463 614 430 614 c 2,26,-1
 301 614 l 1,27,-1
 301 203 l 1,18,-1
301 817 m 1,28,-1
 430 817 l 2,29,30
 463 817 463 817 485.5 839.5 c 128,-1,31
 508 862 508 862 508 895 c 2,32,-1
 508 1151 l 2,33,34
 508 1184 508 1184 485.5 1206.5 c 128,-1,35
 463 1229 463 1229 430 1229 c 2,36,-1
 301 1229 l 1,37,-1
 301 817 l 1,28,-1
EndSplineSet
Validated: 1
EndChar

StartChar: C
Encoding: 35 67 38
Width: 761
GlyphClass: 2
Flags: W
HStem: 0 205<315.742 470.5> 1024 21G<496 700> 1229 205<315.742 470.5>
VStem: 86 205<235.425 1198.06> 496 204<235.425 410 1024 1198.06>
LayerCount: 2
Fore
SplineSet
86 307 m 2,0,-1
 86 1126 l 2,1,2
 86 1253 86 1253 176 1343.5 c 128,-1,3
 266 1434 266 1434 393 1434 c 128,-1,4
 520 1434 520 1434 610 1343.5 c 128,-1,5
 700 1253 700 1253 700 1126 c 2,6,-1
 700 1024 l 1,7,-1
 496 1024 l 1,8,-1
 496 1126 l 2,9,10
 496 1169 496 1169 466 1199 c 128,-1,11
 436 1229 436 1229 393 1229 c 128,-1,12
 350 1229 350 1229 320.5 1199 c 128,-1,13
 291 1169 291 1169 291 1126 c 2,14,-1
 291 307 l 2,15,16
 291 264 291 264 320.5 234.5 c 128,-1,17
 350 205 350 205 393 205 c 128,-1,18
 436 205 436 205 466 234.5 c 128,-1,19
 496 264 496 264 496 307 c 2,20,-1
 496 410 l 1,21,-1
 700 410 l 1,22,-1
 700 307 l 2,23,24
 700 180 700 180 610 90 c 128,-1,25
 520 0 520 0 393 0 c 128,-1,26
 266 0 266 0 176 90 c 128,-1,27
 86 180 86 180 86 307 c 2,0,-1
EndSplineSet
Validated: 1
EndChar

StartChar: D
Encoding: 36 68 39
Width: 808
GlyphClass: 2
Flags: W
HStem: 0 203<301 484.794> 1231 203<301 484.794>
VStem: 98 203<203 1231> 508 203<226.206 1207.79>
LayerCount: 2
Fore
SplineSet
98 0 m 1,0,-1
 98 1434 l 1,1,-1
 508 1434 l 2,2,3
 592 1434 592 1434 651.5 1374.5 c 128,-1,4
 711 1315 711 1315 711 1229 c 2,5,-1
 711 203 l 2,6,7
 711 119 711 119 651.5 59.5 c 128,-1,8
 592 0 592 0 508 0 c 2,9,-1
 98 0 l 1,0,-1
301 203 m 1,10,-1
 430 203 l 2,11,12
 463 203 463 203 485.5 225.5 c 128,-1,13
 508 248 508 248 508 281 c 2,14,-1
 508 1153 l 2,15,16
 508 1186 508 1186 485.5 1208.5 c 128,-1,17
 463 1231 463 1231 430 1231 c 2,18,-1
 301 1231 l 1,19,-1
 301 203 l 1,10,-1
EndSplineSet
Validated: 1
EndChar

StartChar: E
Encoding: 37 69 40
Width: 749
GlyphClass: 2
Flags: W
HStem: 0 205<303 713> 614 205<303 610> 1229 205<303 713>
VStem: 98 615<0 205 1229 1434> 98 205<205 614 819 1229>
LayerCount: 2
Fore
SplineSet
98 0 m 1,0,-1
 98 1434 l 1,1,-1
 713 1434 l 1,2,-1
 713 1229 l 1,3,-1
 303 1229 l 1,4,-1
 303 819 l 1,5,-1
 610 819 l 1,6,-1
 610 614 l 1,7,-1
 303 614 l 1,8,-1
 303 205 l 1,9,-1
 713 205 l 1,10,-1
 713 0 l 1,11,-1
 98 0 l 1,0,-1
EndSplineSet
Validated: 1
EndChar

StartChar: F
Encoding: 38 70 41
Width: 749
GlyphClass: 2
Flags: W
VStem: 98 615
LayerCount: 2
Fore
SplineSet
98 0 m 1,0,-1
 303 0 l 1,1,-1
 303 614 l 1,2,-1
 610 614 l 1,3,-1
 610 819 l 1,4,-1
 303 819 l 1,5,-1
 303 1229 l 1,6,-1
 713 1229 l 1,7,-1
 713 1434 l 1,8,-1
 98 1434 l 1,9,-1
 98 0 l 1,0,-1
EndSplineSet
Validated: 9
EndChar

StartChar: G
Encoding: 39 71 42
Width: 786
GlyphClass: 2
Flags: W
HStem: 0 205<315.742 470.5> 614 205<393 496> 1229 205<315.742 470.5>
VStem: 86 205<235.425 1198.06> 393 307<614 819> 496 204<235.425 614 1126 1198.06>
LayerCount: 2
Fore
SplineSet
86 307 m 2,0,-1
 86 1126 l 2,1,2
 86 1253 86 1253 176 1343.5 c 128,-1,3
 266 1434 266 1434 393 1434 c 128,-1,4
 520 1434 520 1434 610 1343.5 c 128,-1,5
 700 1253 700 1253 700 1126 c 1,6,-1
 496 1126 l 1,7,8
 496 1169 496 1169 466 1199 c 128,-1,9
 436 1229 436 1229 393 1229 c 128,-1,10
 350 1229 350 1229 320.5 1199 c 128,-1,11
 291 1169 291 1169 291 1126 c 2,12,-1
 291 307 l 2,13,14
 291 264 291 264 320.5 234.5 c 128,-1,15
 350 205 350 205 393 205 c 128,-1,16
 436 205 436 205 466 234.5 c 128,-1,17
 496 264 496 264 496 307 c 2,18,-1
 496 614 l 1,19,-1
 393 614 l 1,20,-1
 393 819 l 1,21,-1
 700 819 l 1,22,-1
 700 307 l 2,23,24
 700 180 700 180 610 90 c 128,-1,25
 520 0 520 0 393 0 c 128,-1,26
 266 0 266 0 176 90 c 128,-1,27
 86 180 86 180 86 307 c 2,0,-1
EndSplineSet
Validated: 1
EndChar

StartChar: H
Encoding: 40 72 43
Width: 811
GlyphClass: 2
Flags: W
HStem: 0 21G<98 303 508 713> 614 205<303 508> 1414 20G<98 303 508 713>
VStem: 98 205<0 614 819 1434> 508 205<0 614 819 1434>
LayerCount: 2
Fore
SplineSet
98 0 m 1,0,-1
 98 1434 l 1,1,-1
 303 1434 l 1,2,-1
 303 819 l 1,3,-1
 508 819 l 1,4,-1
 508 1434 l 1,5,-1
 713 1434 l 1,6,-1
 713 0 l 1,7,-1
 508 0 l 1,8,-1
 508 614 l 1,9,-1
 303 614 l 1,10,-1
 303 0 l 1,11,-1
 98 0 l 1,0,-1
EndSplineSet
Validated: 1
EndChar

StartChar: I
Encoding: 41 73 44
Width: 413
GlyphClass: 2
Flags: W
HStem: 0 21G<104 309> 1414 20G<104 309>
VStem: 104 205<0 1434>
LayerCount: 2
Fore
SplineSet
104 0 m 1,0,-1
 104 1434 l 1,1,-1
 309 1434 l 1,2,-1
 309 0 l 1,3,-1
 104 0 l 1,0,-1
EndSplineSet
Validated: 1
EndChar

StartChar: J
Encoding: 42 74 45
Width: 462
GlyphClass: 2
Flags: W
HStem: 0 205<-45 129.059> 1414 20G<160 365>
VStem: 160 205<235.425 1434>
LayerCount: 2
Fore
SplineSet
-45 0 m 1,0,-1
 -45 205 l 1,1,-1
 57 205 l 2,2,3
 100 205 100 205 130 234.5 c 128,-1,4
 160 264 160 264 160 307 c 2,5,-1
 160 1434 l 1,6,-1
 365 1434 l 1,7,-1
 365 205 l 2,8,9
 365 121 365 121 304.5 60.5 c 128,-1,10
 244 0 244 0 160 0 c 2,11,-1
 -45 0 l 1,0,-1
EndSplineSet
Validated: 1
EndChar

StartChar: K
Encoding: 43 75 46
Width: 706
GlyphClass: 2
Flags: W
HStem: 0 21G<98 303 502.264 713> 1414 20G<98 303 499.992 713>
VStem: 98 205<0 410 922 1434>
LayerCount: 2
Fore
SplineSet
98 0 m 1,0,-1
 98 1434 l 1,1,-1
 303 1434 l 1,2,-1
 303 922 l 1,3,-1
 508 1434 l 1,4,-1
 713 1434 l 1,5,-1
 477 844 l 1,6,-1
 713 0 l 1,7,-1
 508 0 l 1,8,-1
 354 537 l 1,9,-1
 303 410 l 1,10,-1
 303 0 l 1,11,-1
 98 0 l 1,0,-1
EndSplineSet
Validated: 1
EndChar

StartChar: L
Encoding: 44 76 47
Width: 749
GlyphClass: 2
Flags: W
HStem: 0 205<303 713> 1414 20G<98 303>
VStem: 98 205<205 1434>
LayerCount: 2
Fore
SplineSet
98 0 m 1,0,-1
 98 1434 l 1,1,-1
 303 1434 l 1,2,-1
 303 205 l 1,3,-1
 713 205 l 1,4,-1
 713 0 l 1,5,-1
 98 0 l 1,0,-1
EndSplineSet
Validated: 1
EndChar

StartChar: M
Encoding: 45 77 48
Width: 1118
GlyphClass: 2
Flags: W
HStem: 0 21G<98 303 815 1020> 1414 20G<98 309.667 808.333 1020>
VStem: 98 205<0 768> 815 205<0 768>
LayerCount: 2
Fore
SplineSet
98 0 m 1,0,-1
 98 1434 l 1,1,-1
 303 1434 l 1,2,-1
 559 666 l 1,3,-1
 815 1434 l 1,4,-1
 1020 1434 l 1,5,-1
 1020 0 l 1,6,-1
 815 0 l 1,7,-1
 815 768 l 1,8,-1
 662 307 l 1,9,-1
 457 307 l 1,10,-1
 303 768 l 1,11,-1
 303 0 l 1,12,-1
 98 0 l 1,0,-1
EndSplineSet
Validated: 1
EndChar

StartChar: N
Encoding: 46 78 49
Width: 794
GlyphClass: 2
Flags: W
HStem: 0 21G<90 295 494.282 705> 1414 20G<90 300.718 500 705>
VStem: 90 205<0 717 1383.86 1434> 500 205<0 50.141 717 1434>
LayerCount: 2
Fore
SplineSet
90 0 m 1,0,-1
 90 1434 l 1,1,-1
 295 1434 l 1,2,-1
 500 717 l 1,3,-1
 500 1434 l 1,4,-1
 705 1434 l 1,5,-1
 705 0 l 1,6,-1
 500 0 l 1,7,-1
 295 717 l 1,8,-1
 295 0 l 1,9,-1
 90 0 l 1,0,-1
EndSplineSet
Validated: 1
EndChar

StartChar: O
Encoding: 47 79 50
Width: 786
GlyphClass: 2
Flags: W
HStem: 0 205<315.742 470.5> 1229 205<315.742 470.5>
VStem: 86 205<235.425 1198.06> 496 204<235.425 1198.06>
LayerCount: 2
Fore
SplineSet
86 307 m 2,0,-1
 86 1126 l 2,1,2
 86 1253 86 1253 176 1343.5 c 128,-1,3
 266 1434 266 1434 393 1434 c 128,-1,4
 520 1434 520 1434 610 1343.5 c 128,-1,5
 700 1253 700 1253 700 1126 c 2,6,-1
 700 307 l 2,7,8
 700 180 700 180 610 90 c 128,-1,9
 520 0 520 0 393 0 c 128,-1,10
 266 0 266 0 176 90 c 128,-1,11
 86 180 86 180 86 307 c 2,0,-1
291 307 m 2,12,13
 291 264 291 264 320.5 234.5 c 128,-1,14
 350 205 350 205 393 205 c 128,-1,15
 436 205 436 205 466 234.5 c 128,-1,16
 496 264 496 264 496 307 c 2,17,-1
 496 1126 l 2,18,19
 496 1169 496 1169 466 1199 c 128,-1,20
 436 1229 436 1229 393 1229 c 128,-1,21
 350 1229 350 1229 320.5 1199 c 128,-1,22
 291 1169 291 1169 291 1126 c 2,23,-1
 291 307 l 2,12,13
EndSplineSet
Validated: 1
EndChar

StartChar: P
Encoding: 48 80 51
Width: 768
GlyphClass: 2
Flags: W
HStem: 0 21G<98 301> 614 203<301 484.794> 1229 203<301 484.794>
VStem: 98 203<0 614 817 1229> 508 203<840.206 1205.79>
LayerCount: 2
Fore
SplineSet
98 0 m 1,0,-1
 98 1432 l 1,1,-1
 508 1432 l 2,2,3
 592 1432 592 1432 651.5 1372.5 c 128,-1,4
 711 1313 711 1313 711 1227 c 2,5,-1
 711 817 l 2,6,7
 711 733 711 733 651.5 673.5 c 128,-1,8
 592 614 592 614 508 614 c 2,9,-1
 301 614 l 1,10,-1
 301 0 l 1,11,-1
 98 0 l 1,0,-1
301 817 m 1,12,-1
 430 817 l 2,13,14
 463 817 463 817 485.5 839.5 c 128,-1,15
 508 862 508 862 508 895 c 2,16,-1
 508 1151 l 2,17,18
 508 1184 508 1184 485.5 1206.5 c 128,-1,19
 463 1229 463 1229 430 1229 c 2,20,-1
 301 1229 l 1,21,-1
 301 817 l 1,12,-1
EndSplineSet
Validated: 1
EndChar

StartChar: Q
Encoding: 49 81 52
Width: 790
GlyphClass: 2
Flags: W
HStem: 0 205<316.178 470.625 730.941 803> 1229 205<315.742 470.5>
VStem: 86 205<235.425 1198.06> 496 204<235.425 1198.06>
LayerCount: 2
Fore
SplineSet
86 307 m 2,0,-1
 86 1126 l 2,1,2
 86 1253 86 1253 176 1343.5 c 128,-1,3
 266 1434 266 1434 393 1434 c 128,-1,4
 520 1434 520 1434 610 1343.5 c 128,-1,5
 700 1253 700 1253 700 1126 c 2,6,-1
 700 299 l 2,7,8
 700 256 700 256 730 226.5 c 128,-1,9
 760 197 760 197 803 197 c 1,10,-1
 803 -8 l 1,11,12
 682 -8 682 -8 594 74 c 1,13,14
 508 0 508 0 387 0 c 128,-1,15
 266 0 266 0 176 90 c 128,-1,16
 86 180 86 180 86 307 c 2,0,-1
291 307 m 2,17,18
 291 264 291 264 320.5 234.5 c 128,-1,19
 350 205 350 205 393 205 c 128,-1,20
 436 205 436 205 466 234.5 c 128,-1,21
 496 264 496 264 496 307 c 2,22,-1
 496 1126 l 2,23,24
 496 1169 496 1169 466 1199 c 128,-1,25
 436 1229 436 1229 393 1229 c 128,-1,26
 350 1229 350 1229 320.5 1199 c 128,-1,27
 291 1169 291 1169 291 1126 c 2,28,-1
 291 307 l 2,17,18
EndSplineSet
Validated: 1
EndChar

StartChar: R
Encoding: 50 82 53
Width: 788
GlyphClass: 2
Flags: W
HStem: 0 21G<98 301 504.678 711> 614 201<301 406> 1229 203<301 484.794>
VStem: 98 203<0 614 815 1229> 508 203<839.236 1204.76>
LayerCount: 2
Fore
SplineSet
98 0 m 1,0,-1
 98 1432 l 1,1,-1
 508 1430 l 2,2,3
 592 1430 592 1430 651.5 1370.5 c 128,-1,4
 711 1311 711 1311 711 1227 c 2,5,-1
 711 817 l 2,6,7
 711 700 711 700 610 641 c 1,8,-1
 711 0 l 1,9,-1
 508 0 l 1,10,-1
 406 614 l 1,11,-1
 301 614 l 1,12,-1
 301 0 l 1,13,-1
 98 0 l 1,0,-1
301 815 m 1,14,-1
 430 815 l 2,15,16
 463 815 463 815 485.5 838.5 c 128,-1,17
 508 862 508 862 508 893 c 2,18,-1
 508 1149 l 2,19,20
 508 1182 508 1182 485.5 1205.5 c 128,-1,21
 463 1229 463 1229 430 1229 c 2,22,-1
 301 1229 l 1,23,-1
 301 815 l 1,14,-1
EndSplineSet
Validated: 1
EndChar

StartChar: S
Encoding: 51 83 54
Width: 729
GlyphClass: 2
Flags: W
HStem: 0 205<287.471 442.258> 614 205<292.941 436.575> 1024 21G<467 672> 1229 205<287.471 442.258>
VStem: 57 205<235.425 410 849.941 1198.06> 467 205<235.425 583.575 1024 1198.06>
LayerCount: 2
Fore
SplineSet
57 307 m 2,0,-1
 57 410 l 1,1,-1
 262 410 l 1,2,-1
 262 307 l 2,3,4
 262 264 262 264 292 234.5 c 128,-1,5
 322 205 322 205 365 205 c 128,-1,6
 408 205 408 205 437.5 234.5 c 128,-1,7
 467 264 467 264 467 307 c 2,8,-1
 467 512 l 2,9,10
 467 555 467 555 437.5 584.5 c 128,-1,11
 408 614 408 614 365 614 c 0,12,13
 227 615 227 615 142 710 c 128,-1,14
 57 805 57 805 57 922 c 2,15,-1
 57 1126 l 2,16,17
 57 1253 57 1253 147.5 1343.5 c 128,-1,18
 238 1434 238 1434 365 1434 c 128,-1,19
 492 1434 492 1434 582 1343.5 c 128,-1,20
 672 1253 672 1253 672 1126 c 2,21,-1
 672 1024 l 1,22,-1
 467 1024 l 1,23,-1
 467 1126 l 2,24,25
 467 1169 467 1169 437.5 1199 c 128,-1,26
 408 1229 408 1229 365 1229 c 128,-1,27
 322 1229 322 1229 292 1199 c 128,-1,28
 262 1169 262 1169 262 1126 c 2,29,-1
 262 922 l 2,30,31
 262 879 262 879 292 849 c 128,-1,32
 322 819 322 819 365 819 c 0,33,34
 502 819 502 819 587 724 c 128,-1,35
 672 629 672 629 672 512 c 2,36,-1
 672 307 l 2,37,38
 672 180 672 180 582 90 c 128,-1,39
 492 0 492 0 365 0 c 128,-1,40
 238 0 238 0 147.5 90 c 128,-1,41
 57 180 57 180 57 307 c 2,0,-1
EndSplineSet
Validated: 1
EndChar

StartChar: T
Encoding: 52 84 55
Width: 602
GlyphClass: 2
Flags: W
HStem: 0 21G<199 403> 1229 205<-6 199 403 608>
VStem: 199 204<0 1229>
LayerCount: 2
Fore
SplineSet
-6 1229 m 1,0,-1
 -6 1434 l 1,1,-1
 608 1434 l 1,2,-1
 608 1229 l 1,3,-1
 403 1229 l 1,4,-1
 403 0 l 1,5,-1
 199 0 l 1,6,-1
 199 1229 l 1,7,-1
 -6 1229 l 1,0,-1
EndSplineSet
Validated: 1
EndChar

StartChar: U
Encoding: 53 85 56
Width: 811
GlyphClass: 2
Flags: W
HStem: 0 205<328.105 482.895> 1414 20G<98 303 508 713>
VStem: 98 205<235.425 1434> 508 205<235.425 1434>
LayerCount: 2
Fore
SplineSet
98 307 m 2,0,-1
 98 1434 l 1,1,-1
 303 1434 l 1,2,-1
 303 307 l 2,3,4
 303 264 303 264 332.5 234.5 c 128,-1,5
 362 205 362 205 405.5 205 c 128,-1,6
 449 205 449 205 478.5 234.5 c 128,-1,7
 508 264 508 264 508 307 c 2,8,-1
 508 1434 l 1,9,-1
 713 1434 l 1,10,-1
 713 307 l 2,11,12
 713 180 713 180 622.5 90 c 128,-1,13
 532 0 532 0 405.5 0 c 128,-1,14
 279 0 279 0 188.5 90 c 128,-1,15
 98 180 98 180 98 307 c 2,0,-1
EndSplineSet
Validated: 1
EndChar

StartChar: V
Encoding: 54 86 57
Width: 770
GlyphClass: 2
Flags: W
VStem: 27 206<1353.58 1434> 539 206<1353.99 1434>
LayerCount: 2
Fore
SplineSet
27 1434 m 1,0,-1
 283 -2 l 1,1,-1
 489 -2 l 1,2,-1
 745 1434 l 1,3,-1
 539 1434 l 1,4,-1
 539 1432 l 1,5,-1
 385 594 l 1,6,-1
 233 1432 l 1,7,-1
 233 1434 l 1,8,-1
 27 1434 l 1,0,-1
EndSplineSet
Validated: 9
EndChar

StartChar: W
Encoding: 55 87 58
Width: 1296
GlyphClass: 2
Flags: W
VStem: 545 207<1357.8 1436>
LayerCount: 2
Fore
SplineSet
33 1436 m 1,0,-1
 289 0 l 1,1,-1
 496 0 l 1,2,-1
 649 856 l 1,3,-1
 801 0 l 1,4,-1
 1008 0 l 1,5,-1
 1264 1434 l 1,6,-1
 1057 1434 l 1,7,-1
 905 596 l 1,8,-1
 752 1436 l 1,9,-1
 545 1436 l 1,10,-1
 391 596 l 1,11,-1
 240 1436 l 1,12,-1
 33 1436 l 1,0,-1
EndSplineSet
Validated: 9
EndChar

StartChar: X
Encoding: 56 88 59
Width: 712
GlyphClass: 2
Flags: W
LayerCount: 2
Fore
SplineSet
-4 0 m 1,0,-1
 203 0 l 1,1,-1
 356 432 l 1,2,-1
 508 0 l 1,3,-1
 715 0 l 1,4,-1
 459 717 l 1,5,-1
 715 1436 l 1,6,-1
 508 1436 l 1,7,-1
 356 1004 l 1,8,-1
 203 1436 l 1,9,-1
 -4 1436 l 1,10,-1
 252 717 l 1,11,-1
 -4 0 l 1,0,-1
EndSplineSet
Validated: 9
EndChar

StartChar: Y
Encoding: 57 89 60
Width: 737
GlyphClass: 2
Flags: W
LayerCount: 2
Fore
SplineSet
6 1434 m 1,0,-1
 262 408 l 1,1,-1
 262 -2 l 1,2,-1
 469 -2 l 1,3,-1
 469 408 l 1,4,-1
 725 1434 l 1,5,-1
 518 1434 l 1,6,-1
 367 821 l 1,7,-1
 213 1434 l 1,8,-1
 6 1434 l 1,0,-1
EndSplineSet
Validated: 9
EndChar

StartChar: Z
Encoding: 58 90 61
Width: 673
GlyphClass: 2
Flags: W
VStem: 31 612
LayerCount: 2
Fore
SplineSet
31 0 m 1,0,-1
 643 0 l 1,1,-1
 643 203 l 1,2,-1
 233 203 l 1,3,-1
 643 1229 l 1,4,-1
 643 1432 l 1,5,-1
 31 1434 l 1,6,-1
 31 1229 l 1,7,-1
 440 1229 l 1,8,-1
 31 203 l 1,9,-1
 31 0 l 1,0,-1
EndSplineSet
Validated: 9
EndChar

StartChar: bracketleft
Encoding: 59 91 62
Width: 544
GlyphClass: 2
Flags: W
HStem: -204 102<325 528> 1535 102<325 528>
VStem: 119 206<-102 1535>
LayerCount: 2
Fore
SplineSet
119 -204 m 1,0,-1
 119 1638 l 5,1,-1
 528 1638 l 5,2,-1
 528 1536 l 5,3,-1
 325 1536 l 5,4,-1
 325 -102 l 1,5,-1
 528 -102 l 1,6,-1
 528 -204 l 1,7,-1
 119 -204 l 1,0,-1
EndSplineSet
Validated: 1
EndChar

StartChar: backslash
Encoding: 60 92 63
Width: 519
GlyphClass: 2
Flags: W
LayerCount: 2
Fore
SplineSet
20 1637 m 5,0,-1
 326 -203 l 5,1,-1
 499 -203 l 5,2,-1
 193 1637 l 5,3,-1
 20 1637 l 5,0,-1
EndSplineSet
Validated: 9
EndChar

StartChar: bracketright
Encoding: 61 93 64
Width: 426
GlyphClass: 2
Flags: W
VStem: 16 410
LayerCount: 2
Fore
SplineSet
16 -102 m 1,0,-1
 16 -204 l 1,1,-1
 426 -204 l 1,2,-1
 426 1638 l 5,3,-1
 16 1638 l 5,4,-1
 16 1536 l 5,5,-1
 220 1536 l 5,6,-1
 220 -102 l 1,7,-1
 16 -102 l 1,0,-1
EndSplineSet
Validated: 9
EndChar

StartChar: asciicircum
Encoding: 62 94 65
Width: 733
GlyphClass: 2
Flags: W
HStem: 1176 221
VStem: 77 567
LayerCount: 2
Fore
SplineSet
77 1176 m 1,0,-1
 298 1397 l 1,1,-1
 424 1397 l 1,2,-1
 644 1176 l 1,3,-1
 431 1176 l 1,4,-1
 361 1246 l 1,5,-1
 291 1176 l 1,6,-1
 77 1176 l 1,0,-1
EndSplineSet
Validated: 1
EndChar

StartChar: underscore
Encoding: 63 95 66
Width: 1373
GlyphClass: 2
Flags: W
HStem: -1 205<68 1297>
LayerCount: 2
Fore
SplineSet
68 -1 m 1,0,-1
 68 204 l 1,1,-1
 1297 204 l 1,2,-1
 1297 -1 l 1,3,-1
 68 -1 l 1,0,-1
EndSplineSet
Validated: 1
EndChar

StartChar: grave
Encoding: 64 96 67
Width: 825
GlyphClass: 2
Flags: W
HStem: 1174 238
VStem: 152 364
LayerCount: 2
Fore
SplineSet
152 1412 m 1,0,-1
 346 1412 l 1,1,-1
 516 1174 l 1,2,-1
 355 1174 l 1,3,-1
 152 1412 l 1,0,-1
EndSplineSet
Validated: 1
EndChar

StartChar: a
Encoding: 65 97 68
Width: 733
GlyphClass: 2
Flags: W
HStem: 0 205<253.83 389.784> 410 204<286.427 430.059> 819 205<280.742 435.529>
VStem: 51 205<220.416 379.057 717 788.575> 461 205<281 428 644.941 788.575>
CounterMasks: 1 e0
LayerCount: 2
Fore
SplineSet
51 205 m 5,0,-1
 51 307 l 2,1,2
 51 434 51 434 141 524 c 128,-1,3
 231 614 231 614 358 614 c 0,4,5
 401 614 401 614 431 644 c 128,-1,6
 461 674 461 674 461 717 c 128,-1,7
 461 760 461 760 431 789.5 c 128,-1,8
 401 819 401 819 358 819 c 128,-1,9
 315 819 315 819 285.5 789.5 c 128,-1,10
 256 760 256 760 256 717 c 1,11,-1
 51 717 l 1,12,13
 51 844 51 844 141 934 c 128,-1,14
 231 1024 231 1024 358 1024 c 128,-1,15
 485 1024 485 1024 575.5 934 c 128,-1,16
 666 844 666 844 666 717 c 2,17,-1
 666 0 l 1,18,-1
 459 0 l 1,19,-1
 460 182 l 2,20,21
 460 171 460 171 448 134.5 c 128,-1,22
 436 98 436 98 416.5 71.5 c 128,-1,23
 397 45 397 45 355 22.5 c 128,-1,24
 313 0 313 0 256 0 c 128,-1,25
 199 0 199 0 157 21.5 c 128,-1,26
 115 43 115 43 95.5 72.5 c 4,27,28
 58.2524964337 128.848787447 58.2524964337 128.848787447 51 205 c 5,0,-1
256 296.619047619 m 128,-1,31
 256 243.238095238 256 243.238095238 308 216 c 0,32,33
 329 205 329 205 366 205 c 128,-1,34
 403 205 403 205 429 230.5 c 0,35,36
 457.2464 258.2032 457.2464 258.2032 461 307 c 1,37,-1
 461 428 l 1,38,39
 412 410 412 410 363.5 410 c 128,-1,40
 315 410 315 410 285.5 380 c 128,-1,30
 256 350 256 350 256 296.619047619 c 128,-1,31
EndSplineSet
EndChar

StartChar: b
Encoding: 66 98 69
Width: 786
GlyphClass: 2
Flags: W
HStem: 0 205<362.79 517.536> 819 205<359.839 524.25>
VStem: 86 205<215.061 297 717 803.576> 496 204<220.564 307>
LayerCount: 2
Fore
SplineSet
86 0 m 1,0,-1
 291 0 l 1,1,-1
 291 205 l 2,2,3
 291 78.75 291 78.75 396 22.5 c 0,4,5
 438 0 438 0 495.5 0 c 128,-1,6
 553 0 553 0 595 21.5 c 128,-1,7
 637 43 637 43 656.5 72.5 c 0,8,9
 698 135.282051282 698 135.282051282 698 184 c 1,10,-1
 700 205 l 1,11,-1
 700 819 l 2,12,13
 700 945.25 700 945.25 595 1001.5 c 0,14,15
 553 1024 553 1024 495.5 1024 c 128,-1,16
 438 1024 438 1024 396 1002.5 c 128,-1,17
 354 981 354 981 334.5 951.5 c 0,18,19
 293 888.717948718 293 888.717948718 293 840 c 1,20,-1
 291 819 l 1,21,-1
 291 1434 l 1,22,-1
 86 1434 l 1,23,-1
 86 0 l 1,0,-1
496 307 m 2,24,25
 496 205 496 205 378.129032258 205 c 0,26,27
 334.258064516 205 334.258064516 205 315.808719758 235.1015625 c 128,-1,28
 297.359375 265.203125 297.359375 265.203125 291 297 c 1,29,-1
 291 717 l 2,30,31
 291 781.139534884 291 781.139534884 343.5 808 c 0,32,33
 365 819 365 819 401.5 819 c 128,-1,34
 438 819 438 819 463.5 793.5 c 128,-1,35
 489 768 489 768 494 741 c 1,36,-1
 496 717 l 1,37,-1
 496 307 l 2,24,25
EndSplineSet
Validated: 9
EndChar

StartChar: c
Encoding: 67 99 70
Width: 733
GlyphClass: 2
Flags: W
HStem: 0 205<311.742 466.5> 819 205<311.742 466.5>
VStem: 82 205<235.425 788.575> 492 204<235.425 307 717 788.575>
LayerCount: 2
Fore
SplineSet
82 307 m 2,0,-1
 82 717 l 2,1,2
 82 844 82 844 172 934 c 128,-1,3
 262 1024 262 1024 389 1024 c 128,-1,4
 516 1024 516 1024 606 934 c 128,-1,5
 696 844 696 844 696 717 c 1,6,-1
 492 717 l 1,7,8
 492 760 492 760 462 789.5 c 128,-1,9
 432 819 432 819 389 819 c 128,-1,10
 346 819 346 819 316.5 789.5 c 128,-1,11
 287 760 287 760 287 717 c 2,12,-1
 287 307 l 2,13,14
 287 264 287 264 316.5 234.5 c 128,-1,15
 346 205 346 205 389 205 c 128,-1,16
 432 205 432 205 462 234.5 c 128,-1,17
 492 264 492 264 492 307 c 1,18,-1
 696 307 l 1,19,20
 696 180 696 180 606 90 c 128,-1,21
 516 0 516 0 389 0 c 128,-1,22
 262 0 262 0 172 90 c 128,-1,23
 82 180 82 180 82 307 c 2,0,-1
EndSplineSet
Validated: 1
EndChar

StartChar: d
Encoding: 68 100 71
Width: 786
GlyphClass: 2
Flags: W
HStem: 0 205<288.588 423.787> 819 205<261.75 426.21> 1414 20G<496 700>
VStem: 86 205<220.424 741> 496 204<0 205 283 803.576 819 1434>
LayerCount: 2
Fore
SplineSet
86 205 m 1,0,-1
 86 819 l 2,1,2
 86 944.301204819 86 944.301204819 191.5 1001.5 c 0,3,4
 233 1024 233 1024 290.5 1024 c 128,-1,5
 348 1024 348 1024 390 1002.5 c 128,-1,6
 432 981 432 981 451.5 951.5 c 0,7,8
 494 887.205128205 494 887.205128205 494 840 c 1,9,-1
 496 819 l 1,10,-1
 496 1434 l 1,11,-1
 700 1434 l 1,12,-1
 700 0 l 1,13,-1
 496 0 l 1,14,-1
 496 205 l 2,15,16
 496 79.2857142857 496 79.2857142857 390 22.5 c 0,17,18
 348 0 348 0 290.5 0 c 128,-1,19
 233 0 233 0 191.5 21.5 c 128,-1,20
 150 43 150 43 130.5 72.5 c 0,21,22
 88 136.794871795 88 136.794871795 88 184 c 1,23,-1
 86 205 l 1,0,-1
291 307 m 2,24,25
 291 242.860465116 291 242.860465116 343.5 216 c 0,26,27
 365 205 365 205 401.5 205 c 128,-1,28
 438 205 438 205 463.5 230.5 c 128,-1,29
 489 256 489 256 494 283 c 1,30,-1
 496 307 l 1,31,-1
 496 717 l 2,32,33
 496 781.139534884 496 781.139534884 443.5 808 c 0,34,35
 422 819 422 819 385 819 c 128,-1,36
 348 819 348 819 322.5 793.5 c 128,-1,37
 297 768 297 768 293 741 c 1,38,-1
 291 717 l 1,39,-1
 291 307 l 2,24,25
EndSplineSet
Validated: 1
EndChar

StartChar: e
Encoding: 69 101 72
Width: 749
GlyphClass: 2
Flags: W
CounterMasks: 1 e0
LayerCount: 2
Fore
SplineSet
375 1024 m 128,-1,1
 502 1024 502 1024 592 934 c 128,-1,2
 682 844 682 844 682 717 c 6,3,-1
 682 410 l 5,4,-1
 272 410 l 1,5,-1
 272 307 l 2,6,7
 272 264 272 264 302 234.5 c 128,-1,8
 332 205 332 205 375 205 c 128,-1,9
 418 205 418 205 447.5 234.5 c 128,-1,10
 477 264 477 264 477 307 c 1,11,-1
 682 307 l 1,12,13
 682 180 682 180 592 90 c 128,-1,14
 502 0 502 0 375 0 c 128,-1,15
 248 0 248 0 158 90 c 128,-1,16
 68 180 68 180 68 307 c 2,17,-1
 68 717 l 2,18,19
 68 844 68 844 158 934 c 128,-1,0
 248 1024 248 1024 375 1024 c 128,-1,1
272 614 m 1,20,-1
 477 614 l 1,21,-1
 477 717 l 2,22,23
 477 760 477 760 447.5 789.5 c 128,-1,24
 418 819 418 819 375 819 c 128,-1,25
 332 819 332 819 302 789.5 c 128,-1,26
 272 760 272 760 272 717 c 2,27,-1
 272 614 l 1,20,-1
EndSplineSet
EndChar

StartChar: f
Encoding: 70 102 73
Width: 450
GlyphClass: 2
Flags: W
HStem: 0 21G<123 328> 819 205<20 123 328 430> 1414 20G<366.5 430>
VStem: 123 205<0 819 1024 1198.06>
LayerCount: 2
Fore
SplineSet
20 819 m 1,0,-1
 20 1024 l 1,1,-1
 123 1024 l 1,2,-1
 123 1130 l 1,3,4
 125 1255 125 1255 214 1344.5 c 128,-1,5
 303 1434 303 1434 430 1434 c 1,6,-1
 430 1229 l 1,7,8
 387 1229 387 1229 357.5 1199 c 128,-1,9
 328 1169 328 1169 328 1126 c 2,10,-1
 328 1024 l 1,11,-1
 430 1024 l 1,12,-1
 430 819 l 1,13,-1
 328 819 l 1,14,-1
 328 0 l 1,15,-1
 123 0 l 1,16,-1
 123 819 l 1,17,-1
 20 819 l 1,0,-1
EndSplineSet
Validated: 1
EndChar

StartChar: g
Encoding: 71 103 74
Width: 786
GlyphClass: 2
Flags: W
HStem: -416 205<315.742 477.192> 0 205<261.75 423.787> 819 205<269.699 426.21>
VStem: 86 205<-180.575 -109 220.424 741> 496 204<-191.155 205 283 803.576 819 1024>
LayerCount: 2
Fore
SplineSet
86 -109 m 1,0,-1
 291 -109 l 1,1,2
 291 -152 291 -152 320.5 -181.5 c 128,-1,3
 350 -211 350 -211 392 -211 c 128,-1,4
 434 -211 434 -211 465 -181.5 c 128,-1,5
 496 -152 496 -152 496 -111 c 2,6,-1
 496 205 l 2,7,8
 496 79.2857142857 496 79.2857142857 390 22.5 c 0,9,10
 348 0 348 0 290.5 0 c 128,-1,11
 233 0 233 0 191.5 21.5 c 128,-1,12
 150 43 150 43 130.5 72.5 c 0,13,14
 88 136.794871795 88 136.794871795 88 184 c 1,15,-1
 86 205 l 1,16,-1
 86 819 l 2,17,18
 86 944.301204819 86 944.301204819 191.5 1001.5 c 0,19,20
 233 1024 233 1024 290.5 1024 c 128,-1,21
 348 1024 348 1024 390 1002.5 c 128,-1,22
 432 981 432 981 451.5 951.5 c 0,23,24
 494 887.205128205 494 887.205128205 494 840 c 1,25,-1
 496 819 l 1,26,-1
 496 1024 l 1,27,-1
 700 1024 l 1,28,-1
 700 -113 l 1,29,30
 698 -238 698 -238 609 -327 c 128,-1,31
 520 -416 520 -416 393 -416 c 128,-1,32
 266 -416 266 -416 176 -326 c 128,-1,33
 86 -236 86 -236 86 -109 c 1,0,-1
291 307 m 2,34,35
 291 242.860465116 291 242.860465116 343.5 216 c 0,36,37
 365 205 365 205 401.5 205 c 128,-1,38
 438 205 438 205 463.5 230.5 c 128,-1,39
 489 256 489 256 494 283 c 1,40,-1
 496 307 l 1,41,-1
 496 717 l 2,42,43
 496 781.139534884 496 781.139534884 443.5 808 c 0,44,45
 422 819 422 819 385 819 c 128,-1,46
 348 819 348 819 322.5 793.5 c 128,-1,47
 297 768 297 768 293 741 c 1,48,-1
 291 717 l 1,49,-1
 291 307 l 2,34,35
EndSplineSet
Validated: 1
EndChar

StartChar: h
Encoding: 72 104 75
Width: 786
GlyphClass: 2
Flags: W
HStem: 0 21G<86 291 496 700> 819 205<362.487 524.25> 1414 20G<86 291>
VStem: 86 205<0 779.072 819 1434> 496 204<0 804.773>
LayerCount: 2
Fore
SplineSet
86 0 m 1,0,-1
 86 1434 l 1,1,-1
 291 1434 l 1,2,-1
 291 819 l 2,3,4
 291 945.25 291 945.25 396 1001.5 c 0,5,6
 438 1024 438 1024 495.5 1024 c 128,-1,7
 553 1024 553 1024 595 1002.5 c 128,-1,8
 637 981 637 981 656.5 951.5 c 0,9,10
 698 888.717948718 698 888.717948718 698 840 c 1,11,-1
 700 819 l 1,12,-1
 700 0 l 1,13,-1
 496 0 l 1,14,-1
 496 719 l 2,15,16
 496 731.1875 496 731.1875 484.5 762.09375 c 0,17,18
 463.325581395 819 463.325581395 819 396.000628536 819 c 128,-1,19
 328.675675676 819 328.675675676 819 309.837837838 780.277777778 c 128,-1,20
 291 741.555555556 291 741.555555556 291 721 c 2,21,-1
 291 0 l 1,22,-1
 86 0 l 1,0,-1
EndSplineSet
Validated: 1
EndChar

StartChar: i
Encoding: 73 105 76
Width: 376
GlyphClass: 2
Flags: W
HStem: 0 21G<86 291> 1004 20G<86 291> 1229 205<86 291>
VStem: 86 205<0 1024 1229 1434>
LayerCount: 2
Fore
SplineSet
86 0 m 1,0,-1
 86 1024 l 1,1,-1
 291 1024 l 1,2,-1
 291 0 l 1,3,-1
 86 0 l 1,0,-1
86 1229 m 1,4,-1
 86 1434 l 1,5,-1
 291 1434 l 1,6,-1
 291 1229 l 1,7,-1
 86 1229 l 1,4,-1
EndSplineSet
Validated: 1
EndChar

StartChar: j
Encoding: 74 106 77
Width: 348
GlyphClass: 2
Flags: W
HStem: 1004 20G<57 262> 1229 205<57 262>
VStem: 57 205<-71.5748 1024 1229 1434>
LayerCount: 2
Fore
SplineSet
-45 -102 m 1,0,1
 -2 -102 -2 -102 27.5 -72.5 c 128,-1,2
 57 -43 57 -43 57 0 c 2,3,-1
 57 1024 l 1,4,-1
 262 1024 l 1,5,-1
 262 0 l 2,6,7
 262 -127 262 -127 172 -217 c 128,-1,8
 82 -307 82 -307 -45 -307 c 1,9,-1
 -45 -102 l 1,0,1
57 1229 m 1,10,-1
 57 1434 l 1,11,-1
 262 1434 l 1,12,-1
 262 1229 l 1,13,-1
 57 1229 l 1,10,-1
EndSplineSet
Validated: 1
EndChar

StartChar: k
Encoding: 75 107 78
Width: 686
GlyphClass: 2
Flags: W
HStem: 0 21G<86 291 489.333 700> 1004 20G<496 690.049> 1414 20G<86 291>
VStem: 86 205<0 205 614 1434>
LayerCount: 2
Fore
SplineSet
86 0 m 1,0,-1
 86 1434 l 1,1,-1
 291 1434 l 1,2,-1
 291 614 l 1,3,-1
 496 1024 l 1,4,-1
 700 1024 l 1,5,-1
 496 614 l 1,6,-1
 700 0 l 1,7,-1
 496 0 l 1,8,-1
 373 369 l 1,9,-1
 291 205 l 1,10,-1
 291 0 l 1,11,-1
 86 0 l 1,0,-1
EndSplineSet
Validated: 1
EndChar

StartChar: l
Encoding: 76 108 79
Width: 408
GlyphClass: 2
Flags: W
HStem: 0 205<300.06 383> 1414 20G<74 279>
VStem: 74 205<225.748 1434>
LayerCount: 2
Fore
SplineSet
74 305 m 1,0,-1
 74 1434 l 1,1,-1
 279 1434 l 1,2,-1
 279 305 l 1,3,4
 281 264 281 264 310.5 234.5 c 128,-1,5
 340 205 340 205 383 205 c 1,6,-1
 383 0 l 1,7,8
 256 0 256 0 166 89 c 128,-1,9
 76 178 76 178 74 305 c 1,0,-1
EndSplineSet
Validated: 1
EndChar

StartChar: m
Encoding: 77 109 80
Width: 1196
GlyphClass: 2
Flags: W
HStem: 0 21G<86 291 496 700 905 1110> 819 205<363.063 497.913 772.75 907.413>
VStem: 86 205<0 779.072 819 1024> 496 204<0 778.013> 905 205<0 803.576>
CounterMasks: 1 38
LayerCount: 2
Fore
SplineSet
86 0 m 1,0,-1
 86 1024 l 1,1,-1
 291 1024 l 1,2,-1
 291 819 l 2,3,4
 291 945.25 291 945.25 396 1001.5 c 0,5,6
 438 1024 438 1024 495.5 1024 c 128,-1,7
 553 1024 553 1024 595 1002.5 c 128,-1,8
 637 981 637 981 656.5 951.5 c 0,9,10
 698 888.717948718 698 888.717948718 698 840 c 1,11,-1
 700 819 l 1,12,13
 700 944.714285714 700 944.714285714 806 1001.5 c 0,14,15
 848 1024 848 1024 905.5 1024 c 128,-1,16
 963 1024 963 1024 1005 1002.5 c 128,-1,17
 1047 981 1047 981 1066 951.5 c 0,18,19
 1108 886.289473684 1108 886.289473684 1108 840 c 1,20,-1
 1110 819 l 1,21,-1
 1110 0 l 1,22,-1
 905 0 l 1,23,-1
 905 717 l 2,24,25
 905 781.139534884 905 781.139534884 852.5 808 c 0,26,27
 831 819 831 819 801.5 819 c 0,28,29
 738.675675676 819 738.675675676 819 719.337837838 779.25 c 128,-1,30
 700 739.5 700 739.5 700 721 c 2,31,-1
 700 0 l 1,32,-1
 496 0 l 1,33,-1
 496 717 l 2,34,35
 496 781.139534884 496 781.139534884 443.5 808 c 0,36,37
 422 819 422 819 392 819 c 0,38,39
 328.675675676 819 328.675675676 819 309.837837838 780.277777778 c 128,-1,40
 291 741.555555556 291 741.555555556 291 721 c 2,41,-1
 291 0 l 1,42,-1
 86 0 l 1,0,-1
EndSplineSet
Validated: 1
EndChar

StartChar: n
Encoding: 78 110 81
Width: 786
GlyphClass: 2
Flags: W
HStem: 0 21G<86 291 496 700> 819 205<362.487 515.743>
VStem: 86 205<0 779.072 819 1024> 496 204<0 804.773>
LayerCount: 2
Fore
SplineSet
86 0 m 1,0,-1
 86 1024 l 5,1,-1
 291 1024 l 5,2,-1
 291 819 l 6,3,4
 291 945.25 291 945.25 396 1001.5 c 4,5,6
 438 1024 438 1024 495.5 1024 c 132,-1,7
 553 1024 553 1024 595 1002.5 c 132,-1,8
 637 981 637 981 656.5 951.5 c 4,9,10
 698 888.717948718 698 888.717948718 698 840 c 5,11,-1
 700 819 l 5,12,-1
 700 0 l 1,13,-1
 496 0 l 1,14,-1
 496 719 l 6,15,16
 496 731.1875 496 731.1875 484.5 762.09375 c 4,17,18
 463.325581395 819 463.325581395 819 396.000628536 819 c 132,-1,19
 328.675675676 819 328.675675676 819 309.837837838 780.277777778 c 132,-1,20
 291 741.555555556 291 741.555555556 291 721 c 6,21,-1
 291 0 l 1,22,-1
 86 0 l 1,0,-1
EndSplineSet
Validated: 1
EndChar

StartChar: o
Encoding: 79 111 82
Width: 753
GlyphClass: 2
Flags: W
HStem: -4 207<299.559 453.801> 813 207<298.715 454.042>
VStem: 68 206<233.425 782.575> 479 207<232.394 782.575>
LayerCount: 2
Fore
SplineSet
68 297 m 1,0,-1
 68 711 l 2,1,2
 68 840 68 840 158 930 c 128,-1,3
 248 1020 248 1020 376 1020 c 128,-1,4
 504 1020 504 1020 594 932 c 128,-1,5
 684 844 684 844 686 717 c 1,6,-1
 686 305 l 2,7,8
 686 176 686 176 595 86 c 128,-1,9
 504 -4 504 -4 377 -4 c 128,-1,10
 250 -4 250 -4 161 84 c 128,-1,11
 72 172 72 172 68 297 c 1,0,-1
274 305 m 2,12,13
 274 262 274 262 304 232.5 c 128,-1,14
 334 203 334 203 376 203 c 128,-1,15
 418 203 418 203 448.5 231.5 c 128,-1,16
 479 260 479 260 479 301 c 2,17,-1
 479 711 l 2,18,19
 479 754 479 754 449.5 783.5 c 128,-1,20
 420 813 420 813 377 813 c 128,-1,21
 334 813 334 813 304 783.5 c 128,-1,22
 274 754 274 754 274 713 c 2,23,-1
 274 305 l 2,12,13
EndSplineSet
Validated: 1
EndChar

StartChar: p
Encoding: 80 112 83
Width: 786
GlyphClass: 2
Flags: W
HStem: -410 21G<86 291> 0 205<360.326 524.25> 819 205<363.063 497.913>
VStem: 86 205<-410 205 219.315 779.072 819 1024> 496 204<244.003 803.576>
LayerCount: 2
Fore
SplineSet
86 -410 m 1,0,-1
 86 1024 l 1,1,-1
 291 1024 l 1,2,-1
 291 819 l 2,3,4
 291 945.25 291 945.25 396 1001.5 c 0,5,6
 438 1024 438 1024 495.5 1024 c 128,-1,7
 553 1024 553 1024 595 1002.5 c 128,-1,8
 637 981 637 981 656.5 951.5 c 0,9,10
 698 888.717948718 698 888.717948718 698 840 c 1,11,-1
 700 819 l 1,12,-1
 700 205 l 2,13,14
 700 78.75 700 78.75 595 22.5 c 0,15,16
 553 0 553 0 495.5 0 c 128,-1,17
 438 0 438 0 396 21.5 c 128,-1,18
 354 43 354 43 334.5 72.5 c 0,19,20
 293 135.282051282 293 135.282051282 293 184 c 1,21,-1
 291 205 l 1,22,-1
 291 -410 l 1,23,-1
 86 -410 l 1,0,-1
291 303 m 2,24,25
 291 282.444444444 291 282.444444444 304 255.722222222 c 0,26,27
 328.675675676 205 328.675675676 205 391.891891892 205 c 128,-1,28
 455.108108108 205 455.108108108 205 475.554054054 242.825 c 128,-1,29
 496 280.65 496 280.65 496 301 c 2,30,-1
 496 717 l 2,31,32
 496 781.139534884 496 781.139534884 443.5 808 c 0,33,34
 422 819 422 819 392 819 c 0,35,36
 328.675675676 819 328.675675676 819 309.837837838 780.277777778 c 128,-1,37
 291 741.555555556 291 741.555555556 291 721 c 2,38,-1
 291 303 l 2,24,25
EndSplineSet
Validated: 1
EndChar

StartChar: q
Encoding: 81 113 84
Width: 786
GlyphClass: 2
Flags: W
HStem: -410 21G<496 700> 0 205<261.75 423.25> 819 205<270.172 426.317>
VStem: 86 205<220.424 775.114> 496 204<-410 205 245.987 803.523 819 1024>
LayerCount: 2
Fore
SplineSet
86 205 m 1,0,-1
 86 819 l 2,1,2
 86 944.301204819 86 944.301204819 191.5 1001.5 c 0,3,4
 233 1024 233 1024 290.5 1024 c 128,-1,5
 348 1024 348 1024 390 1002.5 c 128,-1,6
 432 981 432 981 451.5 951.5 c 0,7,8
 494 887.205128205 494 887.205128205 494 840 c 1,9,-1
 496 819 l 1,10,-1
 496 1024 l 1,11,-1
 700 1024 l 1,12,-1
 700 -410 l 1,13,-1
 496 -410 l 1,14,-1
 496 205 l 2,15,16
 496 79.2857142857 496 79.2857142857 390 22.5 c 0,17,18
 348 0 348 0 290.5 0 c 128,-1,19
 233 0 233 0 191.5 21.5 c 128,-1,20
 150 43 150 43 130.5 72.5 c 0,21,22
 88 136.794871795 88 136.794871795 88 184 c 1,23,-1
 86 205 l 1,0,-1
291 307 m 2,24,25
 291 242.860465116 291 242.860465116 343.5 216 c 0,26,27
 365 205 365 205 394.5 205 c 0,28,29
 457.324324324 205 457.324324324 205 476.662162162 244.75 c 128,-1,30
 496 284.5 496 284.5 496 303 c 2,31,-1
 496 721 l 2,32,33
 496 739.5 496 739.5 482.5 767.25 c 0,34,35
 457.324324324 819 457.324324324 819 389.999371464 819 c 128,-1,36
 322.674418605 819 322.674418605 819 306.837209302 776.4375 c 128,-1,37
 291 733.875 291 733.875 291 719 c 2,38,-1
 291 307 l 2,24,25
EndSplineSet
Validated: 1
EndChar

StartChar: r
Encoding: 82 114 85
Width: 720
GlyphClass: 2
Flags: W
HStem: 0 21G<86 291> 819 205<363.063 497.913>
VStem: 86 205<0 779.072 819 1024> 496 204<717 803.576>
LayerCount: 2
Fore
SplineSet
86 0 m 1,0,-1
 86 1024 l 1,1,-1
 291 1024 l 1,2,-1
 291 819 l 2,3,4
 291 945.25 291 945.25 396 1001.5 c 0,5,6
 438 1024 438 1024 495.5 1024 c 128,-1,7
 553 1024 553 1024 595 1002.5 c 128,-1,8
 637 981 637 981 656.5 951.5 c 0,9,10
 698 888.717948718 698 888.717948718 698 840 c 1,11,-1
 700 819 l 1,12,-1
 700 717 l 1,13,-1
 496 717 l 1,14,15
 496 781.139534884 496 781.139534884 443.5 808 c 0,16,17
 422 819 422 819 392 819 c 0,18,19
 328.675675676 819 328.675675676 819 309.837837838 780.277777778 c 128,-1,20
 291 741.555555556 291 741.555555556 291 721 c 2,21,-1
 291 0 l 1,22,-1
 86 0 l 1,0,-1
EndSplineSet
Validated: 1
EndChar

StartChar: s
Encoding: 83 115 86
Width: 720
GlyphClass: 2
Flags: W
HStem: 0 205<278.742 433.529> 410 204<281.488 440.101> 819 205<287.471 442.258>
VStem: 56 205.879<235.425 307 632.087 788.575> 459 205<229.527 390.03 717 788.575>
CounterMasks: 1 e0
LayerCount: 2
Fore
SplineSet
49 307 m 1,0,-1
 254 307 l 1,1,2
 254 264 254 264 283.5 234.5 c 128,-1,3
 313 205 313 205 356 205 c 128,-1,4
 399 205 399 205 429 234.5 c 128,-1,5
 459 264 459 264 459 307 c 128,-1,6
 459 350 459 350 428 380 c 128,-1,7
 397 410 397 410 356 410 c 0,8,9
 231 412 231 412 143 502 c 128,-1,10
 55 592 55 592 56 718 c 128,-1,11
 57 844 57 844 147.5 934 c 128,-1,12
 238 1024 238 1024 365 1024 c 128,-1,13
 492 1024 492 1024 582 934 c 128,-1,14
 672 844 672 844 672 717 c 1,15,-1
 467 717 l 1,16,17
 467 760 467 760 437.5 789.5 c 128,-1,18
 408 819 408 819 365 819 c 128,-1,19
 322 819 322 819 292 789.5 c 128,-1,20
 262 760 262 760 262 717 c 0,21,22
 261.878787879 714.393939394 261.878787879 714.393939394 261.878787879 711.835629017 c 0,23,24
 261.878787879 672.181818182 261.878787879 672.181818182 291.939393939 643.090909091 c 128,-1,25
 322 614 322 614 362 614 c 0,26,27
 487 612 487 612 575.5 522 c 128,-1,28
 664 432 664 432 664 306 c 128,-1,29
 664 180 664 180 573.5 90 c 128,-1,30
 483 0 483 0 356 0 c 128,-1,31
 229 0 229 0 139 90 c 128,-1,32
 49 180 49 180 49 307 c 1,0,-1
EndSplineSet
Validated: 33
EndChar

StartChar: t
Encoding: 84 116 87
Width: 432
GlyphClass: 2
Flags: W
HStem: 817 205<10 113 317 420>
VStem: 113 204<234.456 817 1022 1329>
LayerCount: 2
Fore
SplineSet
10 817 m 1,0,-1
 10 1022 l 1,1,-1
 113 1022 l 1,2,-1
 113 1329 l 1,3,-1
 317 1329 l 1,4,-1
 317 1022 l 1,5,-1
 420 1022 l 1,6,-1
 420 817 l 1,7,-1
 317 817 l 1,8,-1
 317 305 l 2,9,10
 317 264 317 264 347 233.5 c 128,-1,11
 377 203 377 203 420 203 c 1,12,-1
 420 -2 l 1,13,14
 293 -2 293 -2 203 88 c 128,-1,15
 113 178 113 178 113 305 c 2,16,-1
 113 817 l 1,17,-1
 10 817 l 1,0,-1
EndSplineSet
Validated: 1
EndChar

StartChar: u
Encoding: 85 117 88
Width: 786
GlyphClass: 2
Flags: W
HStem: 0 205<288.587 423.25> 1004 20G<86 291 496 700>
VStem: 86 205<220.424 1024> 496 204<0 205 245.987 1024>
LayerCount: 2
Fore
SplineSet
86 205 m 1,0,-1
 86 1024 l 1,1,-1
 291 1024 l 1,2,-1
 291 307 l 2,3,4
 291 242.860465116 291 242.860465116 343.5 216 c 0,5,6
 365 205 365 205 394.5 205 c 0,7,8
 457.324324324 205 457.324324324 205 476.662162162 244.75 c 128,-1,9
 496 284.5 496 284.5 496 303 c 2,10,-1
 496 1024 l 1,11,-1
 700 1024 l 1,12,-1
 700 0 l 1,13,-1
 496 0 l 1,14,-1
 496 205 l 2,15,16
 496 79.2857142857 496 79.2857142857 390 22.5 c 0,17,18
 348 0 348 0 290.5 0 c 128,-1,19
 233 0 233 0 191.5 21.5 c 128,-1,20
 150 43 150 43 130.5 72.5 c 0,21,22
 88 136.794871795 88 136.794871795 88 184 c 1,23,-1
 86 205 l 1,0,-1
EndSplineSet
Validated: 1
EndChar

StartChar: v
Encoding: 86 118 89
Width: 610
GlyphClass: 2
Flags: W
HStem: 0 21G<198.996 411.984> 1004 20G<-2 206.984 403.977 612>
VStem: -2 614
LayerCount: 2
Fore
SplineSet
-2 1024 m 1,0,-1
 203 1024 l 1,1,-1
 305 512 l 1,2,-1
 408 1024 l 1,3,-1
 612 1024 l 1,4,-1
 408 0 l 1,5,-1
 203 0 l 1,6,-1
 -2 1024 l 1,0,-1
EndSplineSet
Validated: 1
EndChar

StartChar: w
Encoding: 87 119 90
Width: 1028
GlyphClass: 2
Flags: W
HStem: 0 21G<202.996 415.984 612.016 825.004> 1004 20G<2 210.984 407.977 620.023 817.016 1026>
LayerCount: 2
Fore
SplineSet
2 1024 m 1,0,-1
 207 1024 l 1,1,-1
 309 512 l 1,2,-1
 412 1024 l 1,3,-1
 616 1024 l 1,4,-1
 719 512 l 1,5,-1
 821 1024 l 1,6,-1
 1026 1024 l 1,7,-1
 821 0 l 1,8,-1
 616 0 l 1,9,-1
 514 512 l 1,10,-1
 412 0 l 1,11,-1
 207 0 l 1,12,-1
 2 1024 l 1,0,-1
EndSplineSet
Validated: 1
EndChar

StartChar: x
Encoding: 88 120 91
Width: 569
GlyphClass: 2
Flags: W
HStem: 0 21G<-23 190.047 379.031 592> 1004 20G<-23 190.047 387 583.992>
VStem: -23 615
LayerCount: 2
Fore
SplineSet
-23 0 m 1,0,-1
 182 512 l 1,1,-1
 -23 1024 l 1,2,-1
 182 1024 l 1,3,-1
 285 768 l 1,4,-1
 387 1024 l 1,5,-1
 592 1024 l 1,6,-1
 387 512 l 1,7,-1
 592 0 l 1,8,-1
 387 0 l 1,9,-1
 285 256 l 1,10,-1
 182 0 l 1,11,-1
 -23 0 l 1,0,-1
EndSplineSet
Validated: 1
EndChar

StartChar: y
Encoding: 89 121 92
Width: 610
GlyphClass: 2
Flags: W
HStem: 1004 20G<-2 206.984 403.977 612>
LayerCount: 2
Fore
SplineSet
-2 1024 m 1,0,-1
 203 1024 l 1,1,-1
 305 512 l 1,2,-1
 408 1024 l 1,3,-1
 612 1024 l 1,4,-1
 408 0 l 1,5,6
 408 -127 408 -127 317.5 -217 c 128,-1,7
 227 -307 227 -307 100 -307 c 1,8,-1
 100 -102 l 1,9,10
 143 -102 143 -102 173 -72.5 c 128,-1,11
 203 -43 203 -43 203 0 c 1,12,-1
 -2 1024 l 1,0,-1
EndSplineSet
Validated: 1
EndChar

StartChar: z
Encoding: 90 122 93
Width: 684
GlyphClass: 2
Flags: W
HStem: 0 205<240 649> 819 205<35 444>
VStem: 35 614<0 205 819 1024>
LayerCount: 2
Fore
SplineSet
35 0 m 1,0,-1
 35 205 l 1,1,-1
 444 819 l 1,2,-1
 35 819 l 1,3,-1
 35 1024 l 1,4,-1
 649 1024 l 1,5,-1
 649 819 l 1,6,-1
 240 205 l 1,7,-1
 649 205 l 1,8,-1
 649 0 l 1,9,-1
 35 0 l 1,0,-1
EndSplineSet
Validated: 1
EndChar

StartChar: braceleft
Encoding: 91 123 94
Width: 519
GlyphClass: 2
Flags: W
VStem: 223 176<36.4562 109 548 620.059 890.456 963 1333 1405.54>
LayerCount: 2
Fore
SplineSet
119 651 m 1,0,1
 162 651 162 651 192.5 621 c 128,-1,2
 223 591 223 591 223 548 c 2,3,-1
 223 109 l 2,4,5
 223 -16 223 -16 293 -106.5 c 128,-1,6
 363 -197 363 -197 487 -203 c 1,7,-1
 503 -203 l 1,8,-1
 503 5 l 1,9,10
 460 5 460 5 429.5 35.5 c 128,-1,11
 399 66 399 66 399 109 c 2,12,-1
 399 1333 l 2,13,14
 399 1376 399 1376 429.5 1406.5 c 128,-1,15
 460 1437 460 1437 503 1437 c 1,16,-1
 503 1645 l 1,17,18
 374 1645 374 1645 298.5 1553.5 c 128,-1,19
 223 1462 223 1462 223 1333 c 2,20,-1
 223 963 l 2,21,22
 223 920 223 920 192.5 889.5 c 128,-1,23
 162 859 162 859 119 859 c 1,24,-1
 119 651 l 1,0,1
EndSplineSet
Validated: 9
EndChar

StartChar: bar
Encoding: 92 124 95
Width: 413
GlyphClass: 2
Flags: W
VStem: 104 205<-202 1639>
LayerCount: 2
Fore
SplineSet
104 -202 m 1,0,-1
 104 1639 l 1,1,-1
 309 1639 l 1,2,-1
 309 -202 l 1,3,-1
 104 -202 l 1,0,-1
EndSplineSet
Validated: 1
EndChar

StartChar: braceright
Encoding: 93 125 96
Width: 519
GlyphClass: 2
Flags: W
VStem: 223 280<651 859> 223 176<36.4562 620.059 890.456 1405.54>
LayerCount: 2
Fore
SplineSet
119 5 m 1,0,1
 162 5 162 5 192.5 35.5 c 128,-1,2
 223 66 223 66 223 109 c 2,3,-1
 223 1333 l 2,4,5
 223 1376 223 1376 192.5 1406.5 c 128,-1,6
 162 1437 162 1437 119 1437 c 1,7,-1
 119 1645 l 1,8,9
 248 1645 248 1645 323.5 1553.5 c 128,-1,10
 399 1462 399 1462 399 1333 c 2,11,-1
 399 963 l 2,12,13
 399 920 399 920 429.5 889.5 c 128,-1,14
 460 859 460 859 503 859 c 1,15,-1
 503 651 l 1,16,17
 460 651 460 651 429.5 621 c 128,-1,18
 399 591 399 591 399 548 c 2,19,-1
 399 109 l 2,20,21
 399 -16 399 -16 329 -106.5 c 128,-1,22
 259 -197 259 -197 135 -203 c 1,23,-1
 119 -203 l 1,24,-1
 119 5 l 1,0,1
EndSplineSet
Validated: 1
EndChar

StartChar: asciitilde
Encoding: 94 126 97
Width: 1013
GlyphClass: 2
Flags: W
HStem: 290.74 204.953<288.855 542.563> 339.308 204.953<470.38 686.217>
LayerCount: 2
Back
SplineSet
459 508 m 4,0,1
 527.833333333 544.260416667 527.833333333 544.260416667 600.066080729 544.260416667 c 4,2,3
 645.364583333 544.260416667 645.364583333 544.260416667 692 530 c 4,4,5
 813 493 813 493 872 381 c 517,6,-1
 692 285 l 517,7,8
 672 322 672 322 632 334.5 c 516,9,10
 616.615384615 339.307692308 616.615384615 339.307692308 601.526627219 339.307692308 c 4,11,12
 577.384615385 339.307692308 577.384615385 339.307692308 554 327 c 4,13,14
 485.166666667 290.739583333 485.166666667 290.739583333 412.933919271 290.739583333 c 4,15,16
 367.635416667 290.739583333 367.635416667 290.739583333 321 305 c 4,17,18
 200 342 200 342 141 454 c 517,19,-1
 321 550 l 517,20,21
 341 513 341 513 381.5 500.5 c 516,22,23
 397.076923077 495.692307692 397.076923077 495.692307692 412.136094675 495.692307692 c 4,24,25
 436.230769231 495.692307692 436.230769231 495.692307692 459 508 c 4,0,1
EndSplineSet
Fore
SplineSet
321 550 m 5,0,1
 350.355509356 495.692307692 350.355509356 495.692307692 412.136094675 495.692307692 c 4,2,3
 436.230769231 495.692307692 436.230769231 495.692307692 482.032051282 519.976362179 c 132,-1,4
 527.833333333 544.260416667 527.833333333 544.260416667 586.598958333 544.260416667 c 4,5,6
 785.996744792 544.260416667 785.996744792 544.260416667 872 381 c 5,7,-1
 692 285 l 5,8,9
 662.644490644 339.307692308 662.644490644 339.307692308 601.526627219 339.307692308 c 4,10,11
 577.384615385 339.307692308 577.384615385 339.307692308 531.275641026 315.023637821 c 132,-1,12
 485.166666667 290.739583333 485.166666667 290.739583333 426.401041667 290.739583333 c 4,13,14
 227.003255208 290.739583333 227.003255208 290.739583333 141 454 c 5,15,-1
 321 550 l 5,0,1
EndSplineSet
Validated: 1
EndChar

StartChar: cent
Encoding: 96 162 99
Width: 733
GlyphClass: 2
Flags: W
HStem: -96 352<317.425 461.059> 870 354<317.425 461.059>
VStem: 82 205<286.425 839.575> 275 205<-96 81.1289 1044.59 1224> 492 204<286.425 358 768 839.575>
LayerCount: 2
Fore
SplineSet
82 358 m 2,0,-1
 82 768 l 2,1,2
 82 895 82 895 172 985 c 0,3,4
 215 1028 215 1028 267 1051 c 1,5,-1
 267 1224 l 1,6,-1
 472 1224 l 1,7,-1
 472 1064 l 1,8,9
 547 1044 547 1044 606 985 c 0,10,11
 696 895 696 895 696 768 c 1,12,-1
 492 768 l 1,13,14
 492 811 492 811 462 840.5 c 128,-1,15
 432 870 432 870 389 870 c 128,-1,16
 346 870 346 870 316.5 840.5 c 128,-1,17
 287 811 287 811 287 768 c 2,18,-1
 287 358 l 2,19,20
 287 315 287 315 316.5 285.5 c 128,-1,21
 346 256 346 256 389 256 c 128,-1,22
 432 256 432 256 462 285.5 c 128,-1,23
 492 315 492 315 492 358 c 1,24,-1
 696 358 l 1,25,26
 696 231 696 231 606 141 c 0,27,28
 550 85 550 85 480 64 c 1,29,-1
 480 -96 l 1,30,-1
 275 -96 l 1,31,-1
 275 72 l 1,32,33
 219 94 219 94 172 141 c 0,34,35
 82 231 82 231 82 358 c 2,0,-1
EndSplineSet
Validated: 1
EndChar

StartChar: sterling
Encoding: 97 163 100
Width: 900
GlyphClass: 2
Flags: W
HStem: 2 205<412 821> 616 205<2 207 412 616> 1331 206<439.03 593.728>
VStem: 207 205<207 616 821 1301.09>
LayerCount: 2
Fore
SplineSet
2 616 m 1,0,-1
 2 821 l 1,1,-1
 207 821 l 1,2,-1
 207 1026 l 1,3,-1
 210 1230 l 1,4,5
 210 1358 210 1358 299.5 1447.5 c 128,-1,6
 389 1537 389 1537 516 1537 c 128,-1,7
 643 1537 643 1537 732.5 1449.5 c 128,-1,8
 822 1362 822 1362 824 1230 c 1,9,-1
 619 1230 l 1,10,11
 619 1272 619 1272 589.5 1301.5 c 128,-1,12
 560 1331 560 1331 517 1331 c 128,-1,13
 474 1331 474 1331 444 1302 c 128,-1,14
 414 1273 414 1273 414 1230 c 1,15,-1
 412 1230 l 1,16,-1
 412 821 l 1,17,-1
 616 821 l 1,18,-1
 616 616 l 1,19,-1
 412 616 l 1,20,-1
 412 207 l 1,21,-1
 821 207 l 1,22,-1
 821 2 l 1,23,-1
 207 2 l 1,24,-1
 207 616 l 1,25,-1
 2 616 l 1,0,-1
EndSplineSet
Validated: 1
EndChar

StartChar: yen
Encoding: 98 165 101
Width: 825
GlyphClass: 2
Flags: W
HStem: 0 21G<345 552> 461 204<143 292 605 757> 764 204<143 212 685 757>
VStem: 345 207<0 461>
LayerCount: 2
Fore
SplineSet
89 1436 m 1,0,-1
 296 1436 l 1,1,-1
 450 823 l 1,2,-1
 601 1436 l 1,3,-1
 808 1436 l 1,4,-1
 685 968 l 1,5,-1
 757 968 l 1,6,-1
 757 764 l 1,7,-1
 631 764 l 1,8,-1
 605 665 l 1,9,-1
 757 665 l 1,10,-1
 757 461 l 1,11,-1
 552 461 l 1,12,-1
 552 0 l 1,13,-1
 345 0 l 1,14,-1
 345 461 l 1,15,-1
 143 461 l 1,16,-1
 143 665 l 1,17,-1
 292 665 l 1,18,-1
 266 764 l 1,19,-1
 143 764 l 1,20,-1
 143 968 l 1,21,-1
 212 968 l 1,22,-1
 89 1436 l 1,0,-1
EndSplineSet
Validated: 1
EndChar

StartChar: brokenbar
Encoding: 99 166 102
Width: 825
GlyphClass: 2
Flags: W
HStem: -1 21G<184 389>
VStem: 184 205<-1 614 827 1442>
LayerCount: 2
Fore
SplineSet
184 -1 m 1,0,-1
 184 614 l 1,1,-1
 389 614 l 1,2,-1
 389 -1 l 1,3,-1
 184 -1 l 1,0,-1
184 827 m 1,4,-1
 184 1442 l 1,5,-1
 389 1442 l 1,6,-1
 389 827 l 1,7,-1
 184 827 l 1,4,-1
EndSplineSet
Validated: 1
EndChar

StartChar: section
Encoding: 100 167 103
Width: 825
GlyphClass: 2
Flags: W
HStem: -16 205<325.335 479.017> 394 205<324.362 475.149> 803 205<338.941 495.621> 1213 205<341.983 495.745>
VStem: 103 205<219.94 291 614.673 778.076> 110 205.875<1026.81 1182.06> 513 205<219.94 362.528 634.33 784.891>
LayerCount: 2
Fore
SplineSet
95 291 m 1,0,-1
 300 291 l 1,1,2
 300 249 300 249 330 219 c 128,-1,3
 360 189 360 189 402 189 c 128,-1,4
 444 189 444 189 474.5 219 c 128,-1,5
 505 249 505 249 505 291 c 0,6,7
 505.125 293.5625 505.125 293.5625 505.125 296.083984375 c 0,8,9
 505.125 333.90625 505.125 333.90625 476.0625 363.453125 c 128,-1,10
 447 393 447 393 394.5 394 c 128,-1,11
 342 395 342 395 282.5 422.5 c 0,12,13
 160.397401673 478.933974017 160.397401673 478.933974017 120 598 c 0,14,15
 103 646 103 646 103 701 c 0,16,17
 103 822 103 822 185 909 c 1,18,19
 109 995 109 995 110 1116 c 128,-1,20
 111 1237 111 1237 202 1327.5 c 128,-1,21
 293 1418 293 1418 419 1418 c 128,-1,22
 545 1418 545 1418 635.5 1327.5 c 128,-1,23
 726 1237 726 1237 726 1111 c 1,24,-1
 521 1111 l 1,25,26
 521 1153 521 1153 491 1183 c 128,-1,27
 461 1213 461 1213 419 1213 c 128,-1,28
 377 1213 377 1213 346.5 1183 c 128,-1,29
 316 1153 316 1153 316 1111 c 0,30,31
 315.875 1108.4375 315.875 1108.4375 315.875 1105.91601562 c 0,32,33
 315.875 1068.09375 315.875 1068.09375 344.9375 1038.546875 c 128,-1,34
 374 1009 374 1009 414 1008 c 0,35,36
 511 1007 511 1007 591 948.5 c 0,37,38
 718 855.63125 718 855.63125 718 701 c 0,39,40
 718 580 718 580 636 493 c 1,41,42
 712 407 712 407 711 286 c 128,-1,43
 710 165 710 165 619 74.5 c 128,-1,44
 528 -16 528 -16 402 -16 c 0,45,46
 319 -16 319 -16 248.5 25.5 c 128,-1,47
 178 67 178 67 136.5 138 c 128,-1,48
 95 209 95 209 95 291 c 1,0,-1
308 700.5 m 128,-1,50
 308 657 308 657 337 628 c 128,-1,51
 366 599 366 599 402 599 c 0,52,53
 470.489361702 599 470.489361702 599 499.5 649.5 c 0,54,55
 513 673 513 673 513 709 c 128,-1,56
 513 745 513 745 484 774 c 128,-1,57
 455 803 455 803 411.5 803 c 128,-1,58
 368 803 368 803 338 773.5 c 128,-1,49
 308 744 308 744 308 700.5 c 128,-1,50
EndSplineSet
Validated: 33
EndChar

StartChar: copyright
Encoding: 101 169 104
Width: 1154
GlyphClass: 2
Flags: W
HStem: 1 102<359.509 789.491> 264 182<509.695 639.221> 993 182<509.695 637.547> 1333 101<361.373 787.353>
VStem: 63 102<297.509 1137.49> 325 166<473.331 965.669> 657 165<472.846 537 902 965.669> 985 101<299.373 1135.35>
LayerCount: 2
Fore
SplineSet
63 477 m 2,0,-1
 63 958 l 2,1,2
 63 1055 63 1055 101 1143 c 128,-1,3
 139 1231 139 1231 202.5 1294.5 c 128,-1,4
 266 1358 266 1358 354 1396 c 128,-1,5
 442 1434 442 1434 539 1434 c 2,6,-1
 610 1434 l 2,7,8
 807 1434 807 1434 946.5 1294.5 c 128,-1,9
 1086 1155 1086 1155 1086 958 c 2,10,-1
 1086 477 l 2,11,12
 1086 380 1086 380 1048.5 292 c 128,-1,13
 1011 204 1011 204 947 140.5 c 128,-1,14
 883 77 883 77 795 39 c 128,-1,15
 707 1 707 1 610 1 c 2,16,-1
 539 1 l 2,17,18
 442 1 442 1 354 39 c 128,-1,19
 266 77 266 77 202.5 140.5 c 128,-1,20
 139 204 139 204 101 292 c 128,-1,21
 63 380 63 380 63 477 c 2,0,-1
165 477 m 2,22,23
 165 375 165 375 214.5 288.5 c 128,-1,24
 264 202 264 202 350.5 152.5 c 128,-1,25
 437 103 437 103 539 103 c 2,26,-1
 610 103 l 2,27,28
 713 103 713 103 799 152.5 c 128,-1,29
 885 202 885 202 935 288.5 c 128,-1,30
 985 375 985 375 985 477 c 2,31,-1
 985 958 l 2,32,33
 985 1061 985 1061 935 1147 c 128,-1,34
 885 1233 885 1233 799 1283 c 128,-1,35
 713 1333 713 1333 610 1333 c 2,36,-1
 539 1333 l 2,37,38
 437 1333 437 1333 350.5 1283 c 128,-1,39
 264 1233 264 1233 214.5 1147 c 128,-1,40
 165 1061 165 1061 165 958 c 2,41,-1
 165 477 l 2,22,23
325 537 m 2,42,-1
 325 902 l 2,43,44
 325 1015 325 1015 398 1095 c 128,-1,45
 471 1175 471 1175 573.5 1175 c 128,-1,46
 676 1175 676 1175 749 1095 c 128,-1,47
 822 1015 822 1015 822 902 c 1,48,-1
 657 902 l 1,49,50
 657 940 657 940 632.5 966.5 c 128,-1,51
 608 993 608 993 573.5 993 c 128,-1,52
 539 993 539 993 515 966.5 c 128,-1,53
 491 940 491 940 491 902 c 2,54,-1
 491 537 l 2,55,56
 491 499 491 499 515 472.5 c 128,-1,57
 539 446 539 446 573.5 446 c 128,-1,58
 608 446 608 446 633 472 c 0,59,60
 657 499 657 499 657 537 c 1,61,-1
 822 537 l 1,62,63
 822 424 822 424 749 344 c 128,-1,64
 676 264 676 264 573.5 264 c 128,-1,65
 471 264 471 264 398 344 c 128,-1,66
 325 424 325 424 325 537 c 2,42,-1
EndSplineSet
Validated: 1
EndChar

StartChar: guillemotleft
Encoding: 102 171 105
Width: 901
GlyphClass: 2
Flags: W
LayerCount: 2
Fore
SplineSet
20 527 m 1,0,-1
 451 956 l 1,1,-1
 451 739 l 1,2,-1
 236 527 l 1,3,-1
 451 314 l 1,4,-1
 451 98 l 1,5,-1
 20 527 l 1,0,-1
413 527 m 1,6,-1
 844 956 l 1,7,-1
 844 739 l 1,8,-1
 629 527 l 1,9,-1
 844 314 l 1,10,-1
 844 98 l 1,11,-1
 413 527 l 1,6,-1
EndSplineSet
Validated: 1
EndChar

StartChar: registered
Encoding: 103 174 106
Width: 1220
GlyphClass: 2
Flags: W
HStem: -2 102<388.508 818.491> 651 125<520 604> 1033 127<520 667.435> 1330 101<389.812 815.926>
VStem: 92 101<296.373 1133.18> 357 163<269 651 776 1033> 686 163<790.954 1018.05> 1013 102<294.509 1135.66>
LayerCount: 2
Fore
SplineSet
92 474 m 2,0,-1
 92 955 l 2,1,2
 92 1052 92 1052 129.5 1140 c 128,-1,3
 167 1228 167 1228 231 1291.5 c 128,-1,4
 295 1355 295 1355 383 1393 c 128,-1,5
 471 1431 471 1431 567 1431 c 2,6,-1
 639 1431 l 2,7,8
 874.547008547 1431 874.547008547 1431 1022.5 1236.5 c 0,9,10
 1115 1114.8988764 1115 1114.8988764 1115 955 c 2,11,-1
 1115 474 l 2,12,13
 1115 377 1115 377 1077 289 c 128,-1,14
 1039 201 1039 201 975.5 137.5 c 128,-1,15
 912 74 912 74 824 36 c 128,-1,16
 736 -2 736 -2 639 -2 c 2,17,-1
 567 -2 l 2,18,19
 471 -2 471 -2 383 36 c 128,-1,20
 295 74 295 74 231 137.5 c 128,-1,21
 167 201 167 201 129.5 289 c 128,-1,22
 92 377 92 377 92 474 c 2,0,-1
193 474 m 2,23,24
 193 372 193 372 243 285.5 c 128,-1,25
 293 199 293 199 379 149.5 c 128,-1,26
 465 100 465 100 567 100 c 2,27,-1
 639 100 l 2,28,29
 741 100 741 100 827.5 149.5 c 128,-1,30
 914 199 914 199 963.5 285.5 c 128,-1,31
 1013 372 1013 372 1013 474 c 2,32,-1
 1013 955 l 2,33,34
 1013 1058 1013 1058 963.5 1144 c 128,-1,35
 914 1230 914 1230 827.5 1280 c 128,-1,36
 741 1330 741 1330 639 1330 c 2,37,-1
 567 1330 l 2,38,39
 465 1330 465 1330 379 1280 c 128,-1,40
 293 1230 293 1230 243 1144 c 128,-1,41
 193 1058 193 1058 193 955 c 2,42,-1
 193 474 l 2,23,24
357 269 m 1,43,-1
 357 1160 l 1,44,-1
 686 1158 l 2,45,46
 753 1158 753 1158 801 1121 c 128,-1,47
 849 1084 849 1084 849 1032 c 2,48,-1
 849 777 l 2,49,50
 849 704 849 704 768 668 c 1,51,-1
 849 269 l 1,52,-1
 686 269 l 1,53,-1
 604 651 l 1,54,-1
 520 651 l 1,55,-1
 520 269 l 1,56,-1
 357 269 l 1,43,-1
520 776 m 1,57,-1
 623 776 l 2,58,59
 650 776 650 776 668 790.5 c 128,-1,60
 686 805 686 805 686 825 c 2,61,-1
 686 984 l 2,62,63
 686 1004 686 1004 668 1018.5 c 128,-1,64
 650 1033 650 1033 623 1033 c 2,65,-1
 520 1033 l 1,66,-1
 520 776 l 1,57,-1
EndSplineSet
Validated: 1
EndChar

StartChar: plusminus
Encoding: 105 177 108
Width: 825
GlyphClass: 2
Flags: W
HStem: 4 205<2 822> 617 206<-4 304 510 818>
VStem: 304 206<309 617 823 1130>
LayerCount: 2
Fore
SplineSet
-4 617 m 1,0,-1
 -4 823 l 1,1,-1
 304 823 l 1,2,-1
 304 1130 l 1,3,-1
 510 1130 l 1,4,-1
 510 823 l 1,5,-1
 818 823 l 1,6,-1
 818 617 l 1,7,-1
 510 617 l 1,8,-1
 510 309 l 1,9,-1
 304 309 l 1,10,-1
 304 617 l 1,11,-1
 -4 617 l 1,0,-1
2 4 m 1,12,-1
 2 209 l 1,13,-1
 822 209 l 1,14,-1
 822 4 l 1,15,-1
 2 4 l 1,12,-1
EndSplineSet
Validated: 1
EndChar

StartChar: mu
Encoding: 107 181 110
Width: 786
GlyphClass: 2
Flags: W
HStem: 0 205<319.363 424.457> 1004 20G<86 291 496 700>
VStem: 86 205<-408 0 234.395 1024> 496 204<0 205 222.127 1024>
LayerCount: 2
Fore
SplineSet
86 -408 m 1,0,-1
 86 1024 l 1,1,-1
 291 1024 l 1,2,-1
 291 307 l 2,3,4
 291 262 291 262 318.5 233.5 c 128,-1,5
 346 205 346 205 390 205 c 0,6,7
 464.885714286 205 464.885714286 205 492 278 c 0,8,9
 496 291 496 291 496 303 c 2,10,-1
 496 1024 l 1,11,-1
 700 1024 l 1,12,-1
 700 0 l 1,13,-1
 496 0 l 1,14,-1
 496 205 l 2,15,16
 496 130.666666667 496 130.666666667 455 75.8333333333 c 0,17,18
 398.29787234 3.5527136788e-14 398.29787234 3.5527136788e-14 291 0 c 1,19,-1
 291 -408 l 1,20,-1
 86 -408 l 1,0,-1
EndSplineSet
Validated: 1
EndChar

StartChar: paragraph
Encoding: 108 182 111
Width: 899
GlyphClass: 2
Flags: W
HStem: 0 21G<334 539 641 846> 1229 205<539 641>
VStem: 27 512<964.99 1226.31> 334 205<0 819> 641 205<0 1229>
LayerCount: 2
Fore
SplineSet
27 1125.5 m 128,-1,1
 27 1253 27 1253 114.5 1342.5 c 128,-1,2
 202 1432 202 1432 334 1434 c 1,3,-1
 846 1434 l 1,4,-1
 846 0 l 1,5,-1
 641 0 l 1,6,-1
 641 1229 l 1,7,-1
 539 1229 l 1,8,-1
 539 0 l 1,9,-1
 334 0 l 1,10,-1
 334 819 l 1,11,12
 206 819 206 819 116.5 908.5 c 128,-1,0
 27 998 27 998 27 1125.5 c 128,-1,1
EndSplineSet
Validated: 1
EndChar

StartChar: periodcentered
Encoding: 109 183 112
Width: 376
GlyphClass: 2
Flags: W
HStem: 1174 205<86 291>
VStem: 86 205<1174 1379>
LayerCount: 2
Fore
SplineSet
86 1174 m 1,0,-1
 86 1379 l 1,1,-1
 291 1379 l 1,2,-1
 291 1174 l 1,3,-1
 86 1174 l 1,0,-1
EndSplineSet
Validated: 1
EndChar

StartChar: cedilla
Encoding: 110 184 113
Width: 413
GlyphClass: 2
Flags: W
HStem: -224 238
VStem: 297 365
LayerCount: 2
Fore
SplineSet
297 -224 m 1,0,-1
 467 14 l 1,1,-1
 662 14 l 1,2,-1
 458 -224 l 1,3,-1
 297 -224 l 1,0,-1
EndSplineSet
Validated: 1
EndChar

StartChar: guillemotright
Encoding: 111 187 114
Width: 901
GlyphClass: 2
Flags: W
LayerCount: 2
Fore
SplineSet
57 98 m 1,0,-1
 488 527 l 1,1,-1
 57 956 l 1,2,-1
 57 739 l 1,3,-1
 271 527 l 1,4,-1
 57 314 l 1,5,-1
 57 98 l 1,0,-1
450 98 m 1,6,-1
 881 527 l 1,7,-1
 450 956 l 1,8,-1
 450 739 l 1,9,-1
 664 527 l 1,10,-1
 450 314 l 1,11,-1
 450 98 l 1,6,-1
EndSplineSet
Validated: 9
EndChar

StartChar: questiondown
Encoding: 112 191 115
Width: 745
GlyphClass: 2
Flags: W
HStem: 0 205<295.5 450.258> 1229 205<270 475>
VStem: 66 204<235.425 604.45> 270 205<827.513 1126 1229 1434> 475 205<235.425 410>
LayerCount: 2
Fore
SplineSet
66 307 m 2,0,-1
 66 461 l 2,1,2
 66 541 66 541 96.5 606.5 c 128,-1,3
 127 672 127 672 179 749.5 c 128,-1,4
 231 827 231 827 247.19928401 877.54176611 c 128,-1,5
 263.398568019 928.08353222 263.398568019 928.08353222 270 1004 c 1,6,-1
 270 1126 l 1,7,-1
 475 1126 l 1,8,-1
 475 973 l 2,9,10
 475 893 475 893 444.5 827.5 c 128,-1,11
 414 762 414 762 361.5 684 c 128,-1,12
 309 606 309 606 292.484848485 552.325757576 c 128,-1,13
 275.96969697 498.651515152 275.96969697 498.651515152 270 430 c 1,14,-1
 270 307 l 2,15,16
 270 264 270 264 300 234.5 c 128,-1,17
 330 205 330 205 373 205 c 128,-1,18
 416 205 416 205 445.5 234.5 c 128,-1,19
 475 264 475 264 475 307 c 2,20,-1
 475 410 l 1,21,-1
 680 410 l 1,22,-1
 680 307 l 2,23,24
 680 180 680 180 590 90 c 128,-1,25
 500 0 500 0 373 0 c 128,-1,26
 246 0 246 0 156 90 c 128,-1,27
 66 180 66 180 66 307 c 2,0,-1
270 1229 m 1,28,-1
 270 1434 l 1,29,-1
 475 1434 l 1,30,-1
 475 1229 l 1,31,-1
 270 1229 l 1,28,-1
EndSplineSet
Validated: 1
EndChar

StartChar: Agrave
Encoding: 113 192 116
Width: 825
GlyphClass: 2
Flags: W
HStem: 0 21G<4 210.948 614.026 821> 309 201<309 516> 1414 20G<306.718 518.282>
LayerCount: 2
Fore
SplineSet
4 0 m 1,0,-1
 311 1434 l 1,1,-1
 514 1434 l 1,2,-1
 821 0 l 1,3,-1
 618 0 l 1,4,-1
 557 307 l 1,5,-1
 268 309 l 1,6,-1
 207 0 l 1,7,-1
 4 0 l 1,0,-1
125 1833 m 1,8,-1
 319 1833 l 1,9,-1
 489 1595 l 1,10,-1
 328 1595 l 1,11,-1
 125 1833 l 1,8,-1
309 510 m 1,12,-1
 516 510 l 1,13,-1
 414 1024 l 1,14,-1
 412 1024 l 1,15,-1
 309 510 l 1,12,-1
EndSplineSet
Validated: 1
EndChar

StartChar: Aacute
Encoding: 114 193 117
Width: 825
GlyphClass: 2
Flags: W
HStem: 0 21G<4 210.948 614.026 821> 309 201<309 516> 1414 20G<306.718 518.282>
LayerCount: 2
Fore
SplineSet
4 0 m 1,0,-1
 311 1434 l 1,1,-1
 514 1434 l 1,2,-1
 821 0 l 1,3,-1
 618 0 l 1,4,-1
 557 307 l 1,5,-1
 268 309 l 1,6,-1
 207 0 l 1,7,-1
 4 0 l 1,0,-1
309 510 m 1,8,-1
 516 510 l 1,9,-1
 414 1024 l 1,10,-1
 412 1024 l 1,11,-1
 309 510 l 1,8,-1
338 1594 m 1,12,-1
 499 1594 l 1,13,-1
 703 1832 l 1,14,-1
 508 1832 l 1,15,-1
 338 1594 l 1,12,-1
EndSplineSet
Validated: 9
EndChar

StartChar: Acircumflex
Encoding: 115 194 118
Width: 825
GlyphClass: 2
Flags: W
HStem: 0 21G<4 210.948 614.026 821> 309 201<309 516> 1414 20G<306.718 518.282>
LayerCount: 2
Fore
SplineSet
4 0 m 1,0,-1
 311 1434 l 1,1,-1
 514 1434 l 1,2,-1
 821 0 l 1,3,-1
 618 0 l 1,4,-1
 557 307 l 1,5,-1
 268 309 l 1,6,-1
 207 0 l 1,7,-1
 4 0 l 1,0,-1
140 1593 m 1,8,-1
 361 1814 l 1,9,-1
 487 1814 l 1,10,-1
 707 1593 l 1,11,-1
 494 1593 l 1,12,-1
 424 1663 l 1,13,-1
 354 1593 l 1,14,-1
 140 1593 l 1,8,-1
309 510 m 1,15,-1
 516 510 l 1,16,-1
 414 1024 l 1,17,-1
 412 1024 l 1,18,-1
 309 510 l 1,15,-1
EndSplineSet
Validated: 1
EndChar

StartChar: Adieresis
Encoding: 117 196 120
Width: 817
GlyphClass: 2
Flags: W
HStem: 0 21G<4 210.948 614.026 821> 309 201<309 516> 1414 20G<306.718 518.282> 1594 203<109 311 518 721>
VStem: 109 202<1594 1797> 518 203<1594 1797>
LayerCount: 2
Fore
SplineSet
4 0 m 1,0,-1
 311 1434 l 1,1,-1
 514 1434 l 1,2,-1
 821 0 l 1,3,-1
 618 0 l 1,4,-1
 557 307 l 1,5,-1
 268 309 l 1,6,-1
 207 0 l 1,7,-1
 4 0 l 1,0,-1
109 1594 m 1,8,-1
 109 1797 l 1,9,-1
 311 1797 l 1,10,-1
 311 1594 l 1,11,-1
 109 1594 l 1,8,-1
309 510 m 1,12,-1
 516 510 l 1,13,-1
 414 1024 l 1,14,-1
 412 1024 l 1,15,-1
 309 510 l 1,12,-1
518 1594 m 1,16,-1
 518 1797 l 1,17,-1
 721 1797 l 1,18,-1
 721 1594 l 1,19,-1
 518 1594 l 1,16,-1
EndSplineSet
Validated: 1
EndChar

StartChar: AE
Encoding: 119 198 122
Width: 1267
GlyphClass: 2
Flags: W
HStem: 0 203<821 1231> 307 203<385 618> 614 203<821 1128> 1229 203<821 1231>
VStem: 618 203<203 305 510 614 817 1126>
LayerCount: 2
Fore
SplineSet
4 0 m 1,0,-1
 516 1432 l 1,1,-1
 1231 1432 l 1,2,-1
 1231 1229 l 1,3,-1
 821 1229 l 1,4,-1
 821 817 l 1,5,-1
 1128 817 l 1,6,-1
 1128 614 l 1,7,-1
 821 614 l 1,8,-1
 821 203 l 1,9,-1
 1231 203 l 1,10,-1
 1231 0 l 1,11,-1
 618 0 l 1,12,-1
 618 305 l 1,13,-1
 309 307 l 1,14,-1
 207 0 l 1,15,-1
 4 0 l 1,0,-1
385 510 m 1,16,-1
 618 510 l 1,17,-1
 618 1126 l 1,18,-1
 590 1126 l 1,19,-1
 385 510 l 1,16,-1
EndSplineSet
Validated: 1
EndChar

StartChar: Egrave
Encoding: 121 200 124
Width: 749
GlyphClass: 2
Flags: W
HStem: 0 205<303 713> 614 205<303 610> 1229 205<303 713>
VStem: 98 615<0 205 1229 1434> 98 205<205 614 819 1229>
LayerCount: 2
Fore
SplineSet
98 0 m 1,0,-1
 98 1434 l 1,1,-1
 713 1434 l 1,2,-1
 713 1229 l 1,3,-1
 303 1229 l 1,4,-1
 303 819 l 1,5,-1
 610 819 l 1,6,-1
 610 614 l 1,7,-1
 303 614 l 1,8,-1
 303 205 l 1,9,-1
 713 205 l 1,10,-1
 713 0 l 1,11,-1
 98 0 l 1,0,-1
152 1832 m 1,12,-1
 346 1832 l 1,13,-1
 516 1594 l 1,14,-1
 355 1594 l 1,15,-1
 152 1832 l 1,12,-1
EndSplineSet
Validated: 1
EndChar

StartChar: Eacute
Encoding: 122 201 125
Width: 749
GlyphClass: 2
Flags: W
HStem: 0 205<303 713> 614 205<303 610> 1229 205<303 713>
VStem: 98 615<0 205 1229 1434> 98 205<205 614 819 1229>
LayerCount: 2
Fore
SplineSet
98 0 m 1,0,-1
 98 1434 l 1,1,-1
 713 1434 l 1,2,-1
 713 1229 l 1,3,-1
 303 1229 l 1,4,-1
 303 819 l 1,5,-1
 610 819 l 1,6,-1
 610 614 l 1,7,-1
 303 614 l 1,8,-1
 303 205 l 1,9,-1
 713 205 l 1,10,-1
 713 0 l 1,11,-1
 98 0 l 1,0,-1
297 1595 m 1,12,-1
 458 1595 l 1,13,-1
 662 1833 l 1,14,-1
 467 1833 l 1,15,-1
 297 1595 l 1,12,-1
EndSplineSet
Validated: 9
EndChar

StartChar: Ecircumflex
Encoding: 123 202 126
Width: 749
GlyphClass: 2
Flags: W
HStem: 0 205<303 713> 614 205<303 610> 1229 205<303 713>
VStem: 98 615<0 205 1229 1434> 98 205<205 614 819 1229>
LayerCount: 2
Fore
SplineSet
98 0 m 1,0,-1
 98 1434 l 1,1,-1
 713 1434 l 1,2,-1
 713 1229 l 1,3,-1
 303 1229 l 1,4,-1
 303 819 l 1,5,-1
 610 819 l 1,6,-1
 610 614 l 1,7,-1
 303 614 l 1,8,-1
 303 205 l 1,9,-1
 713 205 l 1,10,-1
 713 0 l 1,11,-1
 98 0 l 1,0,-1
114 1593 m 1,12,-1
 335 1814 l 1,13,-1
 461 1814 l 1,14,-1
 681 1593 l 1,15,-1
 468 1593 l 1,16,-1
 398 1663 l 1,17,-1
 328 1593 l 1,18,-1
 114 1593 l 1,12,-1
EndSplineSet
Validated: 1
EndChar

StartChar: Edieresis
Encoding: 124 203 127
Width: 749
GlyphClass: 2
Flags: W
HStem: 0 205<303 713> 614 205<303 610> 1229 205<303 713> 1593 203<107 309 516 719>
VStem: 98 205<205 614 819 1229 1593 1796> 516 203<1593 1796>
LayerCount: 2
Fore
SplineSet
98 0 m 1,0,-1
 98 1434 l 1,1,-1
 713 1434 l 1,2,-1
 713 1229 l 1,3,-1
 303 1229 l 1,4,-1
 303 819 l 1,5,-1
 610 819 l 1,6,-1
 610 614 l 1,7,-1
 303 614 l 1,8,-1
 303 205 l 1,9,-1
 713 205 l 1,10,-1
 713 0 l 1,11,-1
 98 0 l 1,0,-1
107 1593 m 1,12,-1
 107 1796 l 1,13,-1
 309 1796 l 1,14,-1
 309 1593 l 1,15,-1
 107 1593 l 1,12,-1
516 1593 m 1,16,-1
 516 1796 l 1,17,-1
 719 1796 l 1,18,-1
 719 1593 l 1,19,-1
 516 1593 l 1,16,-1
EndSplineSet
Validated: 1
EndChar

StartChar: Igrave
Encoding: 125 204 128
Width: 413
GlyphClass: 2
Flags: W
HStem: 0 21G<104 309> 1414 20G<104 309>
VStem: 104 205<0 1434>
LayerCount: 2
Fore
SplineSet
-49 1834 m 1,0,-1
 145 1834 l 1,1,-1
 315 1596 l 1,2,-1
 154 1596 l 1,3,-1
 -49 1834 l 1,0,-1
104 0 m 1,4,-1
 104 1434 l 1,5,-1
 309 1434 l 1,6,-1
 309 0 l 1,7,-1
 104 0 l 1,4,-1
EndSplineSet
Validated: 1
EndChar

StartChar: Iacute
Encoding: 126 205 129
Width: 413
GlyphClass: 2
Flags: W
HStem: 0 21G<104 309> 1414 20G<104 309>
VStem: 104 205<0 1434>
LayerCount: 2
Fore
SplineSet
100 1593 m 1,0,-1
 261 1593 l 1,1,-1
 465 1831 l 1,2,-1
 270 1831 l 1,3,-1
 100 1593 l 1,0,-1
104 0 m 1,4,-1
 104 1434 l 1,5,-1
 309 1434 l 1,6,-1
 309 0 l 1,7,-1
 104 0 l 1,4,-1
EndSplineSet
Validated: 9
EndChar

StartChar: Icircumflex
Encoding: 127 206 130
Width: 401
GlyphClass: 2
Flags: W
HStem: 0 21G<98 303> 1414 20G<98 303>
VStem: 98 205<0 1434>
LayerCount: 2
Fore
SplineSet
-73 1592 m 1,0,-1
 148 1813 l 1,1,-1
 274 1813 l 1,2,-1
 494 1592 l 1,3,-1
 281 1592 l 1,4,-1
 211 1662 l 1,5,-1
 141 1592 l 1,6,-1
 -73 1592 l 1,0,-1
98 0 m 1,7,-1
 98 1434 l 1,8,-1
 303 1434 l 1,9,-1
 303 0 l 1,10,-1
 98 0 l 1,7,-1
EndSplineSet
Validated: 1
EndChar

StartChar: Idieresis
Encoding: 128 207 131
Width: 479
GlyphClass: 2
Flags: W
HStem: 0 21G<137 342> 1414 20G<137 342> 1593 203<-64 138 345 548>
VStem: -64 202<1593 1796> 137 205<0 1434> 345 203<1593 1796>
LayerCount: 2
Fore
SplineSet
-64 1593 m 1,0,-1
 -64 1796 l 1,1,-1
 138 1796 l 1,2,-1
 138 1593 l 1,3,-1
 -64 1593 l 1,0,-1
137 0 m 1,4,-1
 137 1434 l 1,5,-1
 342 1434 l 1,6,-1
 342 0 l 1,7,-1
 137 0 l 1,4,-1
345 1593 m 1,8,-1
 345 1796 l 1,9,-1
 548 1796 l 1,10,-1
 548 1593 l 1,11,-1
 345 1593 l 1,8,-1
EndSplineSet
Validated: 1
EndChar

StartChar: Eth
Encoding: 129 208 132
Width: 808
GlyphClass: 2
Flags: W
HStem: 0 203<301 484.794> 857 163<-80 98 301 412> 1231 203<301 484.794>
VStem: 98 203<203 857 1020 1231> 508 203<226.206 1207.79>
LayerCount: 2
Fore
SplineSet
-80 857 m 1,0,-1
 -80 1020 l 1,1,-1
 98 1020 l 1,2,-1
 98 1434 l 1,3,-1
 508 1434 l 2,4,5
 592 1434 592 1434 651.5 1374.5 c 128,-1,6
 711 1315 711 1315 711 1229 c 2,7,-1
 711 203 l 2,8,9
 711 119 711 119 651.5 59.5 c 128,-1,10
 592 0 592 0 508 0 c 2,11,-1
 98 0 l 1,12,-1
 98 857 l 1,13,-1
 -80 857 l 1,0,-1
301 203 m 1,14,-1
 430 203 l 2,15,16
 463 203 463 203 485.5 225.5 c 128,-1,17
 508 248 508 248 508 281 c 2,18,-1
 508 1153 l 2,19,20
 508 1186 508 1186 485.5 1208.5 c 128,-1,21
 463 1231 463 1231 430 1231 c 2,22,-1
 301 1231 l 1,23,-1
 301 1020 l 1,24,-1
 412 1020 l 1,25,-1
 412 857 l 1,26,-1
 301 857 l 1,27,-1
 301 203 l 1,14,-1
EndSplineSet
Validated: 1
EndChar

StartChar: Ntilde
Encoding: 130 209 133
Width: 794
GlyphClass: 2
Flags: W
HStem: 0 21G<90 295 494.282 705> 1414 20G<90 300.718 500 705> 1574 150<381.556 543.477> 1623 153<241.363 428.054>
VStem: 90 205<0 717 1383.86 1434> 500 205<0 50.141 717 1434>
LayerCount: 2
Fore
SplineSet
90 0 m 1,0,-1
 90 1434 l 1,1,-1
 295 1434 l 1,2,-1
 500 717 l 1,3,-1
 500 1434 l 1,4,-1
 705 1434 l 1,5,-1
 705 0 l 1,6,-1
 500 0 l 1,7,-1
 295 717 l 1,8,-1
 295 0 l 1,9,-1
 90 0 l 1,0,-1
132 1594 m 1,10,11
 134 1644 134 1644 162 1689.5 c 128,-1,12
 190 1735 190 1735 234.5 1755.5 c 128,-1,13
 279 1776 279 1776 306 1776 c 128,-1,14
 333 1776 333 1776 366.043478261 1771.86956522 c 128,-1,15
 399.086956522 1767.73913043 399.086956522 1767.73913043 425.543478261 1745.86956522 c 128,-1,16
 452 1724 452 1724 464 1724 c 0,17,18
 492.714285714 1724 492.714285714 1724 501 1753 c 1,19,-1
 654 1753 l 1,20,21
 652.042440318 1704.06100796 652.042440318 1704.06100796 618.521220159 1656.03050398 c 0,22,23
 561.270882231 1574 561.270882231 1574 477.235441116 1574 c 128,-1,24
 393.2 1574 393.2 1574 344 1615 c 0,25,26
 334 1623 334 1623 322 1623 c 0,27,28
 290.117647059 1623 290.117647059 1623 285 1594 c 1,29,-1
 132 1594 l 1,10,11
EndSplineSet
Validated: 1
EndChar

StartChar: Ograve
Encoding: 131 210 134
Width: 786
GlyphClass: 2
Flags: W
HStem: 0 205<315.742 470.5> 1229 205<315.742 470.5>
VStem: 86 205<235.425 1198.06> 496 204<235.425 1198.06>
LayerCount: 2
Fore
SplineSet
86 307 m 2,0,-1
 86 1126 l 2,1,2
 86 1253 86 1253 176 1343.5 c 128,-1,3
 266 1434 266 1434 393 1434 c 128,-1,4
 520 1434 520 1434 610 1343.5 c 128,-1,5
 700 1253 700 1253 700 1126 c 2,6,-1
 700 307 l 2,7,8
 700 180 700 180 610 90 c 128,-1,9
 520 0 520 0 393 0 c 128,-1,10
 266 0 266 0 176 90 c 128,-1,11
 86 180 86 180 86 307 c 2,0,-1
129 1832 m 1,12,-1
 323 1832 l 1,13,-1
 493 1594 l 1,14,-1
 332 1594 l 1,15,-1
 129 1832 l 1,12,-1
291 307 m 2,16,17
 291 264 291 264 320.5 234.5 c 128,-1,18
 350 205 350 205 393 205 c 128,-1,19
 436 205 436 205 466 234.5 c 128,-1,20
 496 264 496 264 496 307 c 2,21,-1
 496 1126 l 2,22,23
 496 1169 496 1169 466 1199 c 128,-1,24
 436 1229 436 1229 393 1229 c 128,-1,25
 350 1229 350 1229 320.5 1199 c 128,-1,26
 291 1169 291 1169 291 1126 c 2,27,-1
 291 307 l 2,16,17
EndSplineSet
Validated: 1
EndChar

StartChar: Oacute
Encoding: 132 211 135
Width: 786
GlyphClass: 2
Flags: W
HStem: 0 205<315.742 470.5> 1229 205<315.742 470.5>
VStem: 86 205<235.425 1198.06> 496 204<235.425 1198.06>
LayerCount: 2
Fore
SplineSet
86 307 m 2,0,-1
 86 1126 l 2,1,2
 86 1253 86 1253 176 1343.5 c 128,-1,3
 266 1434 266 1434 393 1434 c 128,-1,4
 520 1434 520 1434 610 1343.5 c 128,-1,5
 700 1253 700 1253 700 1126 c 2,6,-1
 700 307 l 2,7,8
 700 180 700 180 610 90 c 128,-1,9
 520 0 520 0 393 0 c 128,-1,10
 266 0 266 0 176 90 c 128,-1,11
 86 180 86 180 86 307 c 2,0,-1
284 1594 m 1,12,-1
 445 1594 l 1,13,-1
 649 1832 l 1,14,-1
 454 1832 l 1,15,-1
 284 1594 l 1,12,-1
291 307 m 2,16,17
 291 264 291 264 320.5 234.5 c 128,-1,18
 350 205 350 205 393 205 c 128,-1,19
 436 205 436 205 466 234.5 c 128,-1,20
 496 264 496 264 496 307 c 2,21,-1
 496 1126 l 2,22,23
 496 1169 496 1169 466 1199 c 128,-1,24
 436 1229 436 1229 393 1229 c 128,-1,25
 350 1229 350 1229 320.5 1199 c 128,-1,26
 291 1169 291 1169 291 1126 c 2,27,-1
 291 307 l 2,16,17
EndSplineSet
Validated: 9
EndChar

StartChar: Ocircumflex
Encoding: 133 212 136
Width: 786
GlyphClass: 2
Flags: W
HStem: 0 205<315.742 470.5> 1229 205<315.742 470.5>
VStem: 86 205<235.425 1198.06> 496 204<235.425 1198.06>
LayerCount: 2
Fore
SplineSet
86 307 m 2,0,-1
 86 1126 l 2,1,2
 86 1253 86 1253 176 1343.5 c 128,-1,3
 266 1434 266 1434 393 1434 c 128,-1,4
 520 1434 520 1434 610 1343.5 c 128,-1,5
 700 1253 700 1253 700 1126 c 2,6,-1
 700 307 l 2,7,8
 700 180 700 180 610 90 c 128,-1,9
 520 0 520 0 393 0 c 128,-1,10
 266 0 266 0 176 90 c 128,-1,11
 86 180 86 180 86 307 c 2,0,-1
123 1593 m 1,12,-1
 344 1814 l 1,13,-1
 470 1814 l 1,14,-1
 690 1593 l 1,15,-1
 477 1593 l 1,16,-1
 407 1663 l 1,17,-1
 337 1593 l 1,18,-1
 123 1593 l 1,12,-1
291 307 m 2,19,20
 291 264 291 264 320.5 234.5 c 128,-1,21
 350 205 350 205 393 205 c 128,-1,22
 436 205 436 205 466 234.5 c 128,-1,23
 496 264 496 264 496 307 c 2,24,-1
 496 1126 l 2,25,26
 496 1169 496 1169 466 1199 c 128,-1,27
 436 1229 436 1229 393 1229 c 128,-1,28
 350 1229 350 1229 320.5 1199 c 128,-1,29
 291 1169 291 1169 291 1126 c 2,30,-1
 291 307 l 2,19,20
EndSplineSet
Validated: 1
EndChar

StartChar: Otilde
Encoding: 134 213 137
Width: 786
GlyphClass: 2
Flags: W
HStem: 0 205<315.742 470.5> 1229 205<315.742 470.5> 1576 150<339.347 500.902> 1625 153<199.312 385.33>
VStem: 86 205<235.425 1198.06> 496 204<235.425 1198.06>
LayerCount: 2
Fore
SplineSet
86 307 m 2,0,-1
 86 1126 l 2,1,2
 86 1253 86 1253 176 1343.5 c 128,-1,3
 266 1434 266 1434 393 1434 c 128,-1,4
 520 1434 520 1434 610 1343.5 c 128,-1,5
 700 1253 700 1253 700 1126 c 2,6,-1
 700 307 l 2,7,8
 700 180 700 180 610 90 c 128,-1,9
 520 0 520 0 393 0 c 128,-1,10
 266 0 266 0 176 90 c 128,-1,11
 86 180 86 180 86 307 c 2,0,-1
89 1596 m 1,12,13
 91 1646 91 1646 119.5 1691.5 c 128,-1,14
 148 1737 148 1737 192.5 1757.5 c 128,-1,15
 237 1778 237 1778 264 1778 c 128,-1,16
 291 1778 291 1778 324.170731707 1773.85365854 c 128,-1,17
 357.341463415 1769.70731707 357.341463415 1769.70731707 383.670731707 1747.85365854 c 128,-1,18
 410 1726 410 1726 420 1726 c 0,19,20
 453.857142857 1726 453.857142857 1726 458 1755 c 1,21,-1
 611 1755 l 1,22,23
 609 1705 609 1705 576 1657.5 c 0,24,25
 519.378947368 1576 519.378947368 1576 434.703759398 1576 c 128,-1,26
 350.028571429 1576 350.028571429 1576 302 1617 c 0,27,28
 291 1625 291 1625 279 1625 c 0,29,30
 248.117647059 1625 248.117647059 1625 243 1596 c 1,31,-1
 89 1596 l 1,12,13
291 307 m 2,32,33
 291 264 291 264 320.5 234.5 c 128,-1,34
 350 205 350 205 393 205 c 128,-1,35
 436 205 436 205 466 234.5 c 128,-1,36
 496 264 496 264 496 307 c 2,37,-1
 496 1126 l 2,38,39
 496 1169 496 1169 466 1199 c 128,-1,40
 436 1229 436 1229 393 1229 c 128,-1,41
 350 1229 350 1229 320.5 1199 c 128,-1,42
 291 1169 291 1169 291 1126 c 2,43,-1
 291 307 l 2,32,33
EndSplineSet
Validated: 1
EndChar

StartChar: multiply
Encoding: 136 215 139
Width: 917
GlyphClass: 2
Flags: W
LayerCount: 2
Fore
SplineSet
95 532 m 1,0,-1
 313 749 l 1,1,-1
 95 967 l 1,2,-1
 241 1112 l 1,3,-1
 458 895 l 1,4,-1
 676 1112 l 1,5,-1
 821 967 l 1,6,-1
 604 749 l 1,7,-1
 821 532 l 1,8,-1
 676 387 l 1,9,-1
 458 604 l 1,10,-1
 241 387 l 1,11,-1
 95 532 l 1,0,-1
EndSplineSet
Validated: 1
EndChar

StartChar: Oslash
Encoding: 137 216 140
Width: 786
GlyphClass: 2
Flags: W
HStem: 0 205<315.742 470.5> 1229 205<315.742 470.5>
VStem: 86 205<723 1198.06> 496 204<235.425 722>
LayerCount: 2
Fore
SplineSet
-122 122 m 1,0,-1
 86 425 l 1,1,-1
 86 1126 l 2,2,3
 86 1253 86 1253 176 1343.5 c 128,-1,4
 266 1434 266 1434 393 1434 c 128,-1,5
 520 1434 520 1434 610 1344 c 0,6,7
 644 1309 644 1309 666 1269 c 1,8,-1
 786 1444 l 1,9,-1
 908 1322 l 1,10,-1
 700 1019 l 1,11,-1
 700 307 l 2,12,13
 700 180 700 180 610 90 c 128,-1,14
 520 0 520 0 393 0 c 128,-1,15
 266 0 266 0 176 90 c 0,16,17
 139 127 139 127 117 170 c 1,18,-1
 0 0 l 1,19,-1
 -122 122 l 1,0,-1
291 307 m 2,20,21
 291 264 291 264 320.5 234.5 c 128,-1,22
 350 205 350 205 393 205 c 128,-1,23
 436 205 436 205 466 234.5 c 128,-1,24
 496 264 496 264 496 307 c 2,25,-1
 496 722 l 1,26,-1
 291 424 l 1,27,-1
 291 307 l 2,20,21
291 723 m 1,28,-1
 496 1022 l 1,29,-1
 496 1126 l 2,30,31
 496 1169 496 1169 466 1199 c 128,-1,32
 436 1229 436 1229 393 1229 c 128,-1,33
 350 1229 350 1229 320.5 1199 c 128,-1,34
 291 1169 291 1169 291 1126 c 2,35,-1
 291 723 l 1,28,-1
EndSplineSet
Validated: 1
EndChar

StartChar: Ugrave
Encoding: 138 217 141
Width: 811
GlyphClass: 2
Flags: W
HStem: 0 205<328.105 482.895> 1414 20G<98 303 508 713>
VStem: 98 205<235.425 1434> 508 205<235.425 1434>
LayerCount: 2
Fore
SplineSet
98 307 m 2,0,-1
 98 1434 l 1,1,-1
 303 1434 l 1,2,-1
 303 307 l 2,3,4
 303 264 303 264 332.5 234.5 c 128,-1,5
 362 205 362 205 405.5 205 c 128,-1,6
 449 205 449 205 478.5 234.5 c 128,-1,7
 508 264 508 264 508 307 c 2,8,-1
 508 1434 l 1,9,-1
 713 1434 l 1,10,-1
 713 307 l 2,11,12
 713 180 713 180 622.5 90 c 128,-1,13
 532 0 532 0 405.5 0 c 128,-1,14
 279 0 279 0 188.5 90 c 128,-1,15
 98 180 98 180 98 307 c 2,0,-1
152 1830 m 1,16,-1
 346 1830 l 1,17,-1
 516 1592 l 1,18,-1
 355 1592 l 1,19,-1
 152 1830 l 1,16,-1
EndSplineSet
Validated: 1
EndChar

StartChar: Uacute
Encoding: 139 218 142
Width: 811
GlyphClass: 2
Flags: W
HStem: 0 205<328.105 482.895> 1414 20G<98 303 508 713>
VStem: 98 205<235.425 1434> 508 205<235.425 1434>
LayerCount: 2
Fore
SplineSet
98 307 m 2,0,-1
 98 1434 l 1,1,-1
 303 1434 l 1,2,-1
 303 307 l 2,3,4
 303 264 303 264 332.5 234.5 c 128,-1,5
 362 205 362 205 405.5 205 c 128,-1,6
 449 205 449 205 478.5 234.5 c 128,-1,7
 508 264 508 264 508 307 c 2,8,-1
 508 1434 l 1,9,-1
 713 1434 l 1,10,-1
 713 307 l 2,11,12
 713 180 713 180 622.5 90 c 128,-1,13
 532 0 532 0 405.5 0 c 128,-1,14
 279 0 279 0 188.5 90 c 128,-1,15
 98 180 98 180 98 307 c 2,0,-1
303 1595 m 1,16,-1
 464 1595 l 1,17,-1
 668 1833 l 1,18,-1
 473 1833 l 1,19,-1
 303 1595 l 1,16,-1
EndSplineSet
Validated: 9
EndChar

StartChar: Ucircumflex
Encoding: 140 219 143
Width: 811
GlyphClass: 2
Flags: W
HStem: 0 205<328.105 482.895> 1414 20G<98 303 508 713>
VStem: 98 205<235.425 1434> 508 205<235.425 1434>
LayerCount: 2
Fore
SplineSet
98 307 m 2,0,-1
 98 1434 l 1,1,-1
 303 1434 l 1,2,-1
 303 307 l 2,3,4
 303 264 303 264 332.5 234.5 c 128,-1,5
 362 205 362 205 405.5 205 c 128,-1,6
 449 205 449 205 478.5 234.5 c 128,-1,7
 508 264 508 264 508 307 c 2,8,-1
 508 1434 l 1,9,-1
 713 1434 l 1,10,-1
 713 307 l 2,11,12
 713 180 713 180 622.5 90 c 128,-1,13
 532 0 532 0 405.5 0 c 128,-1,14
 279 0 279 0 188.5 90 c 128,-1,15
 98 180 98 180 98 307 c 2,0,-1
131 1591 m 1,16,-1
 352 1812 l 1,17,-1
 478 1812 l 1,18,-1
 698 1591 l 1,19,-1
 485 1591 l 1,20,-1
 415 1661 l 1,21,-1
 345 1591 l 1,22,-1
 131 1591 l 1,16,-1
EndSplineSet
Validated: 1
EndChar

StartChar: Udieresis
Encoding: 141 220 144
Width: 811
GlyphClass: 2
Flags: W
HStem: 0 205<328.105 482.895> 1414 20G<98 303 508 713> 1593 203<102 304 511 714>
VStem: 98 205<235.425 1434 1593 1796> 508 205<235.425 1434 1593 1796>
LayerCount: 2
Fore
SplineSet
98 307 m 2,0,-1
 98 1434 l 1,1,-1
 303 1434 l 1,2,-1
 303 307 l 2,3,4
 303 264 303 264 332.5 234.5 c 128,-1,5
 362 205 362 205 405.5 205 c 128,-1,6
 449 205 449 205 478.5 234.5 c 128,-1,7
 508 264 508 264 508 307 c 2,8,-1
 508 1434 l 1,9,-1
 713 1434 l 1,10,-1
 713 307 l 2,11,12
 713 180 713 180 622.5 90 c 128,-1,13
 532 0 532 0 405.5 0 c 128,-1,14
 279 0 279 0 188.5 90 c 128,-1,15
 98 180 98 180 98 307 c 2,0,-1
102 1593 m 1,16,-1
 102 1796 l 1,17,-1
 304 1796 l 1,18,-1
 304 1593 l 1,19,-1
 102 1593 l 1,16,-1
511 1593 m 1,20,-1
 511 1796 l 1,21,-1
 714 1796 l 1,22,-1
 714 1593 l 1,23,-1
 511 1593 l 1,20,-1
EndSplineSet
Validated: 1
EndChar

StartChar: Thorn
Encoding: 143 222 146
Width: 890
GlyphClass: 2
Flags: W
HStem: 0 21G<152 357> 321 203<357 539.794> 936 203<357 539.794> 1414 20G<152 357>
VStem: 152 205<0 321 524 936 1139 1434> 563 203<547.206 912.794>
LayerCount: 2
Fore
SplineSet
152 0 m 1,0,-1
 152 1434 l 1,1,-1
 357 1434 l 1,2,-1
 357 1139 l 1,3,-1
 563 1139 l 2,4,5
 647 1139 647 1139 706.5 1079.5 c 128,-1,6
 766 1020 766 1020 766 934 c 2,7,-1
 766 524 l 2,8,9
 766 440 766 440 706.5 380.5 c 128,-1,10
 647 321 647 321 563 321 c 2,11,-1
 357 321 l 1,12,-1
 357 0 l 1,13,-1
 152 0 l 1,0,-1
357 524 m 1,14,-1
 485 524 l 2,15,16
 518 524 518 524 540.5 546.5 c 128,-1,17
 563 569 563 569 563 602 c 2,18,-1
 563 858 l 2,19,20
 563 891 563 891 540.5 913.5 c 128,-1,21
 518 936 518 936 485 936 c 2,22,-1
 357 936 l 1,23,-1
 357 524 l 1,14,-1
EndSplineSet
Validated: 1
EndChar

StartChar: germandbls
Encoding: 144 223 147
Width: 804
GlyphClass: 2
Flags: W
HStem: 2 203<446 629.794> 616 203<309 509.672> 1231 203<309 492.794>
VStem: 104 205<0 616 819 1231> 516 203<826.223 1207.79> 653 203<228.206 593.794>
LayerCount: 2
Fore
SplineSet
104 0 m 1,0,-1
 104 1434 l 1,1,-1
 516 1434 l 2,2,3
 600 1434 600 1434 659.5 1374.5 c 128,-1,4
 719 1315 719 1315 719 1229 c 2,5,-1
 719 810 l 1,6,7
 762 795 762 795 796 760 c 0,8,9
 856 701 856 701 856 615 c 2,10,-1
 856 205 l 2,11,12
 856 121 856 121 796.5 61.5 c 128,-1,13
 737 2 737 2 653 2 c 2,14,-1
 446 2 l 1,15,-1
 446 205 l 1,16,-1
 575 205 l 2,17,18
 608 205 608 205 630.5 227.5 c 128,-1,19
 653 250 653 250 653 283 c 2,20,-1
 653 539 l 2,21,22
 653 572 653 572 630.5 594.5 c 128,-1,23
 608 617 608 617 575 617 c 2,24,-1
 537 617 l 1,25,26
 527 616 527 616 516 616 c 2,27,-1
 309 616 l 1,28,-1
 309 0 l 1,29,-1
 104 0 l 1,0,-1
309 819 m 1,30,31
 377.5 819 377.5 819 446 819 c 1,32,-1
 446 820 l 1,33,-1
 451 820 l 1,34,35
 476 824 476 824 496 844 c 128,-1,36
 516 864 516 864 516 897 c 2,37,-1
 516 1153 l 2,38,39
 516 1186 516 1186 493.5 1208.5 c 128,-1,40
 471 1231 471 1231 438 1231 c 2,41,-1
 309 1231 l 1,42,-1
 309 819 l 1,30,31
EndSplineSet
Validated: 1
EndChar

StartChar: agrave
Encoding: 145 224 148
Width: 733
GlyphClass: 2
Flags: W
HStem: 0 205<253.83 389.784> 410 204<286.427 430.059> 819 205<280.742 435.529>
VStem: 51 205<220.416 379.057 717 788.575> 461 205<281 428 644.941 788.575>
CounterMasks: 1 e0
LayerCount: 2
Fore
SplineSet
51 205 m 1,0,-1
 51 307 l 2,1,2
 51 434 51 434 141 524 c 128,-1,3
 231 614 231 614 358 614 c 0,4,5
 401 614 401 614 431 644 c 128,-1,6
 461 674 461 674 461 717 c 128,-1,7
 461 760 461 760 431 789.5 c 128,-1,8
 401 819 401 819 358 819 c 128,-1,9
 315 819 315 819 285.5 789.5 c 128,-1,10
 256 760 256 760 256 717 c 1,11,-1
 51 717 l 1,12,13
 51 844 51 844 141 934 c 128,-1,14
 231 1024 231 1024 358 1024 c 128,-1,15
 485 1024 485 1024 575.5 934 c 128,-1,16
 666 844 666 844 666 717 c 2,17,-1
 666 0 l 1,18,-1
 459 0 l 1,19,-1
 460 182 l 2,20,21
 460 171 460 171 448 134.5 c 128,-1,22
 436 98 436 98 416.5 71.5 c 128,-1,23
 397 45 397 45 355 22.5 c 128,-1,24
 313 0 313 0 256 0 c 128,-1,25
 199 0 199 0 157 21.5 c 128,-1,26
 115 43 115 43 95.5 72.5 c 0,27,28
 53 136.794871795 53 136.794871795 53 184 c 1,29,-1
 51 205 l 1,0,-1
98 1410 m 1,30,-1
 293 1410 l 1,31,-1
 463 1174 l 1,32,-1
 302 1174 l 1,33,-1
 98 1410 l 1,30,-1
256 296.619047619 m 128,-1,35
 256 243.238095238 256 243.238095238 308 216 c 0,36,37
 329 205 329 205 366 205 c 128,-1,38
 403 205 403 205 429 230.5 c 128,-1,39
 455 256 455 256 459 281 c 1,40,-1
 461 307 l 1,41,-1
 461 428 l 1,42,43
 412 410 412 410 363.5 410 c 128,-1,44
 315 410 315 410 285.5 380 c 128,-1,34
 256 350 256 350 256 296.619047619 c 128,-1,35
EndSplineSet
Validated: 5
EndChar

StartChar: aacute
Encoding: 146 225 149
Width: 733
GlyphClass: 2
Flags: W
HStem: 0 205<253.83 389.784> 410 204<286.427 430.059> 819 205<280.742 435.529>
VStem: 51 205<220.416 379.057 717 788.575> 461 205<281 428 644.941 788.575>
CounterMasks: 1 e0
LayerCount: 2
Fore
SplineSet
51 205 m 1,0,-1
 51 307 l 2,1,2
 51 434 51 434 141 524 c 128,-1,3
 231 614 231 614 358 614 c 0,4,5
 401 614 401 614 431 644 c 128,-1,6
 461 674 461 674 461 717 c 128,-1,7
 461 760 461 760 431 789.5 c 128,-1,8
 401 819 401 819 358 819 c 128,-1,9
 315 819 315 819 285.5 789.5 c 128,-1,10
 256 760 256 760 256 717 c 1,11,-1
 51 717 l 1,12,13
 51 844 51 844 141 934 c 128,-1,14
 231 1024 231 1024 358 1024 c 128,-1,15
 485 1024 485 1024 575.5 934 c 128,-1,16
 666 844 666 844 666 717 c 2,17,-1
 666 0 l 1,18,-1
 459 0 l 1,19,-1
 460 182 l 2,20,21
 460 171 460 171 448 134.5 c 128,-1,22
 436 98 436 98 416.5 71.5 c 128,-1,23
 397 45 397 45 355 22.5 c 128,-1,24
 313 0 313 0 256 0 c 128,-1,25
 199 0 199 0 157 21.5 c 128,-1,26
 115 43 115 43 95.5 72.5 c 0,27,28
 53 136.794871795 53 136.794871795 53 184 c 1,29,-1
 51 205 l 1,0,-1
256 296.619047619 m 128,-1,31
 256 243.238095238 256 243.238095238 308 216 c 0,32,33
 329 205 329 205 366 205 c 128,-1,34
 403 205 403 205 429 230.5 c 128,-1,35
 455 256 455 256 459 281 c 1,36,-1
 461 307 l 1,37,-1
 461 428 l 1,38,39
 412 410 412 410 363.5 410 c 128,-1,40
 315 410 315 410 285.5 380 c 128,-1,30
 256 350 256 350 256 296.619047619 c 128,-1,31
269 1174 m 1,41,-1
 430 1174 l 1,42,-1
 634 1410 l 1,43,-1
 439 1410 l 1,44,-1
 269 1174 l 1,41,-1
EndSplineSet
Validated: 5
EndChar

StartChar: adieresis
Encoding: 149 228 152
Width: 733
GlyphClass: 2
Flags: W
HStem: 0 205<253.83 389.784> 410 204<286.427 430.059> 819 205<280.742 435.529> 1174 203<57 259 466 669>
VStem: 51 205<220.416 379.057 717 788.575 1174 1377> 461 205<281 428 644.941 788.575 1174 1377>
LayerCount: 2
Fore
SplineSet
51 205 m 1,0,-1
 51 307 l 2,1,2
 51 434 51 434 141 524 c 128,-1,3
 231 614 231 614 358 614 c 0,4,5
 401 614 401 614 431 644 c 128,-1,6
 461 674 461 674 461 717 c 128,-1,7
 461 760 461 760 431 789.5 c 128,-1,8
 401 819 401 819 358 819 c 128,-1,9
 315 819 315 819 285.5 789.5 c 128,-1,10
 256 760 256 760 256 717 c 1,11,-1
 51 717 l 1,12,13
 51 844 51 844 141 934 c 128,-1,14
 231 1024 231 1024 358 1024 c 128,-1,15
 485 1024 485 1024 575.5 934 c 128,-1,16
 666 844 666 844 666 717 c 2,17,-1
 666 0 l 1,18,-1
 459 0 l 1,19,-1
 460 182 l 2,20,21
 460 171 460 171 448 134.5 c 128,-1,22
 436 98 436 98 416.5 71.5 c 128,-1,23
 397 45 397 45 355 22.5 c 128,-1,24
 313 0 313 0 256 0 c 128,-1,25
 199 0 199 0 157 21.5 c 128,-1,26
 115 43 115 43 95.5 72.5 c 0,27,28
 53 136.794871795 53 136.794871795 53 184 c 1,29,-1
 51 205 l 1,0,-1
57 1174 m 1,30,-1
 57 1377 l 1,31,-1
 259 1377 l 1,32,-1
 259 1174 l 1,33,-1
 57 1174 l 1,30,-1
256 296.619047619 m 128,-1,35
 256 243.238095238 256 243.238095238 308 216 c 0,36,37
 329 205 329 205 366 205 c 128,-1,38
 403 205 403 205 429 230.5 c 128,-1,39
 455 256 455 256 459 281 c 1,40,-1
 461 307 l 1,41,-1
 461 428 l 1,42,43
 412 410 412 410 363.5 410 c 128,-1,44
 315 410 315 410 285.5 380 c 128,-1,34
 256 350 256 350 256 296.619047619 c 128,-1,35
466 1174 m 1,45,-1
 466 1377 l 1,46,-1
 669 1377 l 1,47,-1
 669 1174 l 1,48,-1
 466 1174 l 1,45,-1
EndSplineSet
Validated: 5
EndChar

StartChar: ae
Encoding: 151 230 154
Width: 1146
GlyphClass: 2
Flags: W
HStem: 8 203<272.225 418.179 686.375 846.199> 416 202<286.426 446.725 672 874> 823 205<286.394 447.448 697.193 849.275>
VStem: 57 199<255.715 384.029 721 792.575> 461 209<226.306 416 631.752 746.594> 874 201<241.425 313 618 792.575>
LayerCount: 2
Fore
SplineSet
57 211 m 1,0,-1
 57 313 l 2,1,2
 57 440 57 440 147.5 529 c 128,-1,3
 238 618 238 618 365 618 c 0,4,5
 406 618 406 618 431 643.5 c 128,-1,6
 456 669 456 669 463 693 c 1,7,-1
 463 721 l 2,8,9
 463 734 463 734 464 747 c 1,10,11
 457 773 457 773 431.5 798 c 128,-1,12
 406 823 406 823 364 823 c 128,-1,13
 322 823 322 823 292 793.5 c 128,-1,14
 262 764 262 764 262 721 c 1,15,-1
 57 721 l 1,16,17
 57 848 57 848 147.5 938 c 128,-1,18
 238 1028 238 1028 360 1028 c 128,-1,19
 482 1028 482 1028 567 951 c 1,20,21
 653 1028 653 1028 775 1028 c 128,-1,22
 897 1028 897 1028 986 938 c 128,-1,23
 1075 848 1075 848 1075 721 c 2,24,-1
 1075 416 l 1,25,-1
 670 416 l 1,26,-1
 670 292 l 1,27,28
 676 262 676 262 701.5 236.5 c 128,-1,29
 727 211 727 211 769 211 c 128,-1,30
 811 211 811 211 840.5 240.5 c 128,-1,31
 870 270 870 270 870 313 c 1,32,-1
 1075 313 l 1,33,34
 1075 186 1075 186 986 96 c 128,-1,35
 897 6 897 6 770 6 c 128,-1,36
 643 6 643 6 553 96 c 0,37,38
 514 135 514 135 492 182 c 1,39,40
 483 167 483 167 474 136.5 c 128,-1,41
 465 106 465 106 445.5 79.5 c 128,-1,42
 426 53 426 53 384 30.5 c 128,-1,43
 342 8 342 8 284.5 8 c 128,-1,44
 227 8 227 8 174 28.5 c 128,-1,45
 121 49 121 49 101.5 79 c 0,46,47
 59 144.384615385 59 144.384615385 59 190 c 1,48,-1
 57 211 l 1,0,-1
256 302 m 2,49,50
 256 277.052631579 256 277.052631579 271.5 255.026315789 c 0,51,52
 302.481481481 211 302.481481481 211 358 211 c 0,53,54
 444 211 444 211 459 297 c 0,55,56
 461 307 461 307 461 313 c 2,57,-1
 461 432 l 1,58,59
 410 416 410 416 362.5 416 c 128,-1,60
 315 416 315 416 285.5 385 c 128,-1,61
 256 354 256 354 256 313 c 2,62,-1
 256 302 l 2,49,50
672 618 m 1,63,-1
 874 618 l 1,64,-1
 874 721 l 2,65,66
 874 764 874 764 844.5 793.5 c 128,-1,67
 815 823 815 823 773 823 c 128,-1,68
 731 823 731 823 701.5 793.5 c 128,-1,69
 672 764 672 764 672 721 c 2,70,-1
 672 618 l 1,63,-1
EndSplineSet
Validated: 1
EndChar

StartChar: eacute
Encoding: 154 233 157
Width: 749
GlyphClass: 2
Flags: W
HStem: 0 205<297.5 452.258> 410 204<272 477> 819 205<297.5 452.258>
VStem: 68 204<235.425 410 614 788.575> 477 205<235.425 307 614 788.575>
CounterMasks: 1 e0
LayerCount: 2
Fore
SplineSet
68 307 m 2,0,-1
 68 717 l 2,1,2
 68 844 68 844 158 934 c 128,-1,3
 248 1024 248 1024 375 1024 c 128,-1,4
 502 1024 502 1024 592 934 c 128,-1,5
 682 844 682 844 682 717 c 2,6,-1
 682 410 l 1,7,-1
 272 410 l 1,8,-1
 272 307 l 2,9,10
 272 264 272 264 302 234.5 c 128,-1,11
 332 205 332 205 375 205 c 128,-1,12
 418 205 418 205 447.5 234.5 c 128,-1,13
 477 264 477 264 477 307 c 1,14,-1
 682 307 l 1,15,16
 682 180 682 180 592 90 c 128,-1,17
 502 0 502 0 375 0 c 128,-1,18
 248 0 248 0 158 90 c 128,-1,19
 68 180 68 180 68 307 c 2,0,-1
272 614 m 1,20,-1
 477 614 l 1,21,-1
 477 717 l 2,22,23
 477 760 477 760 447.5 789.5 c 128,-1,24
 418 819 418 819 375 819 c 128,-1,25
 332 819 332 819 302 789.5 c 128,-1,26
 272 760 272 760 272 717 c 2,27,-1
 272 614 l 1,20,-1
275 1175 m 1,28,-1
 436 1175 l 1,29,-1
 640 1411 l 1,30,-1
 445 1411 l 1,31,-1
 275 1175 l 1,28,-1
EndSplineSet
Validated: 9
EndChar

StartChar: ecircumflex
Encoding: 155 234 158
Width: 749
GlyphClass: 2
Flags: W
HStem: 0 205<296.5 451.258> 410 204<271 476> 819 205<296.5 451.258>
VStem: 67 204<235.425 410 614 788.575> 476 205<235.425 307 614 788.575>
CounterMasks: 1 e0
LayerCount: 2
Fore
SplineSet
67 307 m 2,0,-1
 67 717 l 2,1,2
 67 844 67 844 157 934 c 128,-1,3
 247 1024 247 1024 374 1024 c 128,-1,4
 501 1024 501 1024 591 934 c 128,-1,5
 681 844 681 844 681 717 c 2,6,-1
 681 410 l 1,7,-1
 271 410 l 1,8,-1
 271 307 l 2,9,10
 271 264 271 264 301 234.5 c 128,-1,11
 331 205 331 205 374 205 c 128,-1,12
 417 205 417 205 446.5 234.5 c 128,-1,13
 476 264 476 264 476 307 c 1,14,-1
 681 307 l 1,15,16
 681 180 681 180 591 90 c 128,-1,17
 501 0 501 0 374 0 c 128,-1,18
 247 0 247 0 157 90 c 128,-1,19
 67 180 67 180 67 307 c 2,0,-1
77 1174 m 1,20,-1
 298 1395 l 1,21,-1
 424 1395 l 1,22,-1
 644 1174 l 1,23,-1
 431 1174 l 1,24,-1
 361 1244 l 1,25,-1
 291 1174 l 1,26,-1
 77 1174 l 1,20,-1
271 614 m 1,27,-1
 476 614 l 1,28,-1
 476 717 l 2,29,30
 476 760 476 760 446.5 789.5 c 128,-1,31
 417 819 417 819 374 819 c 128,-1,32
 331 819 331 819 301 789.5 c 128,-1,33
 271 760 271 760 271 717 c 2,34,-1
 271 614 l 1,27,-1
EndSplineSet
Validated: 1
EndChar

StartChar: edieresis
Encoding: 156 235 159
Width: 749
GlyphClass: 2
Flags: W
HStem: 0 205<297.5 452.258> 410 204<272 477> 819 205<297.5 452.258> 1176 203<66 268 475 678>
VStem: 68 204<235.425 410 614 788.575 1176 1379> 477 205<235.425 307 614 788.575 1176 1379>
LayerCount: 2
Fore
SplineSet
66 1176 m 1,0,-1
 66 1379 l 1,1,-1
 268 1379 l 1,2,-1
 268 1176 l 1,3,-1
 66 1176 l 1,0,-1
68 307 m 2,4,-1
 68 717 l 2,5,6
 68 844 68 844 158 934 c 128,-1,7
 248 1024 248 1024 375 1024 c 128,-1,8
 502 1024 502 1024 592 934 c 128,-1,9
 682 844 682 844 682 717 c 2,10,-1
 682 410 l 1,11,-1
 272 410 l 1,12,-1
 272 307 l 2,13,14
 272 264 272 264 302 234.5 c 128,-1,15
 332 205 332 205 375 205 c 128,-1,16
 418 205 418 205 447.5 234.5 c 128,-1,17
 477 264 477 264 477 307 c 1,18,-1
 682 307 l 1,19,20
 682 180 682 180 592 90 c 128,-1,21
 502 0 502 0 375 0 c 128,-1,22
 248 0 248 0 158 90 c 128,-1,23
 68 180 68 180 68 307 c 2,4,-1
272 614 m 1,24,-1
 477 614 l 1,25,-1
 477 717 l 2,26,27
 477 760 477 760 447.5 789.5 c 128,-1,28
 418 819 418 819 375 819 c 128,-1,29
 332 819 332 819 302 789.5 c 128,-1,30
 272 760 272 760 272 717 c 2,31,-1
 272 614 l 1,24,-1
475 1176 m 1,32,-1
 475 1379 l 1,33,-1
 678 1379 l 1,34,-1
 678 1176 l 1,35,-1
 475 1176 l 1,32,-1
EndSplineSet
Validated: 1
EndChar

StartChar: igrave
Encoding: 157 236 160
Width: 391
GlyphClass: 2
Flags: W
HStem: 0 21G<101 306> 1004 20G<101 306>
VStem: 101 205<0 1024>
LayerCount: 2
Fore
SplineSet
-61 1411 m 1,0,-1
 133 1411 l 1,1,-1
 303 1173 l 1,2,-1
 142 1173 l 1,3,-1
 -61 1411 l 1,0,-1
101 0 m 5,4,-1
 101 1024 l 5,5,-1
 306 1024 l 5,6,-1
 306 0 l 5,7,-1
 101 0 l 5,4,-1
EndSplineSet
Validated: 1
EndChar

StartChar: iacute
Encoding: 158 237 161
Width: 368
GlyphClass: 2
Flags: W
HStem: 0 21G<86 291> 1004 20G<86 291>
VStem: 86 205<0 1024>
LayerCount: 2
Fore
SplineSet
86 0 m 1,0,-1
 86 1024 l 1,1,-1
 291 1024 l 1,2,-1
 291 0 l 1,3,-1
 86 0 l 1,0,-1
95 1174 m 1,4,-1
 256 1174 l 1,5,-1
 460 1410 l 1,6,-1
 265 1410 l 1,7,-1
 95 1174 l 1,4,-1
EndSplineSet
Validated: 9
EndChar

StartChar: icircumflex
Encoding: 159 238 162
Width: 401
GlyphClass: 2
Flags: W
HStem: 0 21G<104 309> 1004 20G<104 309>
VStem: 104 205<0 1024>
LayerCount: 2
Fore
SplineSet
-78 1175 m 1,0,-1
 143 1396 l 1,1,-1
 269 1396 l 1,2,-1
 489 1175 l 1,3,-1
 276 1175 l 1,4,-1
 206 1245 l 1,5,-1
 136 1175 l 1,6,-1
 -78 1175 l 1,0,-1
104 0 m 1,7,-1
 104 1024 l 1,8,-1
 309 1024 l 1,9,-1
 309 0 l 1,10,-1
 104 0 l 1,7,-1
EndSplineSet
Validated: 1
EndChar

StartChar: idieresis
Encoding: 160 239 163
Width: 443
GlyphClass: 2
Flags: W
HStem: 0 21G<110 315> 1004 20G<110 315> 1174 203<-90 112 319 522>
VStem: -90 202<1174 1377> 110 205<0 1024> 319 203<1174 1377>
LayerCount: 2
Fore
SplineSet
-90 1174 m 1,0,-1
 -90 1377 l 1,1,-1
 112 1377 l 1,2,-1
 112 1174 l 1,3,-1
 -90 1174 l 1,0,-1
110 0 m 1,4,-1
 110 1024 l 1,5,-1
 315 1024 l 1,6,-1
 315 0 l 1,7,-1
 110 0 l 1,4,-1
319 1174 m 1,8,-1
 319 1377 l 1,9,-1
 522 1377 l 1,10,-1
 522 1174 l 1,11,-1
 319 1174 l 1,8,-1
EndSplineSet
Validated: 1
EndChar

StartChar: eth
Encoding: 161 240 164
Width: 753
GlyphClass: 2
Flags: W
HStem: 0 207<293.559 447.801> 817 207<292.931 449.004>
VStem: 62 206<237.425 786.575> 373 102<1446.77 1541> 473 207<236.394 786.575>
LayerCount: 2
Fore
SplineSet
62 301 m 1,0,-1
 62 715 l 2,1,2
 62 844 62 844 152 934 c 128,-1,3
 242 1024 242 1024 371 1024 c 0,4,5
 417 1024 417 1024 458 1013 c 1,6,7
 450 1088 450 1088 444.5 1122.5 c 2,8,-1
 439 1157 l 1,9,-1
 299 1092 l 1,10,-1
 231 1239 l 1,11,-1
 412 1323 l 1,12,13
 410 1333 410 1333 401.5 1380 c 128,-1,14
 393 1427 393 1427 383 1482 c 128,-1,15
 373 1537 373 1537 373 1541 c 1,16,-1
 475 1541 l 1,17,18
 518.75 1453.5 518.75 1453.5 545 1386 c 1,19,-1
 677 1447 l 1,20,-1
 745 1300 l 1,21,-1
 602 1233 l 1,22,23
 680 983.4 680 983.4 680 721 c 2,24,-1
 680 309 l 2,25,26
 680 180 680 180 589 90 c 128,-1,27
 498 0 498 0 371 0 c 128,-1,28
 244 0 244 0 155 88 c 128,-1,29
 66 176 66 176 62 301 c 1,0,-1
268 309 m 2,30,31
 268 266 268 266 298 236.5 c 128,-1,32
 328 207 328 207 370 207 c 128,-1,33
 412 207 412 207 442.5 235.5 c 128,-1,34
 473 264 473 264 473 305 c 2,35,-1
 473 715 l 2,36,37
 473 758 473 758 443.5 787.5 c 128,-1,38
 414 817 414 817 371 817 c 128,-1,39
 328 817 328 817 298 787.5 c 128,-1,40
 268 758 268 758 268 717 c 2,41,-1
 268 309 l 2,30,31
EndSplineSet
Validated: 1
EndChar

StartChar: ntilde
Encoding: 162 241 165
Width: 786
GlyphClass: 2
Flags: W
HStem: 0 21G<86 291 496 700> 819 205<362.487 515.743> 1153 150<335.73 498.877> 1202 153<197.312 383.146>
VStem: 86 205<0 779.072 819 1024> 496 204<0 804.773>
LayerCount: 2
Fore
SplineSet
86 0 m 1,0,-1
 86 1024 l 1,1,-1
 291 1024 l 1,2,-1
 291 819 l 2,3,4
 291 945.25 291 945.25 396 1001.5 c 0,5,6
 438 1024 438 1024 495.5 1024 c 128,-1,7
 553 1024 553 1024 595 1002.5 c 128,-1,8
 637 981 637 981 656.5 951.5 c 0,9,10
 698 888.717948718 698 888.717948718 698 840 c 1,11,-1
 700 819 l 1,12,-1
 700 0 l 1,13,-1
 496 0 l 1,14,-1
 496 719 l 2,15,16
 496 731.1875 496 731.1875 484.5 762.09375 c 0,17,18
 463.325581395 819 463.325581395 819 396.000628536 819 c 128,-1,19
 328.675675676 819 328.675675676 819 309.837837838 780.277777778 c 128,-1,20
 291 741.555555556 291 741.555555556 291 721 c 2,21,-1
 291 0 l 1,22,-1
 86 0 l 1,0,-1
87 1173 m 1,23,24
 89 1223 89 1223 117.5 1268.5 c 128,-1,25
 146 1314 146 1314 190.5 1334.5 c 128,-1,26
 235 1355 235 1355 262 1355 c 128,-1,27
 289 1355 289 1355 322.170731707 1350.85365854 c 128,-1,28
 355.341463415 1346.70731707 355.341463415 1346.70731707 397 1311 c 0,29,30
 408 1303 408 1303 420 1303 c 0,31,32
 450.2 1303 450.2 1303 456 1332 c 1,33,-1
 609 1332 l 1,34,35
 607 1282 607 1282 574 1234.5 c 0,36,37
 517.378947368 1153 517.378947368 1153 432.703759398 1153 c 128,-1,38
 348.028571429 1153 348.028571429 1153 300 1194 c 0,39,40
 289 1202 289 1202 277 1202 c 0,41,42
 246.117647059 1202 246.117647059 1202 241 1173 c 1,43,-1
 87 1173 l 1,23,24
EndSplineSet
Validated: 1
EndChar

StartChar: ograve
Encoding: 163 242 166
Width: 753
GlyphClass: 2
Flags: W
HStem: -4 207<299.559 453.801> 813 207<298.715 454.042>
VStem: 68 206<233.425 782.575> 479 207<232.394 782.575>
LayerCount: 2
Fore
SplineSet
68 297 m 1,0,-1
 68 711 l 2,1,2
 68 840 68 840 158 930 c 128,-1,3
 248 1020 248 1020 376 1020 c 128,-1,4
 504 1020 504 1020 594 932 c 128,-1,5
 684 844 684 844 686 717 c 1,6,-1
 686 305 l 2,7,8
 686 176 686 176 595 86 c 128,-1,9
 504 -4 504 -4 377 -4 c 128,-1,10
 250 -4 250 -4 161 84 c 128,-1,11
 72 172 72 172 68 297 c 1,0,-1
114 1411 m 1,12,-1
 308 1411 l 1,13,-1
 478 1173 l 1,14,-1
 317 1173 l 1,15,-1
 114 1411 l 1,12,-1
274 305 m 2,16,17
 274 262 274 262 304 232.5 c 128,-1,18
 334 203 334 203 376 203 c 128,-1,19
 418 203 418 203 448.5 231.5 c 128,-1,20
 479 260 479 260 479 301 c 2,21,-1
 479 711 l 2,22,23
 479 754 479 754 449.5 783.5 c 128,-1,24
 420 813 420 813 377 813 c 128,-1,25
 334 813 334 813 304 783.5 c 128,-1,26
 274 754 274 754 274 713 c 2,27,-1
 274 305 l 2,16,17
EndSplineSet
Validated: 1
EndChar

StartChar: oacute
Encoding: 164 243 167
Width: 753
GlyphClass: 2
Flags: W
HStem: -4 207<299.559 453.801> 813 207<298.715 454.042>
VStem: 68 206<233.425 782.575> 479 207<232.394 782.575>
LayerCount: 2
Fore
SplineSet
68 297 m 1,0,-1
 68 711 l 2,1,2
 68 840 68 840 158 930 c 128,-1,3
 248 1020 248 1020 376 1020 c 128,-1,4
 504 1020 504 1020 594 932 c 128,-1,5
 684 844 684 844 686 717 c 1,6,-1
 686 305 l 2,7,8
 686 176 686 176 595 86 c 128,-1,9
 504 -4 504 -4 377 -4 c 128,-1,10
 250 -4 250 -4 161 84 c 128,-1,11
 72 172 72 172 68 297 c 1,0,-1
274 305 m 2,12,13
 274 262 274 262 304 232.5 c 128,-1,14
 334 203 334 203 376 203 c 128,-1,15
 418 203 418 203 448.5 231.5 c 128,-1,16
 479 260 479 260 479 301 c 2,17,-1
 479 711 l 2,18,19
 479 754 479 754 449.5 783.5 c 128,-1,20
 420 813 420 813 377 813 c 128,-1,21
 334 813 334 813 304 783.5 c 128,-1,22
 274 754 274 754 274 713 c 2,23,-1
 274 305 l 2,12,13
277 1174 m 1,24,-1
 438 1174 l 1,25,-1
 642 1410 l 1,26,-1
 447 1410 l 1,27,-1
 277 1174 l 1,24,-1
EndSplineSet
Validated: 9
EndChar

StartChar: ocircumflex
Encoding: 165 244 168
Width: 753
GlyphClass: 2
Flags: W
HStem: -4 207<299.559 453.801> 813 207<298.715 454.042>
VStem: 68 206<233.425 782.575> 479 207<232.394 782.575>
LayerCount: 2
Fore
SplineSet
68 297 m 1,0,-1
 68 711 l 2,1,2
 68 840 68 840 158 930 c 128,-1,3
 248 1020 248 1020 376 1020 c 128,-1,4
 504 1020 504 1020 594 932 c 128,-1,5
 684 844 684 844 686 717 c 1,6,-1
 686 305 l 2,7,8
 686 176 686 176 595 86 c 128,-1,9
 504 -4 504 -4 377 -4 c 128,-1,10
 250 -4 250 -4 161 84 c 128,-1,11
 72 172 72 172 68 297 c 1,0,-1
85 1174 m 1,12,-1
 306 1395 l 1,13,-1
 432 1395 l 1,14,-1
 652 1174 l 1,15,-1
 439 1174 l 1,16,-1
 369 1244 l 1,17,-1
 299 1174 l 1,18,-1
 85 1174 l 1,12,-1
274 305 m 2,19,20
 274 262 274 262 304 232.5 c 128,-1,21
 334 203 334 203 376 203 c 128,-1,22
 418 203 418 203 448.5 231.5 c 128,-1,23
 479 260 479 260 479 301 c 2,24,-1
 479 711 l 2,25,26
 479 754 479 754 449.5 783.5 c 128,-1,27
 420 813 420 813 377 813 c 128,-1,28
 334 813 334 813 304 783.5 c 128,-1,29
 274 754 274 754 274 713 c 2,30,-1
 274 305 l 2,19,20
EndSplineSet
Validated: 1
EndChar

StartChar: odieresis
Encoding: 167 246 170
Width: 770
GlyphClass: 2
Flags: W
HStem: -4 207<315.559 469.801> 813 207<314.715 470.042> 1229 203<82 284 491 694>
VStem: 84 206<233.425 782.575 1229 1432> 495 207<232.394 782.575 1229 1432>
LayerCount: 2
Fore
SplineSet
82 1229 m 1,0,-1
 82 1432 l 1,1,-1
 284 1432 l 1,2,-1
 284 1229 l 1,3,-1
 82 1229 l 1,0,-1
84 297 m 1,4,-1
 84 711 l 2,5,6
 84 840 84 840 174 930 c 128,-1,7
 264 1020 264 1020 392 1020 c 128,-1,8
 520 1020 520 1020 610 932 c 128,-1,9
 700 844 700 844 702 717 c 1,10,-1
 702 305 l 2,11,12
 702 176 702 176 611 86 c 128,-1,13
 520 -4 520 -4 393 -4 c 128,-1,14
 266 -4 266 -4 177 84 c 128,-1,15
 88 172 88 172 84 297 c 1,4,-1
290 305 m 2,16,17
 290 262 290 262 320 232.5 c 128,-1,18
 350 203 350 203 392 203 c 128,-1,19
 434 203 434 203 464.5 231.5 c 128,-1,20
 495 260 495 260 495 301 c 2,21,-1
 495 711 l 2,22,23
 495 754 495 754 465.5 783.5 c 128,-1,24
 436 813 436 813 393 813 c 128,-1,25
 350 813 350 813 320 783.5 c 128,-1,26
 290 754 290 754 290 713 c 2,27,-1
 290 305 l 2,16,17
491 1229 m 1,28,-1
 491 1432 l 1,29,-1
 694 1432 l 1,30,-1
 694 1229 l 1,31,-1
 491 1229 l 1,28,-1
EndSplineSet
Validated: 1
EndChar

StartChar: divide
Encoding: 168 247 171
Width: 825
GlyphClass: 2
Flags: W
HStem: 2 205<307 512> 411 205<0 819> 821 205<307 512>
VStem: 307 205<2 207 821 1026>
LayerCount: 2
Fore
SplineSet
0 411 m 1,0,-1
 0 616 l 1,1,-1
 819 616 l 1,2,-1
 819 411 l 1,3,-1
 0 411 l 1,0,-1
307 2 m 1,4,-1
 307 207 l 1,5,-1
 512 207 l 1,6,-1
 512 2 l 1,7,-1
 307 2 l 1,4,-1
307 821 m 1,8,-1
 307 1026 l 1,9,-1
 512 1026 l 1,10,-1
 512 821 l 1,11,-1
 307 821 l 1,8,-1
EndSplineSet
Validated: 1
EndChar

StartChar: oslash
Encoding: 169 248 172
Width: 753
GlyphClass: 2
Flags: W
HStem: -4 207<293.935 447.542> 0 21G<89 123.43> 813 207<299.388 455.272>
VStem: 68 206<521 782.575> 479 207<232.394 514>
LayerCount: 2
Fore
SplineSet
-13 122 m 1,0,-1
 74 243 l 1,1,2
 69 269 69 269 68 297 c 1,3,-1
 68 711 l 2,4,5
 68 840 68 840 158 930 c 128,-1,6
 248 1020 248 1020 371 1020 c 128,-1,7
 494 1020 494 1020 579 945 c 1,8,-1
 633 1020 l 1,9,-1
 755 898 l 1,10,-1
 677 789 l 1,11,12
 685 755 685 755 686 717 c 1,13,-1
 686 305 l 2,14,15
 686 176 686 176 595 86 c 128,-1,16
 504 -4 504 -4 379 -4 c 128,-1,17
 254 -4 254 -4 166 79 c 1,18,-1
 109 0 l 1,19,-1
 -13 122 l 1,0,-1
274 521 m 1,20,-1
 457 775 l 1,21,22
 426.6 813 426.6 813 380.3 813 c 128,-1,23
 334 813 334 813 304 783.5 c 128,-1,24
 274 754 274 754 274 713 c 2,25,-1
 274 521 l 1,20,-1
289 251 m 1,26,27
 317.8 203 317.8 203 367.9 203 c 128,-1,28
 418 203 418 203 448.5 231.5 c 128,-1,29
 479 260 479 260 479 301 c 2,30,-1
 479 514 l 1,31,-1
 289 251 l 1,26,27
EndSplineSet
Validated: 1
EndChar

StartChar: thorn
Encoding: 175 254 178
Width: 786
GlyphClass: 2
Flags: W
HStem: -411 21G<86 291> 0 205<362.79 517.536> 819 205<359.839 524.25>
VStem: 86 205<-411 0 215.061 297 717 803.576> 496 204<220.564 307>
LayerCount: 2
Fore
SplineSet
86 0 m 1,0,-1
 291 0 l 1,1,-1
 291 -411 l 1,2,-1
 86 -411 l 1,3,-1
 86 0 l 1,0,-1
86 3 m 1,4,-1
 291 3 l 1,5,-1
 291 205 l 2,6,7
 291 78.75 291 78.75 396 22.5 c 0,8,9
 438 0 438 0 495.5 0 c 128,-1,10
 553 0 553 0 595 21.5 c 128,-1,11
 637 43 637 43 656.5 72.5 c 0,12,13
 698 135.282051282 698 135.282051282 698 184 c 1,14,-1
 700 205 l 1,15,-1
 700 819 l 2,16,17
 700 945.25 700 945.25 595 1001.5 c 0,18,19
 553 1024 553 1024 495.5 1024 c 128,-1,20
 438 1024 438 1024 396 1002.5 c 128,-1,21
 354 981 354 981 334.5 951.5 c 0,22,23
 293 888.717948718 293 888.717948718 293 840 c 1,24,-1
 291 819 l 1,25,-1
 291 1434 l 1,26,-1
 86 1434 l 1,27,-1
 86 3 l 1,4,-1
496 307 m 2,28,29
 496 205 496 205 378.129032258 205 c 0,30,31
 334.258064516 205 334.258064516 205 315.808719758 235.1015625 c 128,-1,32
 297.359375 265.203125 297.359375 265.203125 291 297 c 1,33,-1
 291 717 l 2,34,35
 291 781.139534884 291 781.139534884 343.5 808 c 0,36,37
 365 819 365 819 401.5 819 c 128,-1,38
 438 819 438 819 463.5 793.5 c 128,-1,39
 489 768 489 768 494 741 c 1,40,-1
 496 717 l 1,41,-1
 496 307 l 2,28,29
EndSplineSet
Validated: 9
EndChar

StartChar: Dcroat
Encoding: 193 272 196
Width: 808
GlyphClass: 2
Flags: W
HStem: 0 203<301 484.794> 857 163<-80 98 301 412> 1231 203<301 484.794>
VStem: 98 203<203 857 1020 1231> 508 203<226.206 1207.79>
LayerCount: 2
Fore
SplineSet
-80 857 m 1,0,-1
 -80 1020 l 1,1,-1
 98 1020 l 1,2,-1
 98 1434 l 1,3,-1
 508 1434 l 2,4,5
 592 1434 592 1434 651.5 1374.5 c 128,-1,6
 711 1315 711 1315 711 1229 c 2,7,-1
 711 203 l 2,8,9
 711 119 711 119 651.5 59.5 c 128,-1,10
 592 0 592 0 508 0 c 2,11,-1
 98 0 l 1,12,-1
 98 857 l 1,13,-1
 -80 857 l 1,0,-1
301 203 m 1,14,-1
 430 203 l 2,15,16
 463 203 463 203 485.5 225.5 c 128,-1,17
 508 248 508 248 508 281 c 2,18,-1
 508 1153 l 2,19,20
 508 1186 508 1186 485.5 1208.5 c 128,-1,21
 463 1231 463 1231 430 1231 c 2,22,-1
 301 1231 l 1,23,-1
 301 1020 l 1,24,-1
 412 1020 l 1,25,-1
 412 857 l 1,26,-1
 301 857 l 1,27,-1
 301 203 l 1,14,-1
EndSplineSet
Validated: 1
EndChar

StartChar: dcroat
Encoding: 194 273 197
Width: 786
GlyphClass: 2
Flags: W
HStem: 0 205<288.588 423.787> 819 205<261.75 426.21> 1063 166<293 496 700 785> 1414 20G<496 700>
VStem: 86 205<220.424 741> 496 204<0 205 283 803.576 819 1063 1229 1434>
LayerCount: 2
Fore
SplineSet
86 205 m 1,0,-1
 86 819 l 2,1,2
 86 944.301204819 86 944.301204819 191.5 1001.5 c 0,3,4
 233 1024 233 1024 290.5 1024 c 128,-1,5
 348 1024 348 1024 390 1002.5 c 128,-1,6
 432 981 432 981 451.5 951.5 c 0,7,8
 494 887.205128205 494 887.205128205 494 840 c 1,9,-1
 496 819 l 1,10,-1
 496 1063 l 1,11,-1
 293 1063 l 1,12,-1
 293 1229 l 1,13,-1
 496 1229 l 1,14,-1
 496 1434 l 1,15,-1
 700 1434 l 1,16,-1
 700 1229 l 1,17,-1
 785 1229 l 1,18,-1
 785 1063 l 1,19,-1
 700 1063 l 1,20,-1
 700 0 l 1,21,-1
 496 0 l 1,22,-1
 496 205 l 2,23,24
 496 79.2857142857 496 79.2857142857 390 22.5 c 0,25,26
 348 0 348 0 290.5 0 c 128,-1,27
 233 0 233 0 191.5 21.5 c 128,-1,28
 150 43 150 43 130.5 72.5 c 0,29,30
 88 136.794871795 88 136.794871795 88 184 c 1,31,-1
 86 205 l 1,0,-1
291 307 m 2,32,33
 291 242.860465116 291 242.860465116 343.5 216 c 0,34,35
 365 205 365 205 401.5 205 c 128,-1,36
 438 205 438 205 463.5 230.5 c 128,-1,37
 489 256 489 256 494 283 c 1,38,-1
 496 307 l 1,39,-1
 496 717 l 2,40,41
 496 781.139534884 496 781.139534884 443.5 808 c 0,42,43
 422 819 422 819 385 819 c 128,-1,44
 348 819 348 819 322.5 793.5 c 128,-1,45
 297 768 297 768 293 741 c 1,46,-1
 291 717 l 1,47,-1
 291 307 l 2,32,33
EndSplineSet
Validated: 1
EndChar

StartChar: Edotaccent
Encoding: 199 278 202
Width: 749
GlyphClass: 2
Flags: W
HStem: 0 205<303 713> 614 205<303 610> 1229 205<303 713> 1587 204<302 507>
VStem: 98 615<0 205 1229 1434> 98 205<205 614 819 1229> 302 205<1587 1791>
LayerCount: 2
Fore
SplineSet
98 0 m 1,0,-1
 98 1434 l 1,1,-1
 713 1434 l 1,2,-1
 713 1229 l 1,3,-1
 303 1229 l 1,4,-1
 303 819 l 1,5,-1
 610 819 l 1,6,-1
 610 614 l 1,7,-1
 303 614 l 1,8,-1
 303 205 l 1,9,-1
 713 205 l 1,10,-1
 713 0 l 1,11,-1
 98 0 l 1,0,-1
302 1587 m 1,12,-1
 302 1791 l 1,13,-1
 507 1791 l 1,14,-1
 507 1587 l 1,15,-1
 302 1587 l 1,12,-1
EndSplineSet
Validated: 1
EndChar

StartChar: Hbar
Encoding: 215 294 218
Width: 811
GlyphClass: 2
Flags: W
HStem: 0 21G<98 303 508 713> 614 205<303 508> 1020 205<-4 98 303 508 713 815> 1414 20G<98 303 508 713>
VStem: 98 205<0 614 819 1020 1225 1434> 508 205<0 614 819 1020 1225 1434>
LayerCount: 2
Fore
SplineSet
-4 1020 m 1,0,-1
 -4 1225 l 1,1,-1
 98 1225 l 1,2,-1
 98 1434 l 1,3,-1
 303 1434 l 1,4,-1
 303 1225 l 1,5,-1
 508 1225 l 1,6,-1
 508 1434 l 1,7,-1
 713 1434 l 1,8,-1
 713 1225 l 1,9,-1
 815 1225 l 1,10,-1
 815 1020 l 1,11,-1
 713 1020 l 1,12,-1
 713 0 l 1,13,-1
 508 0 l 1,14,-1
 508 614 l 1,15,-1
 303 614 l 1,16,-1
 303 0 l 1,17,-1
 98 0 l 1,18,-1
 98 1020 l 1,19,-1
 -4 1020 l 1,0,-1
303 819 m 1,20,-1
 508 819 l 1,21,-1
 508 1020 l 1,22,-1
 303 1020 l 1,23,-1
 303 819 l 1,20,-1
EndSplineSet
Validated: 1
EndChar

StartChar: hbar
Encoding: 216 295 219
Width: 786
GlyphClass: 5
Flags: W
HStem: 0 21G<86 291 496 700> 819 205<362.487 524.25> 1414 20G<86 291> 1593 221
VStem: 77 567 86 205<0 779.072 819 1434> 496 204<0 804.773>
LayerCount: 2
Fore
SplineSet
420 1061 m 1,0,-1
 10 1061 l 1,1,-1
 10 1225 l 1,2,-1
 420 1225 l 1,3,-1
 420 1061 l 1,0,-1
EndSplineSet
Refer: 75 104 N 1 0 0 1 0 0 3
Validated: 5
EndChar

StartChar: itilde
Encoding: 218 297 221
Width: 376
GlyphClass: 2
Flags: W
HStem: 0 21G<86 291> 1004 20G<86 291> 1154 149<180.008 305.837>
VStem: 86 205<0 1024>
LayerCount: 2
Fore
SplineSet
-63 1174 m 1,0,1
 -61.1155115512 1221.11221122 -61.1155115512 1221.11221122 -32.5577557756 1267.55610561 c 128,-1,2
 -4 1314 -4 1314 40.5 1335 c 128,-1,3
 85 1356 85 1356 126 1356 c 1,4,-1
 152 1354 l 1,5,6
 206 1346 206 1346 247 1312 c 0,7,8
 258.25 1303 258.25 1303 270 1303 c 0,9,10
 301 1303 301 1303 306 1333 c 1,11,-1
 460 1332 l 1,12,13
 455.315020456 1255.47866745 455.315020456 1255.47866745 400.098686699 1204.73933372 c 128,-1,14
 344.882352941 1154 344.882352941 1154 274 1154 c 0,15,16
 268 1154 268 1154 262 1154 c 0,17,18
 198.235294118 1154 198.235294118 1154 150 1194 c 0,19,20
 139 1203 139 1203 127 1203 c 0,21,22
 96.1176470588 1203 96.1176470588 1203 91 1174 c 1,23,-1
 -63 1174 l 1,0,1
86 0 m 1,24,-1
 86 1024 l 1,25,-1
 291 1024 l 1,26,-1
 291 0 l 1,27,-1
 86 0 l 1,24,-1
EndSplineSet
Validated: 1
EndChar

StartChar: imacron
Encoding: 220 299 223
Width: 376
GlyphClass: 2
Flags: W
HStem: 0 21G<86 291> 1004 20G<86 291> 1223 164<-40 452>
VStem: 86 205<0 1024>
LayerCount: 2
Fore
SplineSet
-40 1223 m 5,0,-1
 -40 1387 l 5,1,-1
 452 1387 l 5,2,-1
 452 1223 l 5,3,-1
 -40 1223 l 5,0,-1
86 0 m 1,4,-1
 86 1024 l 1,5,-1
 291 1024 l 1,6,-1
 291 0 l 1,7,-1
 86 0 l 1,4,-1
EndSplineSet
Validated: 1
EndChar

StartChar: ibreve
Encoding: 222 301 225
Width: 376
GlyphClass: 2
Flags: W
HStem: 0 21G<86 291> 1004 20G<86 291> 1141 153<82.8196 293.68>
VStem: -115 153<1339.38 1444> 86 205<0 1024> 338 154<1339.38 1444>
LayerCount: 2
Fore
SplineSet
-115 1444 m 1,0,1
 -115 1318 -115 1318 -26 1229.5 c 128,-1,2
 63 1141 63 1141 188.5 1141 c 128,-1,3
 314 1141 314 1141 403 1229.5 c 128,-1,4
 492 1318 492 1318 492 1444 c 1,5,-1
 338 1444 l 1,6,7
 338 1382 338 1382 294 1338 c 128,-1,8
 250 1294 250 1294 188 1294 c 128,-1,9
 126 1294 126 1294 82 1338 c 128,-1,10
 38 1382 38 1382 38 1444 c 1,11,-1
 -115 1444 l 1,0,1
86 0 m 1,12,-1
 86 1024 l 1,13,-1
 291 1024 l 1,14,-1
 291 0 l 1,15,-1
 86 0 l 1,12,-1
EndSplineSet
Validated: 9
EndChar

StartChar: dotlessi
Encoding: 226 305 229
Width: 391
GlyphClass: 2
Flags: W
HStem: 0 21G<86 291> 1004 20G<86 291> 1229 205<86 291>
VStem: 86 205<0 1024 1229 1434>
LayerCount: 2
Fore
SplineSet
86 0 m 5,0,-1
 86 1024 l 5,1,-1
 291 1024 l 5,2,-1
 291 0 l 5,3,-1
 86 0 l 5,0,-1
EndSplineSet
EndChar

StartChar: kgreenlandic
Encoding: 233 312 236
Width: 686
GlyphClass: 2
Flags: W
HStem: 0 21G<86 291 489.387 700>
VStem: 86 205<0 206 618 1032>
LayerCount: 2
Fore
SplineSet
86 0 m 1,0,-1
 86 1032 l 1,1,-1
 291 1032 l 1,2,-1
 291 618 l 1,3,-1
 496 1031 l 1,4,-1
 700 1031 l 1,5,-1
 496 618 l 1,6,-1
 700 0 l 1,7,-1
 496 0 l 1,8,-1
 373 372 l 1,9,-1
 291 206 l 1,10,-1
 291 0 l 1,11,-1
 86 0 l 1,0,-1
EndSplineSet
Validated: 1
EndChar

StartChar: napostrophe
Encoding: 250 329 253
Width: 786
GlyphClass: 2
Flags: W
HStem: 0 21G<86 291 496 700> 819 205<362.487 515.743>
VStem: -91 178<1165 1369> 86 205<0 779.072 819 1024> 496 204<0 804.773>
LayerCount: 2
Fore
SplineSet
-91 959 m 1,0,-1
 -91 1369 l 1,1,-1
 87 1370 l 1,2,-1
 87 1165 l 1,3,-1
 -91 959 l 1,0,-1
86 0 m 1,4,-1
 86 1024 l 1,5,-1
 291 1024 l 1,6,-1
 291 819 l 2,7,8
 291 945.25 291 945.25 396 1001.5 c 0,9,10
 438 1024 438 1024 495.5 1024 c 128,-1,11
 553 1024 553 1024 595 1002.5 c 128,-1,12
 637 981 637 981 656.5 951.5 c 0,13,14
 698 888.717948718 698 888.717948718 698 840 c 1,15,-1
 700 819 l 1,16,-1
 700 0 l 1,17,-1
 496 0 l 1,18,-1
 496 719 l 2,19,20
 496 731.1875 496 731.1875 484.5 762.09375 c 0,21,22
 463.325581395 819 463.325581395 819 396.000628536 819 c 128,-1,23
 328.675675676 819 328.675675676 819 309.837837838 780.277777778 c 128,-1,24
 291 741.555555556 291 741.555555556 291 721 c 2,25,-1
 291 0 l 1,26,-1
 86 0 l 1,4,-1
EndSplineSet
Validated: 1
EndChar

StartChar: OE
Encoding: 259 338 262
Width: 1210
GlyphClass: 2
Flags: W
HStem: 0 205<333.425 477.575 764 1174> 614 205<764 1071> 1229 205<327.46 482.888 764 1174>
VStem: 98 205<235.425 1198.06> 508 256<235.425 614 819 1198.06>
LayerCount: 2
Fore
SplineSet
98 307 m 2,0,-1
 98 1126 l 2,1,2
 98 1255 98 1255 177 1344.5 c 128,-1,3
 256 1434 256 1434 369.5 1434 c 128,-1,4
 483 1434 483 1434 559 1356 c 1,5,-1
 559 1434 l 1,6,-1
 1174 1434 l 1,7,-1
 1174 1229 l 1,8,-1
 764 1229 l 1,9,-1
 764 819 l 1,10,-1
 1071 819 l 1,11,-1
 1071 614 l 1,12,-1
 764 614 l 1,13,-1
 764 205 l 1,14,-1
 1174 205 l 1,15,-1
 1174 0 l 1,16,-1
 559 0 l 1,17,-1
 559 78 l 1,18,19
 528 45 528 45 512 32.5 c 0,20,21
 470.4 -1.7763568394e-14 470.4 -1.7763568394e-14 381 0 c 0,22,23
 256 0 256 0 177 89 c 128,-1,24
 98 178 98 178 98 307 c 2,0,-1
303 307 m 2,25,26
 303 264 303 264 332.5 234.5 c 128,-1,27
 362 205 362 205 405.5 205 c 128,-1,28
 449 205 449 205 478.5 234.5 c 128,-1,29
 508 264 508 264 508 307 c 2,30,-1
 508 1126 l 2,31,32
 508 1169 508 1169 478.5 1199 c 128,-1,33
 449 1229 449 1229 405.5 1229 c 128,-1,34
 362 1229 362 1229 332.5 1199 c 128,-1,35
 303 1169 303 1169 303 1126 c 2,36,-1
 303 307 l 2,25,26
EndSplineSet
Validated: 33
EndChar

StartChar: oe
Encoding: 260 339 263
Width: 1157
GlyphClass: 2
Flags: W
HStem: 4 205<297.208 452.535 701.08 862.606> 414 204<682 887> 817 211<297.774 459.253 705.912 864.134>
VStem: 68 204<239.425 787.606> 477 205<237.363 414 618 794.637> 887 205<239.425 311 618 792.575>
LayerCount: 2
Fore
SplineSet
68 303 m 1,0,-1
 68 715 l 2,1,2
 68 844 68 844 158 936 c 128,-1,3
 248 1028 248 1028 366 1028 c 128,-1,4
 484 1028 484 1028 578 948 c 1,5,6
 665 1028 665 1028 788 1028 c 128,-1,7
 911 1028 911 1028 1001.5 938 c 128,-1,8
 1092 848 1092 848 1092 721 c 2,9,-1
 1092 414 l 1,10,-1
 682 414 l 1,11,-1
 682 303 l 1,12,13
 686 264 686 264 714.5 236.5 c 128,-1,14
 743 209 743 209 785 209 c 128,-1,15
 827 209 827 209 857 238.5 c 128,-1,16
 887 268 887 268 887 311 c 1,17,-1
 1092 311 l 1,18,19
 1092 184 1092 184 1001.5 94 c 128,-1,20
 911 4 911 4 789 4 c 128,-1,21
 667 4 667 4 580 82 c 1,22,23
 492 4 492 4 371 4 c 128,-1,24
 250 4 250 4 160 91 c 128,-1,25
 70 178 70 178 68 303 c 1,0,-1
272 311 m 2,26,27
 272 268 272 268 302 238.5 c 128,-1,28
 332 209 332 209 374 209 c 128,-1,29
 416 209 416 209 445.5 236.5 c 128,-1,30
 475 264 475 264 477 305 c 1,31,-1
 477 723 l 1,32,33
 475 762 475 762 445.5 789.5 c 128,-1,34
 416 817 416 817 375 817 c 128,-1,35
 334 817 334 817 303 788.5 c 128,-1,36
 272 760 272 760 272 717 c 2,37,-1
 272 311 l 2,26,27
682 618 m 1,38,-1
 887 618 l 1,39,-1
 887 721 l 2,40,41
 887 764 887 764 857 793.5 c 128,-1,42
 827 823 827 823 785 823 c 128,-1,43
 743 823 743 823 713.5 795.5 c 128,-1,44
 684 768 684 768 682 727 c 1,45,-1
 682 618 l 1,38,-1
EndSplineSet
Validated: 1
EndChar

StartChar: tbar
Encoding: 280 359 283
Width: 10
GlyphClass: 2
Flags: W
HStem: 488 164<60 113 317 552> 817 205<10 113 317 420>
VStem: 113 204<234.456 488 652 817 1022 1329>
LayerCount: 2
Fore
SplineSet
10 817 m 1,0,-1
 10 1022 l 1,1,-1
 113 1022 l 1,2,-1
 113 1329 l 1,3,-1
 317 1329 l 1,4,-1
 317 1022 l 1,5,-1
 420 1022 l 1,6,-1
 420 817 l 1,7,-1
 317 817 l 1,8,-1
 317 652 l 5,9,-1
 420 652 l 5,10,-1
 420 488 l 5,11,-1
 317 488 l 5,12,-1
 317 305 l 2,13,14
 317 264 317 264 347 233.5 c 128,-1,15
 377 203 377 203 420 203 c 1,16,-1
 420 -2 l 1,17,18
 293 -2 293 -2 203 88 c 128,-1,19
 113 178 113 178 113 305 c 2,20,-1
 113 488 l 5,21,-1
 10 488 l 5,22,-1
 10 652 l 5,23,-1
 113 652 l 5,24,-1
 113 817 l 1,25,-1
 10 817 l 1,0,-1
EndSplineSet
Validated: 1
EndChar

StartChar: longs
Encoding: 304 383 307
Width: 450
GlyphClass: 2
Flags: W
HStem: 0 21G<123 328> 819 205<20 123> 1414 20G<366.5 430>
VStem: 20 308<819 1024> 123 205<0 819 1024 1198.06>
LayerCount: 2
Fore
SplineSet
20 819 m 1,0,-1
 20 1024 l 1,1,-1
 123 1024 l 1,2,-1
 123 1130 l 1,3,4
 125 1255 125 1255 214 1344.5 c 128,-1,5
 303 1434 303 1434 430 1434 c 1,6,-1
 430 1229 l 1,7,8
 387 1229 387 1229 357.5 1199 c 128,-1,9
 328 1169 328 1169 328 1126 c 2,10,-1
 328 0 l 1,11,-1
 123 0 l 1,12,-1
 123 819 l 1,13,-1
 20 819 l 1,0,-1
EndSplineSet
Validated: 1
EndChar

StartChar: uni01C0
Encoding: 310 448 313
Width: 547
GlyphClass: 2
Flags: W
HStem: 1 21G<162 367>
VStem: 162 205<1 1445>
LayerCount: 2
Fore
SplineSet
162 1 m 1,0,-1
 162 1445 l 1,1,-1
 367 1445 l 1,2,-1
 367 1 l 1,3,-1
 162 1 l 1,0,-1
EndSplineSet
Validated: 1
EndChar

StartChar: uni01C1
Encoding: 311 449 314
Width: 893
GlyphClass: 2
Flags: W
HStem: 1 21G<162 367 547 752>
VStem: 162 205<1 1445> 547 205<1 1445>
LayerCount: 2
Fore
SplineSet
162 1 m 1,0,-1
 162 1445 l 1,1,-1
 367 1445 l 1,2,-1
 367 1 l 1,3,-1
 162 1 l 1,0,-1
547 1 m 1,4,-1
 547 1445 l 1,5,-1
 752 1445 l 1,6,-1
 752 1 l 1,7,-1
 547 1 l 1,4,-1
EndSplineSet
Validated: 1
EndChar

StartChar: uni01C2
Encoding: 312 450 315
Width: 547
GlyphClass: 2
Flags: W
HStem: 1 21G<162 367> 442 164<14 162 367 506> 856 164<14 162 367 506>
VStem: 14 492<442 606 856 1020> 162 205<1 442 606 856 1020 1445>
LayerCount: 2
Fore
SplineSet
14 442 m 1,0,-1
 14 606 l 1,1,-1
 162 606 l 1,2,-1
 162 856 l 1,3,-1
 14 856 l 1,4,-1
 14 1020 l 1,5,-1
 162 1020 l 1,6,-1
 162 1445 l 1,7,-1
 367 1445 l 1,8,-1
 367 1020 l 1,9,-1
 506 1020 l 1,10,-1
 506 856 l 1,11,-1
 367 856 l 1,12,-1
 367 606 l 1,13,-1
 506 606 l 1,14,-1
 506 442 l 1,15,-1
 367 442 l 1,16,-1
 367 1 l 1,17,-1
 162 1 l 1,18,-1
 162 442 l 1,19,-1
 14 442 l 1,0,-1
EndSplineSet
Validated: 1
EndChar

StartChar: uni02C8
Encoding: 329 712 325
Width: 671
GlyphClass: 2
Flags: W
HStem: 1174 492<252 416>
VStem: 252 164<1174 1666>
LayerCount: 2
Fore
SplineSet
252 1174 m 1,0,-1
 252 1666 l 1,1,-1
 416 1666 l 1,2,-1
 416 1174 l 1,3,-1
 252 1174 l 1,0,-1
EndSplineSet
Validated: 1
EndChar

StartChar: uni02C9
Encoding: 330 713 326
Width: 671
GlyphClass: 2
Flags: W
HStem: 1174 164<87 579>
VStem: 87 492<1174 1338>
LayerCount: 2
Fore
SplineSet
87 1174 m 1,0,-1
 87 1338 l 1,1,-1
 579 1338 l 1,2,-1
 579 1174 l 1,3,-1
 87 1174 l 1,0,-1
EndSplineSet
Validated: 1
EndChar

StartChar: breve
Encoding: 333 728 329
Width: 707
GlyphClass: 2
Flags: W
HStem: 1141 153<252.82 463.68>
VStem: 55 153<1339.38 1444> 508 154<1339.38 1444>
LayerCount: 2
Fore
SplineSet
55 1444 m 1,0,1
 55 1318 55 1318 144 1229.5 c 128,-1,2
 233 1141 233 1141 358.5 1141 c 128,-1,3
 484 1141 484 1141 573 1229.5 c 128,-1,4
 662 1318 662 1318 662 1444 c 1,5,-1
 508 1444 l 1,6,7
 508 1382 508 1382 464 1338 c 128,-1,8
 420 1294 420 1294 358 1294 c 128,-1,9
 296 1294 296 1294 252 1338 c 128,-1,10
 208 1382 208 1382 208 1444 c 1,11,-1
 55 1444 l 1,0,1
EndSplineSet
Validated: 9
EndChar

StartChar: tildecomb
Encoding: 335 771 331
Width: 0
GlyphClass: 5
Flags: W
HStem: 1209 150<5.91395 181.238> 1258 153<-120.637 64.876>
VStem: -230 522
LayerCount: 2
Fore
SplineSet
-230 1229 m 5,0,1
 -228 1279 -228 1279 -200 1324 c 132,-1,2
 -172 1369 -172 1369 -127.5 1390 c 132,-1,3
 -83 1411 -83 1411 -56 1411 c 4,4,5
 27.4571428571 1411 27.4571428571 1411 79 1367 c 4,6,7
 91 1359 91 1359 104.5 1359 c 132,-1,8
 118 1359 118 1359 127.5 1368.5 c 132,-1,9
 137 1378 137 1378 138 1388 c 5,10,-1
 292 1388 l 5,11,12
 290 1338 290 1338 256.5 1290 c 4,13,14
 199.96875 1209 199.96875 1209 115.690257353 1209 c 132,-1,15
 31.4117647059 1209 31.4117647059 1209 -18 1249 c 4,16,17
 -27 1258 -27 1258 -41 1258 c 4,18,19
 -71.8823529412 1258 -71.8823529412 1258 -77 1229 c 5,20,-1
 -230 1229 l 5,0,1
EndSplineSet
Validated: 1
EndChar

StartChar: brevecmb
Encoding: 336 774 332
Width: 707
GlyphClass: 5
Flags: W
HStem: 1141 153<252.82 463.68>
VStem: 55 153<1339.38 1444> 508 154<1339.38 1444>
LayerCount: 2
Fore
SplineSet
55 1444 m 5,0,1
 55 1318 55 1318 144 1229.5 c 132,-1,2
 233 1141 233 1141 358.5 1141 c 132,-1,3
 484 1141 484 1141 573 1229.5 c 132,-1,4
 662 1318 662 1318 662 1444 c 5,5,-1
 508 1444 l 5,6,7
 508 1382 508 1382 464 1338 c 132,-1,8
 420 1294 420 1294 358 1294 c 132,-1,9
 296 1294 296 1294 252 1338 c 132,-1,10
 208 1382 208 1382 208 1444 c 5,11,-1
 55 1444 l 5,0,1
EndSplineSet
Validated: 9
EndChar

StartChar: dieresiscmb
Encoding: 337 776 333
Width: 770
GlyphClass: 5
Flags: W
HStem: 1229 203<82 284 491 694>
VStem: 82 202<1229 1432> 491 203<1229 1432>
LayerCount: 2
Fore
SplineSet
82 1229 m 1,0,-1
 82 1432 l 1,1,-1
 284 1432 l 1,2,-1
 284 1229 l 1,3,-1
 82 1229 l 1,0,-1
491 1229 m 1,4,-1
 491 1432 l 1,5,-1
 694 1432 l 1,6,-1
 694 1229 l 1,7,-1
 491 1229 l 1,4,-1
EndSplineSet
Validated: 1
EndChar

StartChar: hookabovecomb
Encoding: 338 777 334
Width: 707
GlyphClass: 5
Flags: W
HStem: 1174 238
VStem: -83 364
LayerCount: 2
Fore
SplineSet
222.772460938 1272.96289062 m 17,0,1
 295.107421875 1272.96289062 295.107421875 1272.96289062 295.107421875 1336.6484375 c 0,2,3
 295.107421875 1411.34277344 295.107421875 1411.34277344 222.772460938 1411.34277344 c 9,4,-1
 222.772460938 1543.43261719 l 1,5,6
 307.6875 1543.43261719 307.6875 1543.43261719 367.442382812 1484.46386719 c 128,-1,7
 427.197265625 1425.49511719 427.197265625 1425.49511719 427.197265625 1342.15234375 c 128,-1,8
 427.197265625 1258.80957031 427.197265625 1258.80957031 367.442382812 1199.84082031 c 128,-1,9
 307.6875 1140.87207031 307.6875 1140.87207031 222.772460938 1140.87207031 c 1,10,-1
 222.772460938 1272.96289062 l 17,0,1
EndSplineSet
EndChar

StartChar: ringcmb
Encoding: 339 778 335
Width: 0
GlyphClass: 5
Flags: W
HStem: 1174 84<231.373 305.337> 1448 84<224.348 305.258>
VStem: 140 84<1271.41 1447.65> 312 84<1271.41 1434.59>
LayerCount: 2
Fore
SplineSet
140 1303 m 6,0,-1
 140 1402 l 6,1,2
 140 1456 140 1456 177.5 1494 c 132,-1,3
 215 1532 215 1532 268 1532 c 132,-1,4
 321 1532 321 1532 358.5 1494 c 132,-1,5
 396 1456 396 1456 396 1402 c 6,6,-1
 396 1303 l 6,7,8
 396 1250 396 1250 358.5 1212 c 128,-1,9
 321 1174 321 1174 268.5 1174 c 128,-1,10
 216 1174 216 1174 178 1212 c 128,-1,11
 140 1250 140 1250 140 1303 c 6,0,-1
224 1303 m 6,12,13
 224 1284 224 1284 237 1271 c 132,-1,14
 250 1258 250 1258 268.5 1258 c 128,-1,15
 287 1258 287 1258 299.5 1271 c 132,-1,16
 312 1284 312 1284 312 1303 c 6,17,-1
 312 1402 l 6,18,19
 312 1422 312 1422 299.5 1435 c 132,-1,20
 287 1448 287 1448 271.5 1448 c 4,21,22
 224 1448 224 1448 224 1402 c 6,23,-1
 224 1303 l 6,12,13
EndSplineSet
Validated: 1
EndChar

StartChar: horncmb
Encoding: 340 795 336
Width: 0
GlyphClass: 5
Flags: W
HStem: 959 410
VStem: -98 178<1165 1369>
LayerCount: 2
Fore
SplineSet
-98 959 m 1,0,-1
 -98 1369 l 1,1,-1
 80 1370 l 1,2,-1
 80 1165 l 1,3,-1
 -98 959 l 1,0,-1
EndSplineSet
Validated: 1
EndChar

StartChar: dotbelowcomb
Encoding: 341 803 337
Width: 0
GlyphClass: 5
Flags: W
HStem: -319 205<-113 92>
VStem: -113 205<-319 -114>
LayerCount: 2
Fore
SplineSet
-113 -114 m 1,0,-1
 92 -114 l 1,1,-1
 92 -319 l 1,2,-1
 -113 -319 l 1,3,-1
 -113 -114 l 1,0,-1
EndSplineSet
Validated: 1
EndChar

StartChar: commasubnosp
Encoding: 342 806 338
Width: 0
GlyphClass: 5
Flags: W
HStem: -410 410 -20 20G<198 376>
VStem: 198 178<-204 0>
LayerCount: 2
Fore
SplineSet
198 0 m 1,0,-1
 376 0 l 1,1,-1
 376 -204 l 1,2,-1
 198 -410 l 1,3,-1
 198 0 l 1,0,-1
EndSplineSet
Validated: 1
EndChar

StartChar: quoteleft
Encoding: 404 8216 340
Width: 376
GlyphClass: 2
Flags: W
HStem: 1155 409
VStem: 104 168<1155 1360>
LayerCount: 2
Fore
SplineSet
104 1155 m 5,0,-1
 104 1360 l 5,1,-1
 272 1564 l 5,2,-1
 272 1155 l 5,3,-1
 104 1155 l 5,0,-1
EndSplineSet
Validated: 1
EndChar

StartChar: quoteright
Encoding: 405 8217 341
Width: 376
GlyphClass: 2
Flags: W
HStem: 1152 410
VStem: 104 168<1358 1562>
LayerCount: 2
Fore
SplineSet
104 1152 m 1,0,-1
 104 1562 l 1,1,-1
 272 1562 l 5,2,-1
 272 1358 l 1,3,-1
 104 1152 l 1,0,-1
EndSplineSet
Validated: 1
EndChar

StartChar: quotedblleft
Encoding: 406 8220 342
Width: 376
GlyphClass: 2
Flags: W
HStem: 1106 328<109 272 346 510>
VStem: 109 163<1106 1434> 346 164<1106 1434>
LayerCount: 2
Fore
SplineSet
342 1155 m 5,0,-1
 342 1360 l 5,1,-1
 510 1564 l 5,2,-1
 510 1155 l 5,3,-1
 342 1155 l 5,0,-1
104 1155 m 5,4,-1
 104 1360 l 5,5,-1
 272 1564 l 5,6,-1
 272 1155 l 5,7,-1
 104 1155 l 5,4,-1
EndSplineSet
Validated: 1
EndChar

StartChar: quotedblright
Encoding: 407 8221 343
Width: 376
GlyphClass: 2
Flags: W
HStem: 1106 328<109 272 346 510>
VStem: 109 163<1106 1434> 346 164<1106 1434>
LayerCount: 2
Fore
SplineSet
277 1434 m 5,0,-1
 277 1229 l 5,1,-1
 109 1025 l 5,2,-1
 109 1434 l 5,3,-1
 277 1434 l 5,0,-1
515 1434 m 5,4,-1
 515 1229 l 5,5,-1
 347 1025 l 5,6,-1
 347 1434 l 5,7,-1
 515 1434 l 5,4,-1
EndSplineSet
Validated: 1
EndChar

StartChar: quotedblbase
Encoding: 408 8222 344
Width: 618
GlyphClass: 2
Flags: W
HStem: 1106 328<109 272 346 510>
VStem: 109 163<1106 1434> 346 164<1106 1434>
LayerCount: 2
Fore
SplineSet
277 234 m 1,0,-1
 277 29 l 1,1,-1
 109 -175 l 1,2,-1
 109 234 l 1,3,-1
 277 234 l 1,0,-1
515 234 m 1,4,-1
 515 29 l 1,5,-1
 347 -175 l 1,6,-1
 347 234 l 1,7,-1
 515 234 l 1,4,-1
EndSplineSet
Validated: 1
EndChar

StartChar: quotedblrev
Encoding: 409 8223 345
Width: 376
GlyphClass: 2
Flags: W
HStem: 1106 328<109 272 346 510>
VStem: 109 163<1106 1434> 346 164<1106 1434>
LayerCount: 2
Fore
SplineSet
347 1434 m 5,0,-1
 347 1229 l 5,1,-1
 515 1025 l 5,2,-1
 515 1434 l 5,3,-1
 347 1434 l 5,0,-1
109 1434 m 5,4,-1
 109 1229 l 5,5,-1
 277 1025 l 5,6,-1
 277 1434 l 5,7,-1
 109 1434 l 5,4,-1
EndSplineSet
Validated: 9
EndChar

StartChar: dagger
Encoding: 410 8224 346
Width: 547
GlyphClass: 2
Flags: W
HStem: 1 21G<162 367> 1070 164<14 162 367 506>
VStem: 162 205<1 1070 1234 1445>
LayerCount: 2
Fore
SplineSet
14 1070 m 1,0,-1
 14 1234 l 1,1,-1
 162 1234 l 1,2,-1
 162 1445 l 1,3,-1
 367 1445 l 1,4,-1
 367 1234 l 1,5,-1
 506 1234 l 1,6,-1
 506 1070 l 1,7,-1
 367 1070 l 1,8,-1
 367 1 l 1,9,-1
 162 1 l 1,10,-1
 162 1070 l 1,11,-1
 14 1070 l 1,0,-1
EndSplineSet
Validated: 1
EndChar

StartChar: daggerdbl
Encoding: 411 8225 347
Width: 547
GlyphClass: 2
Flags: W
HStem: 1 21G<162 367> 222 164<14 162 367 506> 1070 164<14 162 367 506>
VStem: 14 492<222 386 1070 1234> 162 205<1 222 386 1070 1234 1445>
LayerCount: 2
Fore
SplineSet
14 222 m 1,0,-1
 14 386 l 1,1,-1
 162 386 l 1,2,-1
 162 1070 l 1,3,-1
 14 1070 l 1,4,-1
 14 1234 l 1,5,-1
 162 1234 l 1,6,-1
 162 1445 l 1,7,-1
 367 1445 l 1,8,-1
 367 1234 l 1,9,-1
 506 1234 l 1,10,-1
 506 1070 l 1,11,-1
 367 1070 l 1,12,-1
 367 386 l 1,13,-1
 506 386 l 1,14,-1
 506 222 l 1,15,-1
 367 222 l 1,16,-1
 367 1 l 1,17,-1
 162 1 l 1,18,-1
 162 222 l 1,19,-1
 14 222 l 1,0,-1
EndSplineSet
Validated: 1
EndChar

StartChar: bullet
Encoding: 412 8226 348
Width: 825
GlyphClass: 2
Flags: W
HStem: 339 410<294.369 549.631>
VStem: 217 410<416.369 671.631>
LayerCount: 2
Fore
SplineSet
217 544 m 128,-1,1
 217 629 217 629 277 689 c 128,-1,2
 337 749 337 749 422 749 c 128,-1,3
 507 749 507 749 567 689 c 128,-1,4
 627 629 627 629 627 544 c 128,-1,5
 627 459 627 459 567 399 c 128,-1,6
 507 339 507 339 422 339 c 128,-1,7
 337 339 337 339 277 399 c 128,-1,0
 217 459 217 459 217 544 c 128,-1,1
EndSplineSet
Validated: 1
EndChar

StartChar: Euro
Encoding: 418 8364 354
Width: 856
GlyphClass: 2
Flags: W
HStem: -3 205<433.997 589.359> 454 205<-1 204 409 614> 761 205<-1 204 409 614> 1021 21G<614 818> 1226 205<433.221 589.397>
VStem: -1 615<454 659 761 966> 204 205<232.425 454 659 761 966 1195.06> 614 204<232.425 407 1021 1195.06>
LayerCount: 2
Fore
SplineSet
-1 454 m 1,0,-1
 -1 659 l 1,1,-1
 204 659 l 1,2,-1
 204 761 l 1,3,-1
 -1 761 l 1,4,-1
 -1 966 l 1,5,-1
 204 966 l 1,6,-1
 204 1123 l 2,7,8
 204 1205 204 1205 245.5 1276.5 c 128,-1,9
 287 1348 287 1348 358 1389.5 c 128,-1,10
 429 1431 429 1431 501 1431 c 0,11,12
 635.390243902 1431 635.390243902 1431 726.695121951 1340.79518072 c 128,-1,13
 818 1250.59036145 818 1250.59036145 818 1123 c 2,14,-1
 818 1021 l 1,15,-1
 614 1021 l 1,16,-1
 614 1123 l 2,17,18
 614 1166 614 1166 584 1196 c 128,-1,19
 554 1226 554 1226 511 1226 c 128,-1,20
 468 1226 468 1226 438.5 1196 c 128,-1,21
 409 1166 409 1166 409 1123 c 2,22,-1
 409 966 l 1,23,-1
 614 966 l 1,24,-1
 614 761 l 1,25,-1
 409 761 l 1,26,-1
 409 659 l 1,27,-1
 614 659 l 1,28,-1
 614 454 l 1,29,-1
 409 454 l 1,30,-1
 409 304 l 2,31,32
 409 261 409 261 438.5 231.5 c 128,-1,33
 468 202 468 202 511 202 c 128,-1,34
 554 202 554 202 584 231.5 c 128,-1,35
 614 261 614 261 614 304 c 2,36,-1
 614 407 l 1,37,-1
 818 407 l 1,38,-1
 818 304 l 2,39,40
 818 221 818 221 776.5 150.5 c 128,-1,41
 735 80 735 80 664.5 38.5 c 128,-1,42
 594 -3 594 -3 511 -3 c 0,43,44
 385 -3 385 -3 294.5 87.5 c 128,-1,45
 204 178 204 178 204 304 c 2,46,-1
 204 454 l 1,47,-1
 -1 454 l 1,0,-1
EndSplineSet
Validated: 1
EndChar

StartChar: arrowleft
Encoding: 419 8592 355
Width: 1062
GlyphClass: 2
Flags: W
LayerCount: 2
Fore
SplineSet
0 410 m 1,0,-1
 290 120 l 1,1,-1
 435 265 l 1,2,-1
 278 410 l 5,3,-1
 1024 410 l 1,4,-1
 1024 615 l 1,5,-1
 278 615 l 1,6,-1
 434 760 l 1,7,-1
 290 905 l 1,8,-1
 0 615 l 1,9,-1
 0 410 l 1,0,-1
EndSplineSet
Validated: 9
EndChar

StartChar: arrowup
Encoding: 420 8593 356
Width: 1062
GlyphClass: 2
Flags: W
HStem: 0 21G<410 615> 1005 20G<390 410>
VStem: 410 205<0 735>
LayerCount: 2
Fore
SplineSet
120 735 m 1,0,-1
 410 1025 l 1,1,-1
 410 1024 l 1,2,-1
 615 1024 l 1,3,-1
 905 735 l 1,4,-1
 760 590 l 1,5,-1
 615 735 l 1,6,-1
 615 0 l 1,7,-1
 410 0 l 1,8,-1
 410 734 l 5,9,-1
 265 590 l 1,10,-1
 120 735 l 1,0,-1
EndSplineSet
Validated: 1
EndChar

StartChar: arrowright
Encoding: 421 8594 357
Width: 1062
GlyphClass: 2
Flags: W
HStem: 410 205<0 734>
LayerCount: 2
Fore
SplineSet
0 410 m 1,0,-1
 0 615 l 1,1,-1
 735 615 l 1,2,-1
 590 760 l 1,3,-1
 735 905 l 1,4,-1
 1024 615 l 1,5,-1
 1024 410 l 1,6,-1
 734 120 l 1,7,-1
 590 265 l 1,8,-1
 734 410 l 1,9,-1
 0 410 l 1,0,-1
EndSplineSet
Validated: 1
EndChar

StartChar: arrowdown
Encoding: 422 8595 358
Width: 1062
GlyphClass: 2
Flags: W
HStem: 0 21G<614 635> 1005 20G<410 614>
VStem: 410 204<291 1025>
LayerCount: 2
Fore
SplineSet
120 291 m 1,0,-1
 265 435 l 1,1,-1
 410 291 l 1,2,-1
 410 1025 l 1,3,-1
 614 1025 l 1,4,-1
 614 289 l 1,5,-1
 760 435 l 1,6,-1
 905 290 l 1,7,-1
 615 0 l 1,8,-1
 614 1 l 1,9,-1
 410 1 l 1,10,-1
 120 291 l 1,0,-1
EndSplineSet
Validated: 1
EndChar

StartChar: uni2197
Encoding: 423 8599 359
Width: 1062
GlyphClass: 2
Flags: W
HStem: 816 205<411 616>
VStem: 760 205<466 670>
LayerCount: 2
Fore
SplineSet
96 296 m 1,0,-1
 616 816 l 1,1,-1
 411 816 l 1,2,-1
 411 1021 l 1,3,-1
 820 1021 l 1,4,-1
 820 1020 l 1,5,-1
 965 875 l 1,6,-1
 965 466 l 1,7,-1
 760 466 l 1,8,-1
 760 670 l 1,9,-1
 241 151 l 1,10,-1
 96 296 l 1,0,-1
EndSplineSet
Validated: 1
EndChar

StartChar: uni2198
Encoding: 424 8600 360
Width: 1062
GlyphClass: 2
Flags: W
HStem: 0 205<317 522>
VStem: 668 205<349 555>
LayerCount: 2
Fore
SplineSet
3 724 m 1,0,-1
 148 869 l 1,1,-1
 668 349 l 1,2,-1
 668 555 l 1,3,-1
 873 555 l 1,4,-1
 873 145 l 1,5,-1
 872 145 l 1,6,-1
 727 0 l 1,7,-1
 317 0 l 1,8,-1
 317 205 l 1,9,-1
 522 205 l 1,10,-1
 3 724 l 1,0,-1
EndSplineSet
Validated: 1
EndChar

StartChar: uni2215
Encoding: 425 8725 361
Width: 966
GlyphClass: 2
Flags: W
LayerCount: 2
Fore
SplineSet
1142 1522 m 1,0,-1
 87 -16 l 1,1,-1
 -86 -16 l 1,2,-1
 969 1522 l 1,3,-1
 1142 1522 l 1,0,-1
EndSplineSet
EndChar

StartChar: approxequal
Encoding: 426 8776 362
Width: 584
GlyphClass: 2
Flags: W
HStem: 295 150<260.699 435.44> 344 153<133.363 320.156> 545 150<268.699 443.44> 594 153<141.363 328.156>
VStem: 24 153<315 342.769 565 592.769>
LayerCount: 2
Back
SplineSet
438 310 m 4,0,1
 405 295 405 295 361 295 c 4,2,3
 349 295 349 295 337 296 c 4,4,5
 278 301 278 301 236 336 c 4,6,7
 226 344 226 344 214 344 c 4,8,9
 206 344 206 344 198 341 c 4,10,11
 180 332 180 332 177 315 c 5,12,-1
 24 315 l 5,13,14
 26 365 26 365 53 409 c 4,15,16
 82 456 82 456 132 479 c 4,17,18
 171 497 171 497 213 497 c 4,19,20
 225 497 225 497 238 495 c 4,21,22
 292 488 292 488 334 454 c 4,23,24
 344 445 344 445 356 445 c 4,25,26
 364 445 364 445 372 449 c 4,27,28
 389 457 389 457 393 474 c 5,29,-1
 546 474 l 5,30,31
 544 424 544 424 512 379 c 4,32,33
 477 329 477 329 438 310 c 4,0,1
446 560 m 4,34,35
 413 545 413 545 369 545 c 4,36,37
 357 545 357 545 345 546 c 4,38,39
 286 551 286 551 244 586 c 4,40,41
 234 594 234 594 222 594 c 4,42,43
 214 594 214 594 206 591 c 4,44,45
 188 582 188 582 185 565 c 5,46,-1
 32 565 l 5,47,48
 34 615 34 615 61 659 c 4,49,50
 90 706 90 706 140 729 c 4,51,52
 179 747 179 747 221 747 c 4,53,54
 233 747 233 747 246 745 c 4,55,56
 300 738 300 738 342 704 c 4,57,58
 352 695 352 695 364 695 c 4,59,60
 372 695 372 695 380 699 c 4,61,62
 397 707 397 707 401 724 c 5,63,-1
 554 724 l 5,64,65
 552 674 552 674 520 629 c 4,66,67
 485 579 485 579 446 560 c 4,34,35
EndSplineSet
Fore
SplineSet
157.713867188 551.466796875 m 1,0,1
 179 592 179 592 225.237304688 591.880859375 c 0,2,3
 243 592 243 592 277.0234375 573.309082031 c 0,4,5
 321 550 321 550 356.498046875 549.737304688 c 0,6,7
 497 550 497 550 565.954101562 677.232421875 c 1,8,-1
 432.590820312 748.672851562 l 1,9,10
 411 708 411 708 365.557617188 708.258789062 c 0,11,12
 348 708 348 708 313.508789062 726.330078125 c 0,13,14
 279 744 279 744 235.806640625 744.401367188 c 0,15,16
 88 744 88 744 24.3505859375 622.907226562 c 1,17,-1
 157.713867188 551.466796875 l 1,0,1
150.713867188 301.466796875 m 1,18,19
 172 342 172 342 218.237304688 341.880859375 c 0,20,21
 236 342 236 342 270.0234375 323.309082031 c 0,22,23
 314 300 314 300 349.498046875 299.737304688 c 0,24,25
 490 300 490 300 558.954101562 427.232421875 c 1,26,-1
 425.590820312 498.672851562 l 1,27,28
 404 458 404 458 358.557617188 458.258789062 c 0,29,30
 341 458 341 458 306.508789062 476.330078125 c 0,31,32
 272 494 272 494 228.806640625 494.401367188 c 0,33,34
 81 494 81 494 17.3505859375 372.907226562 c 1,35,-1
 150.713867188 301.466796875 l 1,18,19
EndSplineSet
Validated: 41
EndChar

StartChar: lessequal
Encoding: 427 8804 363
Width: 901
GlyphClass: 2
Flags: W
HStem: 1 154<-1 614>
VStem: -1 615<1 155>
LayerCount: 2
Fore
SplineSet
-1 1 m 1,0,-1
 -1 155 l 1,1,-1
 409 155 l 1,2,-1
 561.555555556 156.333333333 l 2,3,4
 606.666666667 156.333333333 606.666666667 156.333333333 614 155 c 1,5,-1
 614 1 l 1,6,-1
 -1 1 l 1,0,-1
6 742 m 1,7,-1
 437 1171 l 1,8,-1
 437 954 l 1,9,-1
 223 742 l 1,10,-1
 437 529 l 1,11,-1
 437 313 l 1,12,-1
 6 742 l 1,7,-1
EndSplineSet
Validated: 1
EndChar

StartChar: greaterequal
Encoding: 428 8805 364
Width: 703
GlyphClass: 2
Flags: W
HStem: 1 154<37 652>
VStem: 37 615<1 155>
LayerCount: 2
Fore
SplineSet
37 1 m 1,0,-1
 37 155 l 1,1,-1
 652 155 l 1,2,-1
 652 1 l 1,3,-1
 37 1 l 1,0,-1
221 271 m 1,4,-1
 652 700 l 1,5,-1
 221 1129 l 1,6,-1
 221 912 l 1,7,-1
 435 700 l 1,8,-1
 221 487 l 1,9,-1
 221 271 l 1,4,-1
EndSplineSet
Validated: 9
EndChar

